SplineFontDB: 3.0
FontName: MiaoUnicode-Regular
FullName: Miao Unicode
FamilyName: Miao Unicode
Weight: Regular
Copyright: Copyright (c) 2010, 2012 Adobe Systems Incorporated (http://www.adobe.com/), with Reserved Font Name 'Source'. All Rights Reserved. Source is a trademark of Adobe Systems Incorporated in the United States and/or other countries.\n\nCopyright (c) 2013 Philip Reimer, with Reserved Font Name 'Miao Unicode'.
FontLog: "Open-source Unicode font for users of the Miao (Pollard) script."
Version: 0.6 (Beta)
ItalicAngle: 0
UnderlinePosition: -50
UnderlineWidth: 50
Ascent: 750
Descent: 250
InvalidEm: 0
LayerCount: 2
Layer: 0 1 "Back" 1
Layer: 1 0 "Fore" 0
XUID: [1021 483 677828827 3354344]
BaseHoriz: 2 'ideo' 'romn'
BaseScript: 'DFLT' 1  -170 0
BaseScript: 'latn' 1  -170 0
FSType: 0
OS2Version: 3
OS2_WeightWidthSlopeOnly: 0
OS2_UseTypoMetrics: 1
CreationTime: 1366413349
ModificationTime: 1517589517
PfmFamily: 17
TTFWeight: 400
TTFWidth: 5
LineGap: 0
VLineGap: 0
Panose: 2 11 5 3 3 4 3 2 2 4
OS2TypoAscent: 750
OS2TypoAOffset: 0
OS2TypoDescent: -250
OS2TypoDOffset: 0
OS2TypoLinegap: 0
OS2WinAscent: 984
OS2WinAOffset: 0
OS2WinDescent: 273
OS2WinDOffset: 0
HheadAscent: 984
HheadAOffset: 0
HheadDescent: -273
HheadDOffset: 0
OS2SubXSize: 650
OS2SubYSize: 600
OS2SubXOff: 0
OS2SubYOff: 75
OS2SupXSize: 650
OS2SupYSize: 600
OS2SupXOff: 0
OS2SupYOff: 350
OS2StrikeYSize: 50
OS2StrikeYPos: 288
OS2Vendor: 'ADBE'
OS2CodePages: 20000193.00000000
OS2UnicodeRanges: 20000007.00000001.00000000.00000000
Lookup: 1 0 0 "'aalt' Access All Alternates in Latin lookup 0" { "'aalt' Access All Alternates in Latin lookup 0 subtable"  } ['aalt' ('DFLT' <'dflt' > 'latn' <'AZE ' 'CRT ' 'TRK ' 'dflt' > ) ]
Lookup: 3 0 0 "'aalt' Access All Alternates in Latin lookup 1" { "'aalt' Access All Alternates in Latin lookup 1 subtable"  } ['aalt' ('DFLT' <'dflt' > 'latn' <'AZE ' 'CRT ' 'TRK ' 'dflt' > ) ]

StartChar: .notdef
Encoding: 865 -1 0
Width: 653
Flags: HW
LayerCount: 2
Fore
SplineSet
89 660 m 1
 565 660 l 1
 565 0 l 1
 89 0 l 1
 89 660 l 1
281 340 m 1
 154 572 l 1
 154 110 l 1
 281 340 l 1
498 110 m 1
 498 572 l 1
 372 340 l 1
 498 110 l 1
454 58 m 1
 381 190 l 1
 329 293 l 1
 325 293 l 1
 271 190 l 1
 197 58 l 1
 454 58 l 1
329 387 m 1
 378 481 l 1
 444 600 l 1
 209 600 l 1
 275 481 l 1
 325 387 l 1
 329 387 l 1
EndSplineSet
Validated: 1
EndChar

StartChar: A
Encoding: 35 65 4
Width: 544
GlyphClass: 2
Flags: HW
AnchorPoint: "Anchor-4" 466 0 basechar 0
AnchorPoint: "Anchor-2" 270 -22 basechar 0
AnchorPoint: "Anchor-0" 270 678 basechar 0
LayerCount: 2
Fore
SplineSet
369 267 m 1
 338 367 l 2
 326 403.666666667 314.666666667 440.166666667 304 476.5 c 128
 293.333333333 512.833333333 282.666666667 550 272 588 c 1
 268 588 l 1
 258 550 247.666666667 512.833333333 237 476.5 c 128
 226.333333333 440.166666667 215 403.666666667 203 367 c 2
 172 267 l 1
 369 267 l 1
390 200 m 1
 151 200 l 1
 88 0 l 1
 3 0 l 1
 225 656 l 1
 319 656 l 1
 541 0 l 1
 452 0 l 1
 390 200 l 1
EndSplineSet
Validated: 1
Substitution2: "'sups' Superscript in Latin lookup 17 subtable" A.sups
Substitution2: "'c2sc' Capitals to Small Capitals in Latin lookup 9 subtable" A.sc
AlternateSubs2: "'aalt' Access All Alternates in Latin lookup 1 subtable" A.sc A.sups
EndChar

StartChar: B
Encoding: 36 66 5
Width: 588
GlyphClass: 2
Flags: HW
AnchorPoint: "Anchor-2" 302 -22 basechar 0
AnchorPoint: "Anchor-0" 287 678 basechar 0
LayerCount: 2
Fore
SplineSet
90 656 m 1
 285 656 l 2
 318.333333333 656 348.833333333 653 376.5 647 c 128
 404.166666667 641 427.833333333 631.666666667 447.5 619 c 128
 467.166666667 606.333333333 482.5 589.833333333 493.5 569.5 c 128
 504.5 549.166666667 510 524.666666667 510 496 c 0
 510 463.333333333 500.666666667 433.833333333 482 407.5 c 128
 463.333333333 381.166666667 434.666666667 363 396 353 c 1
 396 349 l 1
 444 341.666666667 481.333333333 325 508 299 c 128
 534.666666667 273 548 237.333333333 548 192 c 0
 548 160 542 132 530 108 c 128
 518 84 501 64 479 48 c 128
 457 32 430.666666667 20 400 12 c 128
 369.333333333 4 335.666666667 0 299 0 c 2
 90 0 l 1
 90 656 l 1
270 376 m 2
 326.666666667 376 367.166666667 385.666666667 391.5 405 c 128
 415.833333333 424.333333333 428 452.333333333 428 489 c 0
 428 525 415.166666667 550.833333333 389.5 566.5 c 128
 363.833333333 582.166666667 325.333333333 590 274 590 c 2
 173 590 l 1
 173 376 l 1
 270 376 l 2
287 66 m 2
 343.666666667 66 387.666666667 76.5 419 97.5 c 128
 450.333333333 118.5 466 151.333333333 466 196 c 0
 466 236.666666667 450.666666667 266.5 420 285.5 c 128
 389.333333333 304.5 345 314 287 314 c 2
 173 314 l 1
 173 66 l 1
 287 66 l 2
EndSplineSet
Validated: 1
Substitution2: "'sups' Superscript in Latin lookup 17 subtable" B.sups
Substitution2: "'c2sc' Capitals to Small Capitals in Latin lookup 9 subtable" B.sc
AlternateSubs2: "'aalt' Access All Alternates in Latin lookup 1 subtable" B.sc B.sups
EndChar

StartChar: C
Encoding: 37 67 6
Width: 571
GlyphClass: 2
Flags: HW
AnchorPoint: "Anchor-2" 343 -22 basechar 0
AnchorPoint: "Anchor-1" 343 0 basechar 0
AnchorPoint: "Anchor-0" 329 678 basechar 0
LayerCount: 2
Fore
SplineSet
52 328 m 0
 52 380.666666667 59.3333333333 428 74 470 c 128
 88.6666666667 512 109 547.666666667 135 577 c 128
 161 606.333333333 191.833333333 628.833333333 227.5 644.5 c 128
 263.166666667 660.166666667 302 668 344 668 c 0
 384 668 419 659.833333333 449 643.5 c 128
 479 627.166666667 503.666666667 608.333333333 523 587 c 1
 476 534 l 1
 458.666666667 552.666666667 439.5 567.5 418.5 578.5 c 128
 397.5 589.5 373 595 345 595 c 0
 313.666666667 595 285.333333333 588.833333333 260 576.5 c 128
 234.666666667 564.166666667 213 546.5 195 523.5 c 128
 177 500.5 163 472.666666667 153 440 c 128
 143 407.333333333 138 370.666666667 138 330 c 0
 138 288.666666667 142.833333333 251.5 152.5 218.5 c 128
 162.166666667 185.5 175.666666667 157.333333333 193 134 c 128
 210.333333333 110.666666667 231.5 92.6666666667 256.5 80 c 128
 281.5 67.3333333333 309.666666667 61 341 61 c 0
 373 61 400.833333333 67.3333333333 424.5 80 c 128
 448.166666667 92.6666666667 470.666666667 110.666666667 492 134 c 1
 539 83 l 1
 513 53 483.666666667 29.6666666667 451 13 c 128
 418.333333333 -3.66666666667 381 -12 339 -12 c 0
 297.666666667 -12 259.5 -4.33333333333 224.5 11 c 128
 189.5 26.3333333333 159.166666667 48.5 133.5 77.5 c 128
 107.833333333 106.5 87.8333333333 142.166666667 73.5 184.5 c 128
 59.1666666667 226.833333333 52 274.666666667 52 328 c 0
EndSplineSet
Validated: 1
Substitution2: "'sups' Superscript in Latin lookup 17 subtable" C.sups
Substitution2: "'c2sc' Capitals to Small Capitals in Latin lookup 9 subtable" C.sc
AlternateSubs2: "'aalt' Access All Alternates in Latin lookup 1 subtable" C.sc C.sups
EndChar

StartChar: D
Encoding: 38 68 7
Width: 615
GlyphClass: 2
Flags: HW
AnchorPoint: "Anchor-2" 305 -22 basechar 0
AnchorPoint: "Anchor-0" 308 678 basechar 0
LayerCount: 2
Fore
SplineSet
90 656 m 1
 254 656 l 2
 355.333333333 656 432.333333333 628 485 572 c 128
 537.666666667 516 564 435.666666667 564 331 c 0
 564 279 557.333333333 232.5 544 191.5 c 128
 530.666666667 150.5 511 115.833333333 485 87.5 c 128
 459 59.1666666667 427 37.5 389 22.5 c 128
 351 7.5 307.333333333 0 258 0 c 2
 90 0 l 1
 90 656 l 1
248 68 m 2
 324.666666667 68 382.166666667 91 420.5 137 c 128
 458.833333333 183 478 247.666666667 478 331 c 256
 478 414.333333333 458.833333333 478 420.5 522 c 128
 382.166666667 566 324.666666667 588 248 588 c 2
 173 588 l 1
 173 68 l 1
 248 68 l 2
EndSplineSet
Validated: 1
Substitution2: "'sups' Superscript in Latin lookup 17 subtable" D.sups
Substitution2: "'c2sc' Capitals to Small Capitals in Latin lookup 9 subtable" D.sc
AlternateSubs2: "'aalt' Access All Alternates in Latin lookup 1 subtable" D.sc D.sups
EndChar

StartChar: E
Encoding: 39 69 8
Width: 527
GlyphClass: 2
Flags: HW
AnchorPoint: "Anchor-4" 388 0 basechar 0
AnchorPoint: "Anchor-2" 298 -22 basechar 0
AnchorPoint: "Anchor-0" 285 678 basechar 0
LayerCount: 2
Fore
SplineSet
90 656 m 1
 468 656 l 1
 468 586 l 1
 173 586 l 1
 173 380 l 1
 422 380 l 1
 422 309 l 1
 173 309 l 1
 173 71 l 1
 478 71 l 1
 478 0 l 1
 90 0 l 1
 90 656 l 1
EndSplineSet
Validated: 1
Substitution2: "'sups' Superscript in Latin lookup 17 subtable" E.sups
Substitution2: "'c2sc' Capitals to Small Capitals in Latin lookup 9 subtable" E.sc
AlternateSubs2: "'aalt' Access All Alternates in Latin lookup 1 subtable" E.sc E.sups
EndChar

StartChar: F
Encoding: 40 70 9
Width: 494
GlyphClass: 2
Flags: HW
AnchorPoint: "Anchor-2" 135 -22 basechar 0
AnchorPoint: "Anchor-0" 286 678 basechar 0
LayerCount: 2
Fore
SplineSet
90 656 m 1
 468 656 l 1
 468 586 l 1
 173 586 l 1
 173 364 l 1
 423 364 l 1
 423 294 l 1
 173 294 l 1
 173 0 l 1
 90 0 l 1
 90 656 l 1
EndSplineSet
Validated: 1
Substitution2: "'sups' Superscript in Latin lookup 17 subtable" F.sups
Substitution2: "'c2sc' Capitals to Small Capitals in Latin lookup 9 subtable" F.sc
AlternateSubs2: "'aalt' Access All Alternates in Latin lookup 1 subtable" F.sc F.sups
EndChar

StartChar: G
Encoding: 41 71 10
Width: 617
GlyphClass: 2
Flags: HW
AnchorPoint: "Anchor-2" 348 -22 basechar 0
AnchorPoint: "Anchor-0" 353 678 basechar 0
LayerCount: 2
Fore
SplineSet
52 328 m 0
 52 380.666666667 59.5 428 74.5 470 c 128
 89.5 512 110.5 547.666666667 137.5 577 c 128
 164.5 606.333333333 196.333333333 628.833333333 233 644.5 c 128
 269.666666667 660.166666667 310 668 354 668 c 0
 399.333333333 668 437.166666667 659.5 467.5 642.5 c 128
 497.833333333 625.5 522.666666667 607 542 587 c 1
 495 534 l 1
 478.333333333 551.333333333 459.166666667 565.833333333 437.5 577.5 c 128
 415.833333333 589.166666667 388.333333333 595 355 595 c 256
 321.666666667 595 291.666666667 588.833333333 265 576.5 c 128
 238.333333333 564.166666667 215.666666667 546.5 197 523.5 c 128
 178.333333333 500.5 163.833333333 472.666666667 153.5 440 c 128
 143.166666667 407.333333333 138 370.666666667 138 330 c 0
 138 288.666666667 142.833333333 251.5 152.5 218.5 c 128
 162.166666667 185.5 176.166666667 157.333333333 194.5 134 c 128
 212.833333333 110.666666667 235.5 92.6666666667 262.5 80 c 128
 289.5 67.3333333333 320.666666667 61 356 61 c 0
 379.333333333 61 401.5 64.5 422.5 71.5 c 128
 443.5 78.5 460.666666667 88 474 100 c 1
 474 271 l 1
 335 271 l 1
 335 340 l 1
 550 340 l 1
 550 64 l 1
 528.666666667 42 500.5 23.8333333333 465.5 9.5 c 128
 430.5 -4.83333333333 391 -12 347 -12 c 0
 303.666666667 -12 264 -4.33333333333 228 11 c 128
 192 26.3333333333 161 48.5 135 77.5 c 128
 109 106.5 88.6666666667 142.166666667 74 184.5 c 128
 59.3333333333 226.833333333 52 274.666666667 52 328 c 0
EndSplineSet
Validated: 1
Substitution2: "'sups' Superscript in Latin lookup 17 subtable" G.sups
Substitution2: "'c2sc' Capitals to Small Capitals in Latin lookup 9 subtable" G.sc
AlternateSubs2: "'aalt' Access All Alternates in Latin lookup 1 subtable" G.sc G.sups
EndChar

StartChar: H
Encoding: 42 72 11
Width: 652
GlyphClass: 2
Flags: HW
AnchorPoint: "Anchor-2" 325 -22 basechar 0
AnchorPoint: "Anchor-0" 325 678 basechar 0
LayerCount: 2
Fore
SplineSet
90 656 m 1
 173 656 l 1
 173 381 l 1
 478 381 l 1
 478 656 l 1
 562 656 l 1
 562 0 l 1
 478 0 l 1
 478 309 l 1
 173 309 l 1
 173 0 l 1
 90 0 l 1
 90 656 l 1
EndSplineSet
Validated: 1
Substitution2: "'sups' Superscript in Latin lookup 17 subtable" H.sups
Substitution2: "'c2sc' Capitals to Small Capitals in Latin lookup 9 subtable" H.sc
AlternateSubs2: "'aalt' Access All Alternates in Latin lookup 1 subtable" H.sc H.sups
EndChar

StartChar: I
Encoding: 43 73 12
Width: 263
GlyphClass: 2
Flags: HW
AnchorPoint: "Anchor-4" 108 0 basechar 0
AnchorPoint: "Anchor-2" 131 -22 basechar 0
AnchorPoint: "Anchor-0" 131 678 basechar 0
LayerCount: 2
Fore
SplineSet
90 656 m 1
 173 656 l 1
 173 0 l 1
 90 0 l 1
 90 656 l 1
EndSplineSet
Validated: 1
Substitution2: "'ss04' Style Set 4 in Latin lookup 29 subtable" I.a
Substitution2: "'sups' Superscript in Latin lookup 17 subtable" I.sups
Substitution2: "'c2sc' Capitals to Small Capitals in Latin lookup 9 subtable" I.sc
AlternateSubs2: "'aalt' Access All Alternates in Latin lookup 1 subtable" I.sc I.sups I.a
EndChar

StartChar: J
Encoding: 44 74 13
Width: 480
GlyphClass: 2
Flags: HW
AnchorPoint: "Anchor-2" 253 -22 basechar 0
AnchorPoint: "Anchor-0" 348 678 basechar 0
LayerCount: 2
Fore
SplineSet
91 135 m 1
 105.666666667 109 122.333333333 90.1666666667 141 78.5 c 128
 159.666666667 66.8333333333 180.666666667 61 204 61 c 0
 239.333333333 61 265.666666667 71.8333333333 283 93.5 c 128
 300.333333333 115.166666667 309 151 309 201 c 2
 309 656 l 1
 393 656 l 1
 393 193 l 2
 393 165 389.5 138.5 382.5 113.5 c 128
 375.5 88.5 364.833333333 66.6666666667 350.5 48 c 128
 336.166666667 29.3333333333 317.5 14.6666666667 294.5 4 c 128
 271.5 -6.66666666667 244 -12 212 -12 c 0
 130 -12 69.6666666667 23 31 93 c 1
 91 135 l 1
EndSplineSet
Validated: 1
Substitution2: "'sups' Superscript in Latin lookup 17 subtable" J.sups
Substitution2: "'c2sc' Capitals to Small Capitals in Latin lookup 9 subtable" J.sc
AlternateSubs2: "'aalt' Access All Alternates in Latin lookup 1 subtable" J.sc J.sups
EndChar

StartChar: K
Encoding: 45 75 14
Width: 579
GlyphClass: 2
Flags: HW
AnchorPoint: "Anchor-2" 328 -22 basechar 0
AnchorPoint: "Anchor-0" 311 678 basechar 0
LayerCount: 2
Fore
SplineSet
90 656 m 1
 173 656 l 1
 173 327 l 1
 176 327 l 1
 449 656 l 1
 543 656 l 1
 338 406 l 1
 575 0 l 1
 482 0 l 1
 286 341 l 1
 173 208 l 1
 173 0 l 1
 90 0 l 1
 90 656 l 1
EndSplineSet
Validated: 1
Substitution2: "'sups' Superscript in Latin lookup 17 subtable" K.sups
Substitution2: "'c2sc' Capitals to Small Capitals in Latin lookup 9 subtable" K.sc
AlternateSubs2: "'aalt' Access All Alternates in Latin lookup 1 subtable" K.sc K.sups
EndChar

StartChar: L
Encoding: 46 76 15
Width: 486
GlyphClass: 2
Flags: HW
AnchorPoint: "Anchor-2" 289 -22 basechar 0
AnchorPoint: "Anchor-0" 133 678 basechar 0
LayerCount: 2
Fore
SplineSet
90 656 m 1
 173 656 l 1
 173 71 l 1
 460 71 l 1
 460 0 l 1
 90 0 l 1
 90 656 l 1
EndSplineSet
Validated: 1
Substitution2: "'sups' Superscript in Latin lookup 17 subtable" L.sups
Substitution2: "'c2sc' Capitals to Small Capitals in Latin lookup 9 subtable" L.sc
AlternateSubs2: "'aalt' Access All Alternates in Latin lookup 1 subtable" L.sc L.sups
EndChar

StartChar: M
Encoding: 47 77 16
Width: 727
GlyphClass: 2
Flags: HW
AnchorPoint: "Anchor-2" 365 -22 basechar 0
AnchorPoint: "Anchor-0" 363 678 basechar 0
LayerCount: 2
Fore
SplineSet
90 656 m 1
 188 656 l 1
 315 304 l 1
 363 170 l 1
 367 170 l 1
 413 304 l 1
 539 656 l 1
 637 656 l 1
 637 0 l 1
 558 0 l 1
 558 361 l 2
 558 390.333333333 559.166666667 422.666666667 561.5 458 c 128
 563.833333333 493.333333333 566.333333333 525.666666667 569 555 c 1
 565 555 l 1
 512 409 l 1
 386 66 l 1
 339 66 l 1
 212 409 l 1
 160 555 l 1
 156 555 l 1
 158 525.666666667 160.333333333 493.333333333 163 458 c 128
 165.666666667 422.666666667 167 390.333333333 167 361 c 2
 167 0 l 1
 90 0 l 1
 90 656 l 1
EndSplineSet
Validated: 1
Substitution2: "'sups' Superscript in Latin lookup 17 subtable" M.sups
Substitution2: "'c2sc' Capitals to Small Capitals in Latin lookup 9 subtable" M.sc
AlternateSubs2: "'aalt' Access All Alternates in Latin lookup 1 subtable" M.sc M.sups
EndChar

StartChar: N
Encoding: 48 78 17
Width: 647
GlyphClass: 2
Flags: HW
AnchorPoint: "Anchor-2" 327 -22 basechar 0
AnchorPoint: "Anchor-0" 327 678 basechar 0
LayerCount: 2
Fore
SplineSet
90 656 m 1
 176 656 l 1
 413 244 l 1
 484 108 l 1
 488 108 l 1
 486 141.333333333 483.833333333 175.833333333 481.5 211.5 c 128
 479.166666667 247.166666667 478 282.333333333 478 317 c 2
 478 656 l 1
 557 656 l 1
 557 0 l 1
 471 0 l 1
 233 413 l 1
 162 548 l 1
 158 548 l 1
 160.666666667 514.666666667 163.166666667 480.833333333 165.5 446.5 c 128
 167.833333333 412.166666667 169 377.666666667 169 343 c 2
 169 0 l 1
 90 0 l 1
 90 656 l 1
EndSplineSet
Validated: 1
Substitution2: "'sups' Superscript in Latin lookup 17 subtable" N.sups
Substitution2: "'c2sc' Capitals to Small Capitals in Latin lookup 9 subtable" N.sc
AlternateSubs2: "'aalt' Access All Alternates in Latin lookup 1 subtable" N.sc N.sups
EndChar

StartChar: O
Encoding: 49 79 18
Width: 664
GlyphClass: 2
Flags: HW
AnchorPoint: "Anchor-4" 332 0 basechar 0
AnchorPoint: "Anchor-3" 469 646 basechar 0
AnchorPoint: "Anchor-2" 332 -22 basechar 0
AnchorPoint: "Anchor-0" 332 678 basechar 0
LayerCount: 2
Fore
SplineSet
332 -12 m 256
 290.666666667 -12 252.833333333 -4 218.5 12 c 128
 184.166666667 28 154.666666667 50.8333333333 130 80.5 c 128
 105.333333333 110.166666667 86.1666666667 146.166666667 72.5 188.5 c 128
 58.8333333333 230.833333333 52 278.333333333 52 331 c 256
 52 383.666666667 58.8333333333 430.833333333 72.5 472.5 c 128
 86.1666666667 514.166666667 105.333333333 549.5 130 578.5 c 128
 154.666666667 607.5 184.166666667 629.666666667 218.5 645 c 128
 252.833333333 660.333333333 290.666666667 668 332 668 c 256
 373.333333333 668 411.166666667 660.166666667 445.5 644.5 c 128
 479.833333333 628.833333333 509.5 606.5 534.5 577.5 c 128
 559.5 548.5 578.833333333 513.166666667 592.5 471.5 c 128
 606.166666667 429.833333333 613 383 613 331 c 0
 613 278.333333333 606.166666667 230.833333333 592.5 188.5 c 128
 578.833333333 146.166666667 559.5 110.166666667 534.5 80.5 c 128
 509.5 50.8333333333 479.833333333 28 445.5 12 c 128
 411.166666667 -4 373.333333333 -12 332 -12 c 256
332 61 m 256
 361.333333333 61 387.833333333 67.3333333333 411.5 80 c 128
 435.166666667 92.6666666667 455.5 110.833333333 472.5 134.5 c 128
 489.5 158.166666667 502.666666667 186.5 512 219.5 c 128
 521.333333333 252.5 526 289.666666667 526 331 c 0
 526 371.666666667 521.333333333 408.333333333 512 441 c 128
 502.666666667 473.666666667 489.5 501.333333333 472.5 524 c 128
 455.5 546.666666667 435.166666667 564.166666667 411.5 576.5 c 128
 387.833333333 588.833333333 361.333333333 595 332 595 c 256
 302.666666667 595 276.166666667 588.833333333 252.5 576.5 c 128
 228.833333333 564.166666667 208.5 546.666666667 191.5 524 c 128
 174.5 501.333333333 161.333333333 473.666666667 152 441 c 128
 142.666666667 408.333333333 138 371.666666667 138 331 c 0
 138 289.666666667 142.666666667 252.5 152 219.5 c 128
 161.333333333 186.5 174.5 158.166666667 191.5 134.5 c 128
 208.5 110.833333333 228.833333333 92.6666666667 252.5 80 c 128
 276.166666667 67.3333333333 302.666666667 61 332 61 c 256
EndSplineSet
Validated: 1
Substitution2: "'sups' Superscript in Latin lookup 17 subtable" O.sups
Substitution2: "'c2sc' Capitals to Small Capitals in Latin lookup 9 subtable" O.sc
AlternateSubs2: "'aalt' Access All Alternates in Latin lookup 1 subtable" O.sc O.sups
EndChar

StartChar: P
Encoding: 50 80 19
Width: 576
GlyphClass: 2
Flags: HW
AnchorPoint: "Anchor-2" 137 -22 basechar 0
AnchorPoint: "Anchor-0" 303 678 basechar 0
LayerCount: 2
Fore
SplineSet
90 656 m 1
 291 656 l 2
 327 656 360 652.666666667 390 646 c 128
 420 639.333333333 445.5 628.5 466.5 613.5 c 128
 487.5 598.5 503.833333333 578.666666667 515.5 554 c 128
 527.166666667 529.333333333 533 499 533 463 c 0
 533 428.333333333 527.166666667 398.333333333 515.5 373 c 128
 503.833333333 347.666666667 487.333333333 326.666666667 466 310 c 128
 444.666666667 293.333333333 419.166666667 280.833333333 389.5 272.5 c 128
 359.833333333 264.166666667 327 260 291 260 c 2
 173 260 l 1
 173 0 l 1
 90 0 l 1
 90 656 l 1
281 328 m 2
 338.333333333 328 380.833333333 338.833333333 408.5 360.5 c 128
 436.166666667 382.166666667 450 416.333333333 450 463 c 0
 450 510.333333333 436 543.166666667 408 561.5 c 128
 380 579.833333333 337.666666667 589 281 589 c 2
 173 589 l 1
 173 328 l 1
 281 328 l 2
EndSplineSet
Validated: 1
Substitution2: "'sups' Superscript in Latin lookup 17 subtable" P.sups
Substitution2: "'c2sc' Capitals to Small Capitals in Latin lookup 9 subtable" P.sc
AlternateSubs2: "'aalt' Access All Alternates in Latin lookup 1 subtable" P.sc P.sups
EndChar

StartChar: Q
Encoding: 51 81 20
Width: 664
GlyphClass: 2
Flags: HW
AnchorPoint: "Anchor-0" 332 678 basechar 0
LayerCount: 2
Fore
SplineSet
138 331 m 0
 138 289 142.666666667 251.166666667 152 217.5 c 128
 161.333333333 183.833333333 174.5 155 191.5 131 c 128
 208.5 107 228.833333333 88.6666666667 252.5 76 c 128
 276.166666667 63.3333333333 302.666666667 57 332 57 c 256
 361.333333333 57 387.833333333 63.3333333333 411.5 76 c 128
 435.166666667 88.6666666667 455.5 107 472.5 131 c 128
 489.5 155 502.666666667 183.833333333 512 217.5 c 128
 521.333333333 251.166666667 526 289 526 331 c 0
 526 371.666666667 521.333333333 408.333333333 512 441 c 128
 502.666666667 473.666666667 489.5 501.333333333 472.5 524 c 128
 455.5 546.666666667 435.166666667 564.166666667 411.5 576.5 c 128
 387.833333333 588.833333333 361.333333333 595 332 595 c 256
 302.666666667 595 276.166666667 588.833333333 252.5 576.5 c 128
 228.833333333 564.166666667 208.5 546.666666667 191.5 524 c 128
 174.5 501.333333333 161.333333333 473.666666667 152 441 c 128
 142.666666667 408.333333333 138 371.666666667 138 331 c 0
627 -149 m 1
 617 -152.333333333 603.666666667 -155.666666667 587 -159 c 128
 570.333333333 -162.333333333 552.333333333 -164 533 -164 c 0
 472.333333333 -164 421.666666667 -149.5 381 -120.5 c 128
 340.333333333 -91.5 310.333333333 -54.3333333333 291 -9 c 1
 255 -4.33333333333 222.333333333 7 193 25 c 128
 163.666666667 43 138.5 66.6666666667 117.5 96 c 128
 96.5 125.333333333 80.3333333333 159.833333333 69 199.5 c 128
 57.6666666667 239.166666667 52 283 52 331 c 0
 52 383.666666667 58.8333333333 430.833333333 72.5 472.5 c 128
 86.1666666667 514.166666667 105.333333333 549.5 130 578.5 c 128
 154.666666667 607.5 184.166666667 629.666666667 218.5 645 c 128
 252.833333333 660.333333333 290.666666667 668 332 668 c 256
 373.333333333 668 411.166666667 660.166666667 445.5 644.5 c 128
 479.833333333 628.833333333 509.5 606.5 534.5 577.5 c 128
 559.5 548.5 578.833333333 513.166666667 592.5 471.5 c 128
 606.166666667 429.833333333 613 383 613 331 c 0
 613 283.666666667 607.5 240.5 596.5 201.5 c 128
 585.5 162.5 569.833333333 128.5 549.5 99.5 c 128
 529.166666667 70.5 504.666666667 46.8333333333 476 28.5 c 128
 447.333333333 10.1666666667 415.666666667 -2 381 -8 c 1
 396.333333333 -37.3333333333 418 -59 446 -73 c 128
 474 -87 506 -94 542 -94 c 0
 556.666666667 -94 569.5 -93 580.5 -91 c 128
 591.5 -89 601.666666667 -86.6666666667 611 -84 c 1
 627 -149 l 1
EndSplineSet
Validated: 1
Substitution2: "'sups' Superscript in Latin lookup 17 subtable" Q.sups
Substitution2: "'c2sc' Capitals to Small Capitals in Latin lookup 9 subtable" Q.sc
AlternateSubs2: "'aalt' Access All Alternates in Latin lookup 1 subtable" Q.sc Q.sups
EndChar

StartChar: R
Encoding: 52 82 21
Width: 581
GlyphClass: 2
Flags: HW
AnchorPoint: "Anchor-2" 310 -22 basechar 0
AnchorPoint: "Anchor-0" 295 678 basechar 0
LayerCount: 2
Fore
SplineSet
173 345 m 1
 283 345 l 2
 334.333333333 345 373.666666667 355.5 401 376.5 c 128
 428.333333333 397.5 442 429.333333333 442 472 c 0
 442 515.333333333 428.333333333 545.666666667 401 563 c 128
 373.666666667 580.333333333 334.333333333 589 283 589 c 2
 173 589 l 1
 173 345 l 1
450 0 m 1
 292 277 l 1
 173 277 l 1
 173 0 l 1
 90 0 l 1
 90 656 l 1
 295 656 l 2
 328.333333333 656 359.166666667 652.833333333 387.5 646.5 c 128
 415.833333333 640.166666667 440.166666667 629.666666667 460.5 615 c 128
 480.833333333 600.333333333 496.666666667 581.333333333 508 558 c 128
 519.333333333 534.666666667 525 506 525 472 c 0
 525 420.666666667 511.666666667 379.666666667 485 349 c 128
 458.333333333 318.333333333 422.666666667 297.333333333 378 286 c 1
 544 0 l 1
 450 0 l 1
EndSplineSet
Validated: 1
Substitution2: "'sups' Superscript in Latin lookup 17 subtable" R.sups
Substitution2: "'c2sc' Capitals to Small Capitals in Latin lookup 9 subtable" R.sc
AlternateSubs2: "'aalt' Access All Alternates in Latin lookup 1 subtable" R.sc R.sups
EndChar

StartChar: S
Encoding: 53 83 22
Width: 534
GlyphClass: 2
Flags: HW
AnchorPoint: "Anchor-2" 273 -22 basechar 0
AnchorPoint: "Anchor-1" 273 0 basechar 0
AnchorPoint: "Anchor-0" 278 678 basechar 0
LayerCount: 2
Fore
SplineSet
92 143 m 1
 115.333333333 118.333333333 142.833333333 98.5 174.5 83.5 c 128
 206.166666667 68.5 239 61 273 61 c 0
 316.333333333 61 350 70.8333333333 374 90.5 c 128
 398 110.166666667 410 136 410 168 c 0
 410 184.666666667 407.166666667 198.833333333 401.5 210.5 c 128
 395.833333333 222.166666667 388.166666667 232.166666667 378.5 240.5 c 128
 368.833333333 248.833333333 357.333333333 256.333333333 344 263 c 128
 330.666666667 269.666666667 316.333333333 276.666666667 301 284 c 2
 207 325 l 2
 191.666666667 331.666666667 176 339.666666667 160 349 c 128
 144 358.333333333 129.666666667 369.666666667 117 383 c 128
 104.333333333 396.333333333 94 412.166666667 86 430.5 c 128
 78 448.833333333 74 470 74 494 c 0
 74 518.666666667 79.1666666667 541.666666667 89.5 563 c 128
 99.8333333333 584.333333333 114.166666667 602.833333333 132.5 618.5 c 128
 150.833333333 634.166666667 172.5 646.333333333 197.5 655 c 128
 222.5 663.666666667 250 668 280 668 c 0
 319.333333333 668 355.666666667 660.5 389 645.5 c 128
 422.333333333 630.5 450.666666667 611 474 587 c 1
 429 533 l 1
 409 552.333333333 386.833333333 567.5 362.5 578.5 c 128
 338.166666667 589.5 310.666666667 595 280 595 c 0
 243.333333333 595 213.833333333 586.5 191.5 569.5 c 128
 169.166666667 552.5 158 529 158 499 c 0
 158 483 161.166666667 469.5 167.5 458.5 c 128
 173.833333333 447.5 182.333333333 437.833333333 193 429.5 c 128
 203.666666667 421.166666667 215.333333333 413.833333333 228 407.5 c 128
 240.666666667 401.166666667 253.666666667 395.333333333 267 390 c 2
 360 350 l 2
 378.666666667 342 396.333333333 332.833333333 413 322.5 c 128
 429.666666667 312.166666667 444 300.166666667 456 286.5 c 128
 468 272.833333333 477.5 256.833333333 484.5 238.5 c 128
 491.5 220.166666667 495 199 495 175 c 0
 495 149 489.833333333 124.666666667 479.5 102 c 128
 469.166666667 79.3333333333 454.333333333 59.5 435 42.5 c 128
 415.666666667 25.5 392.333333333 12.1666666667 365 2.5 c 128
 337.666666667 -7.16666666667 306.666666667 -12 272 -12 c 0
 226 -12 183.333333333 -3.33333333333 144 14 c 128
 104.666666667 31.3333333333 70.6666666667 55 42 85 c 1
 92 143 l 1
EndSplineSet
Validated: 1
Substitution2: "'sups' Superscript in Latin lookup 17 subtable" S.sups
Substitution2: "'c2sc' Capitals to Small Capitals in Latin lookup 9 subtable" S.sc
AlternateSubs2: "'aalt' Access All Alternates in Latin lookup 1 subtable" S.sc S.sups
EndChar

StartChar: T
Encoding: 54 84 23
Width: 536
GlyphClass: 2
Flags: HW
AnchorPoint: "Anchor-2" 268 -22 basechar 0
AnchorPoint: "Anchor-1" 268 0 basechar 0
AnchorPoint: "Anchor-0" 267 678 basechar 0
LayerCount: 2
Fore
SplineSet
226 586 m 1
 28 586 l 1
 28 656 l 1
 508 656 l 1
 508 586 l 1
 310 586 l 1
 310 0 l 1
 226 0 l 1
 226 586 l 1
EndSplineSet
Validated: 1
Substitution2: "'sups' Superscript in Latin lookup 17 subtable" T.sups
Substitution2: "'c2sc' Capitals to Small Capitals in Latin lookup 9 subtable" T.sc
AlternateSubs2: "'aalt' Access All Alternates in Latin lookup 1 subtable" T.sc T.sups
EndChar

StartChar: U
Encoding: 55 85 24
Width: 645
GlyphClass: 2
Flags: HW
AnchorPoint: "Anchor-4" 322 0 basechar 0
AnchorPoint: "Anchor-3" 525 666 basechar 0
AnchorPoint: "Anchor-2" 322 -22 basechar 0
AnchorPoint: "Anchor-0" 322 678 basechar 0
LayerCount: 2
Fore
SplineSet
87 656 m 1
 170 656 l 1
 170 269 l 2
 170 229.666666667 174 196.666666667 182 170 c 128
 190 143.333333333 200.833333333 122 214.5 106 c 128
 228.166666667 90 244.333333333 78.5 263 71.5 c 128
 281.666666667 64.5 301.666666667 61 323 61 c 0
 345 61 365.333333333 64.5 384 71.5 c 128
 402.666666667 78.5 419 90 433 106 c 128
 447 122 458 143.333333333 466 170 c 128
 474 196.666666667 478 229.666666667 478 269 c 2
 478 656 l 1
 558 656 l 1
 558 271 l 2
 558 218.333333333 552 174 540 138 c 128
 528 102 511.5 72.8333333333 490.5 50.5 c 128
 469.5 28.1666666667 444.666666667 12.1666666667 416 2.5 c 128
 387.333333333 -7.16666666667 356.333333333 -12 323 -12 c 256
 289.666666667 -12 258.5 -7.16666666667 229.5 2.5 c 128
 200.5 12.1666666667 175.5 28.1666666667 154.5 50.5 c 128
 133.5 72.8333333333 117 102 105 138 c 128
 93 174 87 218.333333333 87 271 c 2
 87 656 l 1
EndSplineSet
Validated: 1
Substitution2: "'sups' Superscript in Latin lookup 17 subtable" U.sups
Substitution2: "'c2sc' Capitals to Small Capitals in Latin lookup 9 subtable" U.sc
AlternateSubs2: "'aalt' Access All Alternates in Latin lookup 1 subtable" U.sc U.sups
EndChar

StartChar: V
Encoding: 56 86 25
Width: 515
GlyphClass: 2
Flags: HW
AnchorPoint: "Anchor-2" 258 -22 basechar 0
AnchorPoint: "Anchor-0" 257 678 basechar 0
LayerCount: 2
Fore
SplineSet
0 656 m 1
 89 656 l 1
 194 302 l 2
 206 262.666666667 216.5 226.333333333 225.5 193 c 128
 234.5 159.666666667 245.333333333 123.666666667 258 85 c 1
 262 85 l 1
 274 123.666666667 284.666666667 159.666666667 294 193 c 128
 303.333333333 226.333333333 313.666666667 262.666666667 325 302 c 2
 430 656 l 1
 515 656 l 1
 307 0 l 1
 210 0 l 1
 0 656 l 1
EndSplineSet
Validated: 1
Substitution2: "'sups' Superscript in Latin lookup 17 subtable" V.sups
Substitution2: "'c2sc' Capitals to Small Capitals in Latin lookup 9 subtable" V.sc
AlternateSubs2: "'aalt' Access All Alternates in Latin lookup 1 subtable" V.sc V.sups
EndChar

StartChar: W
Encoding: 57 87 26
Width: 786
GlyphClass: 2
Flags: HW
AnchorPoint: "Anchor-2" 396 -22 basechar 0
AnchorPoint: "Anchor-0" 393 678 basechar 0
LayerCount: 2
Fore
SplineSet
23 656 m 1
 109 656 l 1
 178 299 l 1
 184 263 190.333333333 227.666666667 197 193 c 128
 203.666666667 158.333333333 210 123 216 87 c 1
 220 87 l 1
 227.333333333 123 235 158.5 243 193.5 c 128
 251 228.5 258.666666667 263.666666667 266 299 c 1
 357 656 l 1
 433 656 l 1
 524 299 l 1
 532 264.333333333 540 229.333333333 548 194 c 128
 556 158.666666667 564 123 572 87 c 1
 576 87 l 1
 582 123 588 158.5 594 193.5 c 128
 600 228.5 606.333333333 263.666666667 613 299 c 2
 682 656 l 1
 762 656 l 1
 626 0 l 1
 526 0 l 1
 427 395 l 2
 421 420.333333333 415.5 445.166666667 410.5 469.5 c 128
 405.5 493.833333333 400.333333333 518.666666667 395 544 c 1
 391 544 l 1
 385.666666667 518.666666667 380.166666667 493.833333333 374.5 469.5 c 128
 368.833333333 445.166666667 363.333333333 420.333333333 358 395 c 1
 261 0 l 1
 162 0 l 1
 23 656 l 1
EndSplineSet
Validated: 1
Substitution2: "'sups' Superscript in Latin lookup 17 subtable" W.sups
Substitution2: "'c2sc' Capitals to Small Capitals in Latin lookup 9 subtable" W.sc
AlternateSubs2: "'aalt' Access All Alternates in Latin lookup 1 subtable" W.sc W.sups
EndChar

StartChar: X
Encoding: 58 88 27
Width: 513
GlyphClass: 2
Flags: HW
AnchorPoint: "Anchor-2" 252 -22 basechar 0
AnchorPoint: "Anchor-0" 257 678 basechar 0
LayerCount: 2
Fore
SplineSet
206 339 m 1
 28 656 l 1
 120 656 l 1
 209 488 l 2
 217.666666667 472.666666667 225.833333333 457.833333333 233.5 443.5 c 128
 241.166666667 429.166666667 250 412.333333333 260 393 c 1
 264 393 l 1
 273.333333333 412.333333333 281.5 429.166666667 288.5 443.5 c 128
 295.5 457.833333333 303 472.666666667 311 488 c 2
 398 656 l 1
 486 656 l 1
 307 335 l 1
 498 0 l 1
 406 0 l 1
 310 177 l 2
 301.333333333 193 292.5 209.5 283.5 226.5 c 128
 274.5 243.5 264.666666667 262 254 282 c 1
 250 282 l 1
 240.666666667 262 231.666666667 243.5 223 226.5 c 128
 214.333333333 209.5 206 193 198 177 c 2
 103 0 l 1
 15 0 l 1
 206 339 l 1
EndSplineSet
Validated: 1
Substitution2: "'sups' Superscript in Latin lookup 17 subtable" X.sups
Substitution2: "'c2sc' Capitals to Small Capitals in Latin lookup 9 subtable" X.sc
AlternateSubs2: "'aalt' Access All Alternates in Latin lookup 1 subtable" X.sc X.sups
EndChar

StartChar: Y
Encoding: 59 89 28
Width: 476
GlyphClass: 2
Flags: HW
AnchorPoint: "Anchor-2" 240 -22 basechar 0
AnchorPoint: "Anchor-0" 238 678 basechar 0
LayerCount: 2
Fore
SplineSet
196 254 m 1
 -1 656 l 1
 88 656 l 1
 173 471 l 2
 183.666666667 447 194 423.333333333 204 400 c 128
 214 376.666666667 224.666666667 352.666666667 236 328 c 1
 240 328 l 1
 251.333333333 352.666666667 262.666666667 376.666666667 274 400 c 128
 285.333333333 423.333333333 296 447 306 471 c 1
 390 656 l 1
 477 656 l 1
 280 254 l 1
 280 0 l 1
 196 0 l 1
 196 254 l 1
EndSplineSet
Validated: 1
Substitution2: "'sups' Superscript in Latin lookup 17 subtable" Y.sups
Substitution2: "'c2sc' Capitals to Small Capitals in Latin lookup 9 subtable" Y.sc
AlternateSubs2: "'aalt' Access All Alternates in Latin lookup 1 subtable" Y.sc Y.sups
EndChar

StartChar: Z
Encoding: 60 90 29
Width: 539
GlyphClass: 2
Flags: HW
AnchorPoint: "Anchor-2" 282 -22 basechar 0
AnchorPoint: "Anchor-0" 280 678 basechar 0
LayerCount: 2
Fore
SplineSet
45 50 m 1
 390 586 l 1
 76 586 l 1
 76 656 l 1
 494 656 l 1
 494 607 l 1
 148 71 l 1
 497 71 l 1
 497 0 l 1
 45 0 l 1
 45 50 l 1
EndSplineSet
Validated: 1
Substitution2: "'sups' Superscript in Latin lookup 17 subtable" Z.sups
Substitution2: "'c2sc' Capitals to Small Capitals in Latin lookup 9 subtable" Z.sc
AlternateSubs2: "'aalt' Access All Alternates in Latin lookup 1 subtable" Z.sc Z.sups
EndChar

StartChar: a
Encoding: 67 97 30
Width: 512
GlyphClass: 2
Flags: HW
AnchorPoint: "Anchor-4" 414 0 basechar 0
AnchorPoint: "Anchor-2" 252 -22 basechar 0
AnchorPoint: "Anchor-0" 269 508 basechar 0
LayerCount: 2
Fore
SplineSet
58 126 m 0
 58 179.333333333 81.8333333333 220.166666667 129.5 248.5 c 128
 177.166666667 276.833333333 253 296.666666667 357 308 c 1
 357 323.333333333 355.5 338.333333333 352.5 353 c 128
 349.5 367.666666667 344.166666667 380.666666667 336.5 392 c 128
 328.833333333 403.333333333 318.666666667 412.5 306 419.5 c 128
 293.333333333 426.5 277 430 257 430 c 0
 228.333333333 430 201.833333333 424.666666667 177.5 414 c 128
 153.166666667 403.333333333 131.333333333 391.333333333 112 378 c 1
 79 435 l 1
 101.666666667 449.666666667 129.333333333 463.833333333 162 477.5 c 128
 194.666666667 491.166666667 230.666666667 498 270 498 c 0
 329.333333333 498 372.333333333 479.833333333 399 443.5 c 128
 425.666666667 407.166666667 439 358.666666667 439 298 c 2
 439 0 l 1
 371 0 l 1
 364 58 l 1
 362 58 l 1
 338.666666667 38.6666666667 313.5 22.1666666667 286.5 8.5 c 128
 259.5 -5.16666666667 231 -12 201 -12 c 0
 159.666666667 -12 125.5 0 98.5 24 c 128
 71.5 48 58 82 58 126 c 0
139 132 m 0
 139 104 147.166666667 84 163.5 72 c 128
 179.833333333 60 200 54 224 54 c 0
 247.333333333 54 269.5 59.5 290.5 70.5 c 128
 311.5 81.5 333.666666667 97.6666666667 357 119 c 1
 357 254 l 1
 316.333333333 248.666666667 282 242.333333333 254 235 c 128
 226 227.666666667 203.5 219 186.5 209 c 128
 169.5 199 157.333333333 187.5 150 174.5 c 128
 142.666666667 161.5 139 147.333333333 139 132 c 0
EndSplineSet
Validated: 1
Substitution2: "'ss02' Style Set 2 in Latin lookup 27 subtable" a.a
Substitution2: "'sups' Superscript in Latin lookup 16 subtable" a.sups
Substitution2: "'smcp' Lowercase to Small Capitals in Latin lookup 11 subtable" A.sc
AlternateSubs2: "'aalt' Access All Alternates in Latin lookup 1 subtable" A.sc a.sups a.a
EndChar

StartChar: b
Encoding: 68 98 31
Width: 555
GlyphClass: 2
Flags: HW
AnchorPoint: "Anchor-2" 284 -22 basechar 0
AnchorPoint: "Anchor-0" 126 730 basechar 0
LayerCount: 2
Fore
SplineSet
82 712 m 1
 164 712 l 1
 164 518 l 1
 162 430 l 1
 184 449.333333333 208 465.5 234 478.5 c 128
 260 491.5 286.666666667 498 314 498 c 0
 345.333333333 498 373 492.166666667 397 480.5 c 128
 421 468.833333333 441.166666667 452.166666667 457.5 430.5 c 128
 473.833333333 408.833333333 486.166666667 382.833333333 494.5 352.5 c 128
 502.833333333 322.166666667 507 288.333333333 507 251 c 0
 507 209.666666667 501.333333333 172.666666667 490 140 c 128
 478.666666667 107.333333333 463.333333333 79.6666666667 444 57 c 128
 424.666666667 34.3333333333 402.333333333 17.1666666667 377 5.5 c 128
 351.666666667 -6.16666666667 325 -12 297 -12 c 0
 274.333333333 -12 250.833333333 -6.83333333333 226.5 3.5 c 128
 202.166666667 13.8333333333 179.333333333 28.6666666667 158 48 c 1
 155 48 l 1
 148 0 l 1
 82 0 l 1
 82 712 l 1
164 108 m 1
 185.333333333 89.3333333333 206.5 76.1666666667 227.5 68.5 c 128
 248.5 60.8333333333 267 57 283 57 c 0
 303 57 321.5 61.5 338.5 70.5 c 128
 355.5 79.5 370.166666667 92.1666666667 382.5 108.5 c 128
 394.833333333 124.833333333 404.5 145 411.5 169 c 128
 418.5 193 422 220 422 250 c 0
 422 276.666666667 419.666666667 301 415 323 c 128
 410.333333333 345 402.833333333 363.833333333 392.5 379.5 c 128
 382.166666667 395.166666667 368.833333333 407.333333333 352.5 416 c 128
 336.166666667 424.666666667 316.666666667 429 294 429 c 0
 254.666666667 429 211.333333333 407 164 363 c 1
 164 108 l 1
EndSplineSet
Validated: 1
Substitution2: "'sups' Superscript in Latin lookup 16 subtable" b.sups
Substitution2: "'smcp' Lowercase to Small Capitals in Latin lookup 11 subtable" B.sc
AlternateSubs2: "'aalt' Access All Alternates in Latin lookup 1 subtable" B.sc b.sups
EndChar

StartChar: c
Encoding: 69 99 32
Width: 456
GlyphClass: 2
Flags: HW
AnchorPoint: "Anchor-2" 270 -22 basechar 0
AnchorPoint: "Anchor-1" 270 0 basechar 0
AnchorPoint: "Anchor-0" 276 508 basechar 0
LayerCount: 2
Fore
SplineSet
46 242 m 0
 46 282.666666667 52.3333333333 318.833333333 65 350.5 c 128
 77.6666666667 382.166666667 94.6666666667 409 116 431 c 128
 137.333333333 453 162.166666667 469.666666667 190.5 481 c 128
 218.833333333 492.333333333 248.666666667 498 280 498 c 0
 312 498 339.5 492.166666667 362.5 480.5 c 128
 385.5 468.833333333 405.333333333 455.333333333 422 440 c 1
 381 387 l 1
 366.333333333 399.666666667 351.166666667 410 335.5 418 c 128
 319.833333333 426 302.333333333 430 283 430 c 0
 261 430 240.666666667 425.5 222 416.5 c 128
 203.333333333 407.5 187.333333333 394.666666667 174 378 c 128
 160.666666667 361.333333333 150.166666667 341.5 142.5 318.5 c 128
 134.833333333 295.5 131 270 131 242 c 256
 131 214 134.666666667 188.666666667 142 166 c 128
 149.333333333 143.333333333 159.5 123.833333333 172.5 107.5 c 128
 185.5 91.1666666667 201.333333333 78.5 220 69.5 c 128
 238.666666667 60.5 259 56 281 56 c 0
 304.333333333 56 325.5 60.8333333333 344.5 70.5 c 128
 363.5 80.1666666667 380.333333333 91.6666666667 395 105 c 1
 432 51 l 1
 410 31.6666666667 385.5 16.3333333333 358.5 5 c 128
 331.5 -6.33333333333 303.333333333 -12 274 -12 c 0
 242 -12 212 -6.33333333333 184 5 c 128
 156 16.3333333333 131.833333333 32.8333333333 111.5 54.5 c 128
 91.1666666667 76.1666666667 75.1666666667 102.833333333 63.5 134.5 c 128
 51.8333333333 166.166666667 46 202 46 242 c 0
EndSplineSet
Validated: 1
Substitution2: "'sups' Superscript in Latin lookup 16 subtable" c.sups
Substitution2: "'smcp' Lowercase to Small Capitals in Latin lookup 11 subtable" C.sc
AlternateSubs2: "'aalt' Access All Alternates in Latin lookup 1 subtable" C.sc c.sups
EndChar

StartChar: d
Encoding: 70 100 33
Width: 555
GlyphClass: 2
Flags: HW
AnchorPoint: "Anchor-2" 301 -22 basechar 0
AnchorPoint: "Anchor-0" 393 730 basechar 0
LayerCount: 2
Fore
SplineSet
47 242 m 0
 47 281.333333333 52.8333333333 316.833333333 64.5 348.5 c 128
 76.1666666667 380.166666667 91.6666666667 407 111 429 c 128
 130.333333333 451 152.666666667 468 178 480 c 128
 203.333333333 492 230 498 258 498 c 256
 286 498 310.333333333 493 331 483 c 128
 351.666666667 473 372.666666667 459.333333333 394 442 c 1
 390 525 l 1
 390 712 l 1
 473 712 l 1
 473 0 l 1
 405 0 l 1
 398 57 l 1
 395 57 l 1
 375.666666667 38.3333333333 353.5 22.1666666667 328.5 8.5 c 128
 303.5 -5.16666666667 276.666666667 -12 248 -12 c 0
 186.666666667 -12 137.833333333 10 101.5 54 c 128
 65.1666666667 98 47 160.666666667 47 242 c 0
132 243 m 0
 132 184.333333333 143.666666667 138.666666667 167 106 c 128
 190.333333333 73.3333333333 223.333333333 57 266 57 c 0
 288.666666667 57 310 62.5 330 73.5 c 128
 350 84.5 370 101.333333333 390 124 c 1
 390 378 l 1
 369.333333333 396.666666667 349.5 409.833333333 330.5 417.5 c 128
 311.5 425.166666667 292 429 272 429 c 0
 252.666666667 429 234.5 424.5 217.5 415.5 c 128
 200.5 406.5 185.666666667 393.833333333 173 377.5 c 128
 160.333333333 361.166666667 150.333333333 341.666666667 143 319 c 128
 135.666666667 296.333333333 132 271 132 243 c 0
EndSplineSet
Validated: 1
Substitution2: "'sups' Superscript in Latin lookup 16 subtable" d.sups
Substitution2: "'smcp' Lowercase to Small Capitals in Latin lookup 11 subtable" D.sc
AlternateSubs2: "'aalt' Access All Alternates in Latin lookup 1 subtable" D.sc d.sups
EndChar

StartChar: e
Encoding: 71 101 34
Width: 496
GlyphClass: 2
Flags: HW
AnchorPoint: "Anchor-4" 389 0 basechar 0
AnchorPoint: "Anchor-2" 262 -22 basechar 0
AnchorPoint: "Anchor-0" 264 508 basechar 0
LayerCount: 2
Fore
SplineSet
46 242 m 256
 46 282 52.1666666667 317.833333333 64.5 349.5 c 128
 76.8333333333 381.166666667 93.1666666667 408 113.5 430 c 128
 133.833333333 452 157 468.833333333 183 480.5 c 128
 209 492.166666667 236 498 264 498 c 0
 294.666666667 498 322.166666667 492.666666667 346.5 482 c 128
 370.833333333 471.333333333 391.166666667 456 407.5 436 c 128
 423.833333333 416 436.333333333 392 445 364 c 128
 453.666666667 336 458 304.666666667 458 270 c 0
 458 252 457 237 455 225 c 1
 127 225 l 1
 130.333333333 172.333333333 146.5 130.666666667 175.5 100 c 128
 204.5 69.3333333333 242.333333333 54 289 54 c 0
 312.333333333 54 333.833333333 57.5 353.5 64.5 c 128
 373.166666667 71.5 392 80.6666666667 410 92 c 1
 439 38 l 1
 417.666666667 24.6666666667 394 13 368 3 c 128
 342 -7 312.333333333 -12 279 -12 c 0
 246.333333333 -12 215.833333333 -6.16666666667 187.5 5.5 c 128
 159.166666667 17.1666666667 134.5 33.8333333333 113.5 55.5 c 128
 92.5 77.1666666667 76 103.666666667 64 135 c 128
 52 166.333333333 46 202 46 242 c 256
386 279 m 1
 386 329 375.5 367.166666667 354.5 393.5 c 128
 333.5 419.833333333 304 433 266 433 c 0
 248.666666667 433 232.166666667 429.5 216.5 422.5 c 128
 200.833333333 415.5 186.666666667 405.5 174 392.5 c 128
 161.333333333 379.5 150.833333333 363.5 142.5 344.5 c 128
 134.166666667 325.5 128.666666667 303.666666667 126 279 c 1
 386 279 l 1
EndSplineSet
Validated: 1
Substitution2: "'sups' Superscript in Latin lookup 16 subtable" e.sups
Substitution2: "'smcp' Lowercase to Small Capitals in Latin lookup 11 subtable" E.sc
AlternateSubs2: "'aalt' Access All Alternates in Latin lookup 1 subtable" E.sc e.sups
EndChar

StartChar: f
Encoding: 72 102 35
Width: 292
GlyphClass: 2
Flags: HW
AnchorPoint: "Anchor-2" 137 -22 basechar 0
AnchorPoint: "Anchor-0" 219 740 basechar 0
LayerCount: 2
Fore
SplineSet
301 645 m 1
 283 653 264.666666667 657 246 657 c 0
 200.666666667 657 178 625.666666667 178 563 c 2
 178 486 l 1
 281 486 l 1
 281 419 l 1
 178 419 l 1
 178 0 l 1
 96 0 l 1
 96 419 l 1
 30 419 l 1
 30 481 l 1
 96 486 l 1
 96 563 l 2
 96 613 107.5 652.333333333 130.5 681 c 128
 153.5 709.666666667 189.333333333 724 238 724 c 0
 253.333333333 724 267.833333333 722.5 281.5 719.5 c 128
 295.166666667 716.5 307.666666667 712.666666667 319 708 c 1
 301 645 l 1
EndSplineSet
Validated: 1
Substitution2: "'sups' Superscript in Latin lookup 16 subtable" f.sups
Substitution2: "'smcp' Lowercase to Small Capitals in Latin lookup 11 subtable" F.sc
AlternateSubs2: "'aalt' Access All Alternates in Latin lookup 1 subtable" F.sc f.sups
EndChar

StartChar: g
Encoding: 73 103 36
Width: 504
GlyphClass: 2
Flags: HW
AnchorPoint: "Anchor-2" 250 -230 basechar 0
AnchorPoint: "Anchor-0" 258 508 basechar 0
LayerCount: 2
Fore
SplineSet
117 -82 m 0
 117 -108 129.5 -128.666666667 154.5 -144 c 128
 179.5 -159.333333333 214 -167 258 -167 c 0
 281.333333333 -167 302.5 -164.166666667 321.5 -158.5 c 128
 340.5 -152.833333333 356.666666667 -145.5 370 -136.5 c 128
 383.333333333 -127.5 393.666666667 -117 401 -105 c 128
 408.333333333 -93 412 -80.6666666667 412 -68 c 0
 412 -45.3333333333 403.666666667 -29.6666666667 387 -21 c 128
 370.333333333 -12.3333333333 346 -8 314 -8 c 2
 230 -8 l 2
 220.666666667 -8 210.5 -7.5 199.5 -6.5 c 128
 188.5 -5.5 177.666666667 -3.33333333333 167 0 c 1
 149.666666667 -12.6666666667 137 -26 129 -40 c 128
 121 -54 117 -68 117 -82 c 0
45 -93 m 0
 45 -72.3333333333 51.3333333333 -52.6666666667 64 -34 c 128
 76.6666666667 -15.3333333333 94 1.66666666667 116 17 c 1
 116 21 l 1
 104 28.3333333333 93.8333333333 38.5 85.5 51.5 c 128
 77.1666666667 64.5 73 80.6666666667 73 100 c 0
 73 120.666666667 78.6666666667 138.666666667 90 154 c 128
 101.333333333 169.333333333 113.333333333 181.333333333 126 190 c 1
 126 194 l 1
 110 207.333333333 95.5 225.166666667 82.5 247.5 c 128
 69.5 269.833333333 63 295.666666667 63 325 c 0
 63 351.666666667 67.8333333333 375.666666667 77.5 397 c 128
 87.1666666667 418.333333333 100.333333333 436.5 117 451.5 c 128
 133.666666667 466.5 153.166666667 478 175.5 486 c 128
 197.833333333 494 221.333333333 498 246 498 c 0
 259.333333333 498 271.833333333 496.833333333 283.5 494.5 c 128
 295.166666667 492.166666667 305.666666667 489.333333333 315 486 c 1
 484 486 l 1
 484 423 l 1
 384 423 l 1
 395.333333333 411.666666667 404.833333333 397.333333333 412.5 380 c 128
 420.166666667 362.666666667 424 343.666666667 424 323 c 0
 424 297 419.333333333 273.5 410 252.5 c 128
 400.666666667 231.5 388 213.833333333 372 199.5 c 128
 356 185.166666667 337.166666667 174 315.5 166 c 128
 293.833333333 158 270.666666667 154 246 154 c 0
 234 154 221.666666667 155.5 209 158.5 c 128
 196.333333333 161.5 184.333333333 165.666666667 173 171 c 1
 164.333333333 163.666666667 157 155.5 151 146.5 c 128
 145 137.5 142 126.333333333 142 113 c 0
 142 97.6666666667 148 85 160 75 c 128
 172 65 194.666666667 60 228 60 c 2
 322 60 l 2
 378.666666667 60 421.166666667 50.8333333333 449.5 32.5 c 128
 477.833333333 14.1666666667 492 -15.3333333333 492 -56 c 0
 492 -78.6666666667 486.333333333 -100.166666667 475 -120.5 c 128
 463.666666667 -140.833333333 447.333333333 -158.666666667 426 -174 c 128
 404.666666667 -189.333333333 378.833333333 -201.5 348.5 -210.5 c 128
 318.166666667 -219.5 284 -224 246 -224 c 0
 216 -224 188.666666667 -221.166666667 164 -215.5 c 128
 139.333333333 -209.833333333 118.166666667 -201.333333333 100.5 -190 c 128
 82.8333333333 -178.666666667 69.1666666667 -165 59.5 -149 c 128
 49.8333333333 -133 45 -114.333333333 45 -93 c 0
246 209 m 256
 260 209 273.166666667 211.666666667 285.5 217 c 128
 297.833333333 222.333333333 308.833333333 230 318.5 240 c 128
 328.166666667 250 335.666666667 262.166666667 341 276.5 c 128
 346.333333333 290.833333333 349 307 349 325 c 0
 349 361 339 388.833333333 319 408.5 c 128
 299 428.166666667 274.666666667 438 246 438 c 256
 217.333333333 438 193 428.166666667 173 408.5 c 128
 153 388.833333333 143 361 143 325 c 0
 143 307 145.666666667 290.833333333 151 276.5 c 128
 156.333333333 262.166666667 163.833333333 250 173.5 240 c 128
 183.166666667 230 194.166666667 222.333333333 206.5 217 c 128
 218.833333333 211.666666667 232 209 246 209 c 256
EndSplineSet
Validated: 1
Substitution2: "'ss03' Style Set 3 in Latin lookup 28 subtable" g.a
Substitution2: "'sups' Superscript in Latin lookup 16 subtable" g.sups
Substitution2: "'smcp' Lowercase to Small Capitals in Latin lookup 11 subtable" G.sc
AlternateSubs2: "'aalt' Access All Alternates in Latin lookup 1 subtable" G.sc g.sups g.a
EndChar

StartChar: h
Encoding: 74 104 37
Width: 544
GlyphClass: 2
Flags: HW
AnchorPoint: "Anchor-2" 286 -22 basechar 0
AnchorPoint: "Anchor-0" 123 730 basechar 0
LayerCount: 2
Fore
SplineSet
82 712 m 1
 164 712 l 1
 164 518 l 1
 161 418 l 1
 184.333333333 440 208.666666667 458.833333333 234 474.5 c 128
 259.333333333 490.166666667 289 498 323 498 c 0
 374.333333333 498 411.833333333 482 435.5 450 c 128
 459.166666667 418 471 370.666666667 471 308 c 2
 471 0 l 1
 389 0 l 1
 389 297 l 2
 389 343 381.666666667 376.166666667 367 396.5 c 128
 352.333333333 416.833333333 329 427 297 427 c 0
 271.666666667 427 249.333333333 420.666666667 230 408 c 128
 210.666666667 395.333333333 188.666666667 376.666666667 164 352 c 1
 164 0 l 1
 82 0 l 1
 82 712 l 1
EndSplineSet
Validated: 1
Substitution2: "'sups' Superscript in Latin lookup 16 subtable" h.sups
Substitution2: "'smcp' Lowercase to Small Capitals in Latin lookup 11 subtable" H.sc
AlternateSubs2: "'aalt' Access All Alternates in Latin lookup 1 subtable" H.sc h.sups
EndChar

StartChar: i
Encoding: 75 105 38
Width: 246
GlyphClass: 2
Flags: HW
AnchorPoint: "Anchor-4" 152 0 basechar 0
AnchorPoint: "Anchor-2" 123 -22 basechar 0
AnchorPoint: "Anchor-0" 123 694 basechar 0
LayerCount: 2
Fore
SplineSet
124 586 m 256
 108 586 94.5 591 83.5 601 c 128
 72.5 611 67 623.666666667 67 639 c 0
 67 655 72.5 667.833333333 83.5 677.5 c 128
 94.5 687.166666667 108 692 124 692 c 256
 140 692 153.5 687.166666667 164.5 677.5 c 128
 175.5 667.833333333 181 655 181 639 c 0
 181 623.666666667 175.5 611 164.5 601 c 128
 153.5 591 140 586 124 586 c 256
82 486 m 1
 164 486 l 1
 164 0 l 1
 82 0 l 1
 82 486 l 1
EndSplineSet
Validated: 1
Substitution2: "'sups' Superscript in Latin lookup 16 subtable" i.sups
Substitution2: "'smcp' Lowercase to Small Capitals in Latin lookup 11 subtable" I.sc
Substitution2: "'locl' Localised Forms in Latin lookup 2 subtable" i.trk
AlternateSubs2: "'aalt' Access All Alternates in Latin lookup 1 subtable" i.trk I.sc i.sups
EndChar

StartChar: j
Encoding: 76 106 39
Width: 247
GlyphClass: 2
Flags: HW
AnchorPoint: "Anchor-2" 59 -231 basechar 0
AnchorPoint: "Anchor-0" 125 694 basechar 0
LayerCount: 2
Fore
SplineSet
83 486 m 1
 165 486 l 1
 165 -55 l 2
 165 -104.333333333 155 -143.666666667 135 -173 c 128
 115 -202.333333333 80.6666666667 -217 32 -217 c 0
 16.6666666667 -217 3 -215.666666667 -9 -213 c 128
 -21 -210.333333333 -31.3333333333 -207.333333333 -40 -204 c 1
 -23 -142 l 1
 -17 -144 -10 -145.833333333 -2 -147.5 c 128
 6 -149.166666667 14.3333333333 -150 23 -150 c 0
 47 -150 63 -141.666666667 71 -125 c 128
 79 -108.333333333 83 -85 83 -55 c 2
 83 486 l 1
125 586 m 0
 109 586 95.5 591 84.5 601 c 128
 73.5 611 68 623.666666667 68 639 c 0
 68 655 73.5 667.833333333 84.5 677.5 c 128
 95.5 687.166666667 109 692 125 692 c 0
 140.333333333 692 153.5 687.166666667 164.5 677.5 c 128
 175.5 667.833333333 181 655 181 639 c 0
 181 623.666666667 175.5 611 164.5 601 c 128
 153.5 591 140.333333333 586 125 586 c 0
EndSplineSet
Validated: 1
Substitution2: "'sups' Superscript in Latin lookup 16 subtable" j.sups
Substitution2: "'smcp' Lowercase to Small Capitals in Latin lookup 11 subtable" J.sc
AlternateSubs2: "'aalt' Access All Alternates in Latin lookup 1 subtable" J.sc j.sups
EndChar

StartChar: k
Encoding: 77 107 40
Width: 495
GlyphClass: 2
Flags: HW
AnchorPoint: "Anchor-2" 271 -22 basechar 0
AnchorPoint: "Anchor-0" 126 730 basechar 0
LayerCount: 2
Fore
SplineSet
82 712 m 1
 163 712 l 1
 163 230 l 1
 166 230 l 1
 373 486 l 1
 464 486 l 1
 301 291 l 1
 486 0 l 1
 396 0 l 1
 254 234 l 1
 163 128 l 1
 163 0 l 1
 82 0 l 1
 82 712 l 1
EndSplineSet
Validated: 1
Substitution2: "'sups' Superscript in Latin lookup 16 subtable" k.sups
Substitution2: "'smcp' Lowercase to Small Capitals in Latin lookup 11 subtable" K.sc
AlternateSubs2: "'aalt' Access All Alternates in Latin lookup 1 subtable" K.sc k.sups
EndChar

StartChar: l
Encoding: 78 108 41
Width: 255
GlyphClass: 2
Flags: HW
AnchorPoint: "Anchor-2" 122 -22 basechar 0
AnchorPoint: "Anchor-0" 122 730 basechar 0
LayerCount: 2
Fore
SplineSet
82 712 m 1
 164 712 l 1
 164 92 l 2
 164 78.6666666667 166.333333333 69.3333333333 171 64 c 128
 175.666666667 58.6666666667 181 56 187 56 c 0
 191 56 191 56 194.5 56 c 128
 196.833333333 56 200.333333333 56.6666666667 205 58 c 1
 216 -4 l 1
 210.666666667 -6.66666666667 204.333333333 -8.66666666667 197 -10 c 128
 189.666666667 -11.3333333333 180.333333333 -12 169 -12 c 0
 137.666666667 -12 115.333333333 -2.66666666667 102 16 c 128
 88.6666666667 34.6666666667 82 62 82 98 c 2
 82 712 l 1
EndSplineSet
Validated: 1
Substitution2: "'ss01' Style Set 1 in Latin lookup 26 subtable" l.a
Substitution2: "'sups' Superscript in Latin lookup 16 subtable" l.sups
Substitution2: "'smcp' Lowercase to Small Capitals in Latin lookup 11 subtable" L.sc
AlternateSubs2: "'aalt' Access All Alternates in Latin lookup 1 subtable" L.sc l.sups l.a
EndChar

StartChar: m
Encoding: 79 109 42
Width: 829
GlyphClass: 2
Flags: HW
AnchorPoint: "Anchor-2" 425 -22 basechar 0
AnchorPoint: "Anchor-0" 419 508 basechar 0
LayerCount: 2
Fore
SplineSet
82 486 m 1
 150 486 l 1
 157 416 l 1
 160 416 l 1
 181.333333333 439.333333333 204.5 458.833333333 229.5 474.5 c 128
 254.5 490.166666667 281.666666667 498 311 498 c 0
 348.333333333 498 377.5 489.833333333 398.5 473.5 c 128
 419.5 457.166666667 435 434.333333333 445 405 c 1
 470.333333333 433 495.833333333 455.5 521.5 472.5 c 128
 547.166666667 489.5 575 498 605 498 c 0
 655 498 692.166666667 482 716.5 450 c 128
 740.833333333 418 753 370.666666667 753 308 c 2
 753 0 l 1
 671 0 l 1
 671 297 l 2
 671 343 663.666666667 376.166666667 649 396.5 c 128
 634.333333333 416.833333333 611.666666667 427 581 427 c 0
 544.333333333 427 503.666666667 402 459 352 c 1
 459 0 l 1
 377 0 l 1
 377 297 l 2
 377 343 369.666666667 376.166666667 355 396.5 c 128
 340.333333333 416.833333333 317.333333333 427 286 427 c 0
 249.333333333 427 208.666666667 402 164 352 c 1
 164 0 l 1
 82 0 l 1
 82 486 l 1
EndSplineSet
Validated: 1
Substitution2: "'sups' Superscript in Latin lookup 16 subtable" m.sups
Substitution2: "'smcp' Lowercase to Small Capitals in Latin lookup 11 subtable" M.sc
AlternateSubs2: "'aalt' Access All Alternates in Latin lookup 1 subtable" M.sc m.sups
EndChar

StartChar: n
Encoding: 80 110 43
Width: 547
GlyphClass: 2
Flags: HW
AnchorPoint: "Anchor-2" 278 -22 basechar 0
AnchorPoint: "Anchor-0" 291 508 basechar 0
LayerCount: 2
Fore
SplineSet
82 486 m 1
 150 486 l 1
 157 416 l 1
 160 416 l 1
 183.333333333 439.333333333 207.833333333 458.833333333 233.5 474.5 c 128
 259.166666667 490.166666667 289 498 323 498 c 0
 374.333333333 498 411.833333333 482 435.5 450 c 128
 459.166666667 418 471 370.666666667 471 308 c 2
 471 0 l 1
 389 0 l 1
 389 297 l 2
 389 343 381.666666667 376.166666667 367 396.5 c 128
 352.333333333 416.833333333 329 427 297 427 c 0
 271.666666667 427 249.333333333 420.666666667 230 408 c 128
 210.666666667 395.333333333 188.666666667 376.666666667 164 352 c 1
 164 0 l 1
 82 0 l 1
 82 486 l 1
EndSplineSet
Validated: 1
Substitution2: "'sups' Superscript in Latin lookup 16 subtable" n.sups
Substitution2: "'smcp' Lowercase to Small Capitals in Latin lookup 11 subtable" N.sc
AlternateSubs2: "'aalt' Access All Alternates in Latin lookup 1 subtable" N.sc n.sups
EndChar

StartChar: o
Encoding: 81 111 44
Width: 542
GlyphClass: 2
Flags: HW
AnchorPoint: "Anchor-4" 320 0 basechar 0
AnchorPoint: "Anchor-3" 364 486 basechar 0
AnchorPoint: "Anchor-2" 271 -22 basechar 0
AnchorPoint: "Anchor-0" 271 508 basechar 0
LayerCount: 2
Fore
SplineSet
46 242 m 0
 46 282.666666667 52.1666666667 318.833333333 64.5 350.5 c 128
 76.8333333333 382.166666667 93.3333333333 409 114 431 c 128
 134.666666667 453 158.5 469.666666667 185.5 481 c 128
 212.5 492.333333333 241 498 271 498 c 256
 301 498 329.5 492.333333333 356.5 481 c 128
 383.5 469.666666667 407.333333333 453 428 431 c 128
 448.666666667 409 465.166666667 382.166666667 477.5 350.5 c 128
 489.833333333 318.833333333 496 282.666666667 496 242 c 0
 496 202 489.833333333 166.166666667 477.5 134.5 c 128
 465.166666667 102.833333333 448.666666667 76.1666666667 428 54.5 c 128
 407.333333333 32.8333333333 383.5 16.3333333333 356.5 5 c 128
 329.5 -6.33333333333 301 -12 271 -12 c 256
 241 -12 212.5 -6.33333333333 185.5 5 c 128
 158.5 16.3333333333 134.666666667 32.8333333333 114 54.5 c 128
 93.3333333333 76.1666666667 76.8333333333 102.833333333 64.5 134.5 c 128
 52.1666666667 166.166666667 46 202 46 242 c 0
131 242 m 256
 131 214 134.333333333 188.666666667 141 166 c 128
 147.666666667 143.333333333 157.166666667 123.833333333 169.5 107.5 c 128
 181.833333333 91.1666666667 196.666666667 78.5 214 69.5 c 128
 231.333333333 60.5 250.333333333 56 271 56 c 256
 291.666666667 56 310.666666667 60.5 328 69.5 c 128
 345.333333333 78.5 360.166666667 91.1666666667 372.5 107.5 c 128
 384.833333333 123.833333333 394.333333333 143.333333333 401 166 c 128
 407.666666667 188.666666667 411 214 411 242 c 256
 411 270 407.666666667 295.5 401 318.5 c 128
 394.333333333 341.5 384.833333333 361.333333333 372.5 378 c 128
 360.166666667 394.666666667 345.333333333 407.5 328 416.5 c 128
 310.666666667 425.5 291.666666667 430 271 430 c 256
 250.333333333 430 231.333333333 425.5 214 416.5 c 128
 196.666666667 407.5 181.833333333 394.666666667 169.5 378 c 128
 157.166666667 361.333333333 147.666666667 341.5 141 318.5 c 128
 134.333333333 295.5 131 270 131 242 c 256
EndSplineSet
Validated: 1
Substitution2: "'sups' Superscript in Latin lookup 16 subtable" o.sups
Substitution2: "'smcp' Lowercase to Small Capitals in Latin lookup 11 subtable" O.sc
AlternateSubs2: "'aalt' Access All Alternates in Latin lookup 1 subtable" O.sc o.sups
EndChar

StartChar: p
Encoding: 82 112 45
Width: 555
GlyphClass: 2
Flags: HW
AnchorPoint: "Anchor-2" 117 -218 basechar 0
AnchorPoint: "Anchor-0" 291 508 basechar 0
LayerCount: 2
Fore
SplineSet
164 -41 m 1
 164 -205 l 1
 82 -205 l 1
 82 486 l 1
 150 486 l 1
 157 430 l 1
 160 430 l 1
 182 448.666666667 206.166666667 464.666666667 232.5 478 c 128
 258.833333333 491.333333333 286.333333333 498 315 498 c 0
 346.333333333 498 374 492.166666667 398 480.5 c 128
 422 468.833333333 442 452.166666667 458 430.5 c 128
 474 408.833333333 486.166666667 382.833333333 494.5 352.5 c 128
 502.833333333 322.166666667 507 288 507 250 c 0
 507 208.666666667 501.333333333 171.833333333 490 139.5 c 128
 478.666666667 107.166666667 463.333333333 79.6666666667 444 57 c 128
 424.666666667 34.3333333333 402.333333333 17.1666666667 377 5.5 c 128
 351.666666667 -6.16666666667 325 -12 297 -12 c 0
 274.333333333 -12 251.833333333 -7 229.5 3 c 128
 207.166666667 13 184.666666667 26.6666666667 162 44 c 1
 164 -41 l 1
164 108 m 1
 186 89.3333333333 207.333333333 76.1666666667 228 68.5 c 128
 248.666666667 60.8333333333 267 57 283 57 c 0
 303 57 321.5 61.5 338.5 70.5 c 128
 355.5 79.5 370.166666667 92.1666666667 382.5 108.5 c 128
 394.833333333 124.833333333 404.5 145 411.5 169 c 128
 418.5 193 422 220 422 250 c 0
 422 276.666666667 419.666666667 301 415 323 c 128
 410.333333333 345 402.833333333 363.833333333 392.5 379.5 c 128
 382.166666667 395.166666667 368.833333333 407.333333333 352.5 416 c 128
 336.166666667 424.666666667 316.666666667 429 294 429 c 0
 273.333333333 429 252.5 423.333333333 231.5 412 c 128
 210.5 400.666666667 188 384.333333333 164 363 c 1
 164 108 l 1
EndSplineSet
Validated: 1
Substitution2: "'sups' Superscript in Latin lookup 16 subtable" p.sups
Substitution2: "'smcp' Lowercase to Small Capitals in Latin lookup 11 subtable" P.sc
AlternateSubs2: "'aalt' Access All Alternates in Latin lookup 1 subtable" P.sc p.sups
EndChar

StartChar: q
Encoding: 83 113 46
Width: 550
GlyphClass: 2
Flags: HW
AnchorPoint: "Anchor-2" 426 -218 basechar 0
AnchorPoint: "Anchor-0" 278 508 basechar 0
LayerCount: 2
Fore
SplineSet
47 242 m 0
 47 281.333333333 52.8333333333 316.833333333 64.5 348.5 c 128
 76.1666666667 380.166666667 91.6666666667 407 111 429 c 128
 130.333333333 451 152.666666667 468 178 480 c 128
 203.333333333 492 230 498 258 498 c 256
 286 498 310.666666667 493.166666667 332 483.5 c 128
 353.333333333 473.833333333 375 459.333333333 397 440 c 1
 399 440 l 1
 407 486 l 1
 473 486 l 1
 473 -205 l 1
 390 -205 l 1
 390 -32 l 1
 394 54 l 1
 374.666666667 36 352.5 20.5 327.5 7.5 c 128
 302.5 -5.5 276 -12 248 -12 c 0
 186.666666667 -12 137.833333333 10 101.5 54 c 128
 65.1666666667 98 47 160.666666667 47 242 c 0
132 243 m 0
 132 184.333333333 143.666666667 138.666666667 167 106 c 128
 190.333333333 73.3333333333 223.333333333 57 266 57 c 0
 288.666666667 57 310 62.5 330 73.5 c 128
 350 84.5 370 101.333333333 390 124 c 1
 390 378 l 1
 369.333333333 396.666666667 349.5 409.833333333 330.5 417.5 c 128
 311.5 425.166666667 292 429 272 429 c 0
 252.666666667 429 234.5 424.5 217.5 415.5 c 128
 200.5 406.5 185.666666667 393.833333333 173 377.5 c 128
 160.333333333 361.166666667 150.333333333 341.666666667 143 319 c 128
 135.666666667 296.333333333 132 271 132 243 c 0
EndSplineSet
Validated: 1
Substitution2: "'sups' Superscript in Latin lookup 16 subtable" q.sups
Substitution2: "'smcp' Lowercase to Small Capitals in Latin lookup 11 subtable" Q.sc
AlternateSubs2: "'aalt' Access All Alternates in Latin lookup 1 subtable" Q.sc q.sups
EndChar

StartChar: r
Encoding: 84 114 47
Width: 347
GlyphClass: 2
Flags: HW
AnchorPoint: "Anchor-2" 123 -22 basechar 0
AnchorPoint: "Anchor-0" 216 508 basechar 0
LayerCount: 2
Fore
SplineSet
82 486 m 1
 150 486 l 1
 157 398 l 1
 160 398 l 1
 176.666666667 428.666666667 196.833333333 453 220.5 471 c 128
 244.166666667 489 270 498 298 498 c 0
 317.333333333 498 334.666666667 494.666666667 350 488 c 1
 334 416 l 1
 326 418.666666667 318.666666667 420.666666667 312 422 c 128
 305.333333333 423.333333333 297 424 287 424 c 0
 266.333333333 424 244.833333333 415.666666667 222.5 399 c 128
 200.166666667 382.333333333 180.666666667 353.333333333 164 312 c 1
 164 0 l 1
 82 0 l 1
 82 486 l 1
EndSplineSet
Validated: 1
Substitution2: "'sups' Superscript in Latin lookup 16 subtable" r.sups
Substitution2: "'smcp' Lowercase to Small Capitals in Latin lookup 11 subtable" R.sc
AlternateSubs2: "'aalt' Access All Alternates in Latin lookup 1 subtable" R.sc r.sups
EndChar

StartChar: s
Encoding: 85 115 48
Width: 419
GlyphClass: 2
Flags: HW
AnchorPoint: "Anchor-2" 223 -22 basechar 0
AnchorPoint: "Anchor-1" 223 0 basechar 0
AnchorPoint: "Anchor-0" 219 508 basechar 0
LayerCount: 2
Fore
SplineSet
69 110 m 1
 90.3333333333 92.6666666667 112.166666667 78.6666666667 134.5 68 c 128
 156.833333333 57.3333333333 182.666666667 52 212 52 c 0
 244 52 268 59.3333333333 284 74 c 128
 300 88.6666666667 308 106.666666667 308 128 c 0
 308 140.666666667 304.666666667 151.666666667 298 161 c 128
 291.333333333 170.333333333 282.833333333 178.5 272.5 185.5 c 128
 262.166666667 192.5 250.333333333 198.666666667 237 204 c 128
 217 212 217 212 197 220 c 1
 179.666666667 226 162.333333333 232.833333333 145 240.5 c 128
 127.666666667 248.166666667 112.166666667 257.5 98.5 268.5 c 128
 84.8333333333 279.5 73.6666666667 292.333333333 65 307 c 128
 56.3333333333 321.666666667 52 339.333333333 52 360 c 0
 52 379.333333333 55.8333333333 397.5 63.5 414.5 c 128
 71.1666666667 431.5 82.1666666667 446.166666667 96.5 458.5 c 128
 110.833333333 470.833333333 128.333333333 480.5 149 487.5 c 128
 169.666666667 494.5 193 498 219 498 c 0
 249.666666667 498 277.833333333 492.666666667 303.5 482 c 128
 329.166666667 471.333333333 351.333333333 458.333333333 370 443 c 1
 331 391 l 1
 314.333333333 403.666666667 297 414 279 422 c 128
 261 430 241.333333333 434 220 434 c 0
 189.333333333 434 166.833333333 427 152.5 413 c 128
 138.166666667 399 131 382.666666667 131 364 c 0
 131 352.666666667 134 342.833333333 140 334.5 c 128
 146 326.166666667 154 318.833333333 164 312.5 c 128
 174 306.166666667 185.5 300.5 198.5 295.5 c 128
 211.5 290.5 225 285.333333333 239 280 c 0
 256.333333333 273.333333333 273.833333333 266.333333333 291.5 259 c 128
 309.166666667 251.666666667 325 242.5 339 231.5 c 128
 353 220.5 364.5 207 373.5 191 c 128
 382.5 175 387 155.666666667 387 133 c 0
 387 113 383.166666667 94.3333333333 375.5 77 c 128
 367.833333333 59.6666666667 356.5 44.3333333333 341.5 31 c 128
 326.5 17.6666666667 307.833333333 7.16666666667 285.5 -0.5 c 128
 263.166666667 -8.16666666667 237.666666667 -12 209 -12 c 0
 174.333333333 -12 141.333333333 -5.66666666667 110 7 c 128
 78.6666666667 19.6666666667 51.3333333333 35.6666666667 28 55 c 1
 69 110 l 1
EndSplineSet
Validated: 1
Substitution2: "'sups' Superscript in Latin lookup 16 subtable" s.sups
Substitution2: "'smcp' Lowercase to Small Capitals in Latin lookup 11 subtable" S.sc
AlternateSubs2: "'aalt' Access All Alternates in Latin lookup 1 subtable" S.sc s.sups
EndChar

StartChar: t
Encoding: 86 116 49
Width: 338
GlyphClass: 2
Flags: HW
AnchorPoint: "Anchor-2" 212 -22 basechar 0
AnchorPoint: "Anchor-1" 217 0 basechar 0
AnchorPoint: "Anchor-0" 143 643 basechar 0
LayerCount: 2
Fore
SplineSet
96 419 m 1
 24 419 l 1
 24 481 l 1
 100 486 l 1
 110 622 l 1
 179 622 l 1
 179 486 l 1
 310 486 l 1
 310 419 l 1
 179 419 l 1
 179 149 l 2
 179 119 184.5 95.8333333333 195.5 79.5 c 128
 206.5 63.1666666667 226 55 254 55 c 0
 262.666666667 55 272 56.3333333333 282 59 c 128
 292 61.6666666667 301 64.6666666667 309 68 c 1
 325 6 l 1
 311.666666667 1.33333333333 297.166666667 -2.83333333333 281.5 -6.5 c 128
 265.833333333 -10.1666666667 250.333333333 -12 235 -12 c 0
 209 -12 187.166666667 -8 169.5 0 c 128
 151.833333333 8 137.5 19 126.5 33 c 128
 115.5 47 107.666666667 64 103 84 c 128
 98.3333333333 104 96 126 96 150 c 2
 96 419 l 1
EndSplineSet
Validated: 1
Substitution2: "'sups' Superscript in Latin lookup 16 subtable" t.sups
Substitution2: "'smcp' Lowercase to Small Capitals in Latin lookup 11 subtable" T.sc
AlternateSubs2: "'aalt' Access All Alternates in Latin lookup 1 subtable" T.sc t.sups
EndChar

StartChar: u
Encoding: 87 117 50
Width: 544
GlyphClass: 2
Flags: HW
AnchorPoint: "Anchor-4" 428 0 basechar 0
AnchorPoint: "Anchor-3" 411 496 basechar 0
AnchorPoint: "Anchor-2" 290 -22 basechar 0
AnchorPoint: "Anchor-0" 272 508 basechar 0
LayerCount: 2
Fore
SplineSet
75 486 m 1
 158 486 l 1
 158 189 l 2
 158 143 165.166666667 109.833333333 179.5 89.5 c 128
 193.833333333 69.1666666667 217 59 249 59 c 0
 274.333333333 59 296.666666667 65.5 316 78.5 c 128
 335.333333333 91.5 356.666666667 112.333333333 380 141 c 1
 380 486 l 1
 462 486 l 1
 462 0 l 1
 394 0 l 1
 387 76 l 1
 384 76 l 1
 361.333333333 49.3333333333 337.5 28 312.5 12 c 128
 287.5 -4 258 -12 224 -12 c 0
 172 -12 134.166666667 4 110.5 36 c 128
 86.8333333333 68 75 115.333333333 75 178 c 2
 75 486 l 1
EndSplineSet
Validated: 1
Substitution2: "'sups' Superscript in Latin lookup 16 subtable" u.sups
Substitution2: "'smcp' Lowercase to Small Capitals in Latin lookup 11 subtable" U.sc
AlternateSubs2: "'aalt' Access All Alternates in Latin lookup 1 subtable" U.sc u.sups
EndChar

StartChar: v
Encoding: 88 118 51
Width: 467
GlyphClass: 2
Flags: HW
AnchorPoint: "Anchor-2" 235 -22 basechar 0
AnchorPoint: "Anchor-0" 235 508 basechar 0
LayerCount: 2
Fore
SplineSet
12 486 m 1
 97 486 l 1
 189 210 l 2
 196.333333333 186 203.833333333 162 211.5 138 c 128
 219.166666667 114 226.666666667 90.3333333333 234 67 c 1
 238 67 l 1
 245.333333333 90.3333333333 252.666666667 114 260 138 c 128
 271 174 271 174 282 210 c 2
 374 486 l 1
 455 486 l 1
 283 0 l 1
 187 0 l 1
 12 486 l 1
EndSplineSet
Validated: 1
Substitution2: "'sups' Superscript in Latin lookup 16 subtable" v.sups
Substitution2: "'smcp' Lowercase to Small Capitals in Latin lookup 11 subtable" V.sc
AlternateSubs2: "'aalt' Access All Alternates in Latin lookup 1 subtable" V.sc v.sups
EndChar

StartChar: w
Encoding: 89 119 52
Width: 718
GlyphClass: 2
Flags: HW
AnchorPoint: "Anchor-2" 360 -22 basechar 0
AnchorPoint: "Anchor-0" 360 508 basechar 0
LayerCount: 2
Fore
SplineSet
24 486 m 1
 108 486 l 1
 180 205 l 2
 185.333333333 181.666666667 190.333333333 159 195 137 c 128
 199.666666667 115 204.333333333 92.6666666667 209 70 c 1
 213 70 l 1
 218.333333333 92.6666666667 223.666666667 115.166666667 229 137.5 c 128
 234.333333333 159.833333333 240 182.333333333 246 205 c 2
 321 486 l 1
 401 486 l 1
 477 205 l 2
 483 181.666666667 488.833333333 159 494.5 137 c 128
 500.166666667 115 505.666666667 92.6666666667 511 70 c 1
 515 70 l 1
 520.333333333 92.6666666667 525.333333333 115 530 137 c 128
 534.666666667 159 539.666666667 181.666666667 545 205 c 2
 616 486 l 1
 694 486 l 1
 564 0 l 1
 464 0 l 1
 394 261 l 2
 388 284.333333333 382.5 307.333333333 377.5 330 c 128
 372.5 352.666666667 367 376.333333333 361 401 c 1
 357 401 l 1
 351.666666667 376.333333333 346.333333333 352.5 341 329.5 c 128
 335.666666667 306.5 329.666666667 283.333333333 323 260 c 2
 255 0 l 1
 159 0 l 1
 24 486 l 1
EndSplineSet
Validated: 1
Substitution2: "'sups' Superscript in Latin lookup 16 subtable" w.sups
Substitution2: "'smcp' Lowercase to Small Capitals in Latin lookup 11 subtable" W.sc
AlternateSubs2: "'aalt' Access All Alternates in Latin lookup 1 subtable" W.sc w.sups
EndChar

StartChar: x
Encoding: 90 120 53
Width: 446
GlyphClass: 2
Flags: HW
AnchorPoint: "Anchor-2" 223 -22 basechar 0
AnchorPoint: "Anchor-0" 223 508 basechar 0
LayerCount: 2
Fore
SplineSet
173 254 m 1
 26 486 l 1
 115 486 l 1
 180 379 l 2
 187.333333333 365.666666667 195 352.166666667 203 338.5 c 128
 211 324.833333333 219.333333333 311.333333333 228 298 c 1
 232 298 l 1
 239.333333333 311.333333333 246.666666667 324.833333333 254 338.5 c 128
 261.333333333 352.166666667 268.666666667 365.666666667 276 379 c 2
 335 486 l 1
 421 486 l 1
 274 245 l 1
 432 0 l 1
 343 0 l 1
 272 113 l 2
 259 135 259 135 246 157 c 128
 237.333333333 171.666666667 228.333333333 186 219 200 c 1
 215 200 l 1
 206.333333333 186 198 171.833333333 190 157.5 c 128
 182 143.166666667 174 128.333333333 166 113 c 1
 100 0 l 1
 14 0 l 1
 173 254 l 1
EndSplineSet
Validated: 1
Substitution2: "'sups' Superscript in Latin lookup 16 subtable" x.sups
Substitution2: "'smcp' Lowercase to Small Capitals in Latin lookup 11 subtable" X.sc
AlternateSubs2: "'aalt' Access All Alternates in Latin lookup 1 subtable" X.sc x.sups
EndChar

StartChar: y
Encoding: 91 121 54
Width: 467
GlyphClass: 2
Flags: HW
AnchorPoint: "Anchor-2" 200 -242 basechar 0
AnchorPoint: "Anchor-0" 243 508 basechar 0
LayerCount: 2
Fore
SplineSet
49 -134 m 1
 57 -136 57 -136 67 -138.5 c 128
 73.6666666667 -140.166666667 80 -141 86 -141 c 0
 114 -141 136.833333333 -131.166666667 154.5 -111.5 c 128
 172.166666667 -91.8333333333 186 -67 196 -37 c 1
 207 -1 l 1
 12 486 l 1
 97 486 l 1
 196 217 l 2
 203.333333333 195.666666667 211.166666667 173.166666667 219.5 149.5 c 128
 227.833333333 125.833333333 235.666666667 102.666666667 243 80 c 1
 247 80 l 1
 254.333333333 102 261.333333333 125 268 149 c 128
 274.666666667 173 281.333333333 195.666666667 288 217 c 2
 375 486 l 1
 455 486 l 1
 272 -40 l 2
 263.333333333 -64 253.666666667 -86.3333333333 243 -107 c 128
 232.333333333 -127.666666667 219.666666667 -145.5 205 -160.5 c 128
 190.333333333 -175.5 173.666666667 -187.333333333 155 -196 c 128
 136.333333333 -204.666666667 114.666666667 -209 90 -209 c 0
 78.6666666667 -209 68.3333333333 -208.166666667 59 -206.5 c 128
 49.6666666667 -204.833333333 41 -202.333333333 33 -199 c 1
 49 -134 l 1
 49 -134 l 1
EndSplineSet
Validated: 5
Substitution2: "'sups' Superscript in Latin lookup 16 subtable" y.sups
Substitution2: "'smcp' Lowercase to Small Capitals in Latin lookup 11 subtable" Y.sc
AlternateSubs2: "'aalt' Access All Alternates in Latin lookup 1 subtable" Y.sc y.sups
EndChar

StartChar: z
Encoding: 92 122 55
Width: 425
GlyphClass: 2
Flags: HW
AnchorPoint: "Anchor-2" 228 -22 basechar 0
AnchorPoint: "Anchor-0" 229 508 basechar 0
LayerCount: 2
Fore
SplineSet
31 44 m 1
 287 419 l 1
 59 419 l 1
 59 486 l 1
 391 486 l 1
 391 442 l 1
 135 67 l 1
 399 67 l 1
 399 0 l 1
 31 0 l 1
 31 44 l 1
EndSplineSet
Validated: 1
Substitution2: "'sups' Superscript in Latin lookup 16 subtable" z.sups
Substitution2: "'smcp' Lowercase to Small Capitals in Latin lookup 11 subtable" Z.sc
AlternateSubs2: "'aalt' Access All Alternates in Latin lookup 1 subtable" Z.sc z.sups
EndChar

StartChar: Aogonek
Encoding: 197 260 77
Width: 544
GlyphClass: 2
Flags: HW
AnchorPoint: "Anchor-0" 272 678 basechar 0
LayerCount: 2
Fore
SplineSet
369 267 m 1
 338 367 l 2
 326 403.666666667 314.666666667 440.166666667 304 476.5 c 128
 293.333333333 512.833333333 282.666666667 550 272 588 c 1
 268 588 l 1
 258 550 247.666666667 512.833333333 237 476.5 c 128
 226.333333333 440.166666667 215 403.666666667 203 367 c 2
 172 267 l 1
 369 267 l 1
572 -184 m 1
 562 -191.333333333 549.5 -197.833333333 534.5 -203.5 c 128
 519.5 -209.166666667 505.333333333 -212 492 -212 c 0
 465.333333333 -212 442.666666667 -204.666666667 424 -190 c 128
 405.333333333 -175.333333333 396 -153.666666667 396 -125 c 0
 396 -111.666666667 398.333333333 -98.6666666667 403 -86 c 128
 407.666666667 -73.3333333333 413.666666667 -61.6666666667 421 -51 c 128
 428.333333333 -40.3333333333 436.333333333 -30.6666666667 445 -22 c 128
 453.666666667 -13.3333333333 462.333333333 -6 471 0 c 1
 452 0 l 1
 390 200 l 1
 151 200 l 1
 88 0 l 1
 3 0 l 1
 225 656 l 1
 319 656 l 1
 541 0 l 1
 517.666666667 -9.33333333333 498.5 -24.3333333333 483.5 -45 c 128
 468.5 -65.6666666667 461 -86.3333333333 461 -107 c 0
 461 -122.333333333 465.666666667 -133.833333333 475 -141.5 c 128
 484.333333333 -149.166666667 495 -153 507 -153 c 0
 522.333333333 -153 536.333333333 -148.333333333 549 -139 c 1
 572 -184 l 1
EndSplineSet
Validated: 1
Substitution2: "'c2sc' Capitals to Small Capitals in Latin lookup 9 subtable" Aogonek.sc
Ligature2: "'ccmp' Glyph Composition/Decomposition in Latin lookup 7 subtable" A uni0328
Substitution2: "'aalt' Access All Alternates in Latin lookup 0 subtable" Aogonek.sc
EndChar

StartChar: AE
Encoding: 135 198 78
Width: 822
GlyphClass: 2
Flags: HW
AnchorPoint: "Anchor-0" 564 694 basechar 0
LayerCount: 2
Fore
SplineSet
401 258 m 1
 401 590 l 1
 397 590 l 1
 361.666666667 518.666666667 326 447.333333333 290 376 c 1
 229 258 l 1
 401 258 l 1
773 71 m 1
 773 0 l 1
 401 0 l 1
 401 191 l 1
 195 191 l 1
 96 0 l 1
 8 0 l 1
 352 656 l 1
 763 656 l 1
 763 586 l 1
 485 586 l 1
 485 380 l 1
 717 380 l 1
 717 309 l 1
 485 309 l 1
 485 71 l 1
 773 71 l 1
EndSplineSet
Validated: 1
Substitution2: "'c2sc' Capitals to Small Capitals in Latin lookup 9 subtable" AE.sc
Substitution2: "'aalt' Access All Alternates in Latin lookup 0 subtable" AE.sc
EndChar

StartChar: Eogonek
Encoding: 217 280 104
Width: 527
GlyphClass: 2
Flags: HW
AnchorPoint: "Anchor-0" 285 678 basechar 0
LayerCount: 2
Fore
SplineSet
90 656 m 1
 468 656 l 1
 468 586 l 1
 173 586 l 1
 173 380 l 1
 422 380 l 1
 422 309 l 1
 173 309 l 1
 173 71 l 1
 478 71 l 1
 478 0 l 1
 475 0 l 1
 463.666666667 -1.33333333333 452.5 -5.16666666667 441.5 -11.5 c 128
 430.5 -17.8333333333 420.666666667 -25.8333333333 412 -35.5 c 128
 403.333333333 -45.1666666667 396.333333333 -56.1666666667 391 -68.5 c 128
 385.666666667 -80.8333333333 383 -93.6666666667 383 -107 c 0
 383 -122.333333333 388 -133.833333333 398 -141.5 c 128
 408 -149.166666667 419 -153 431 -153 c 0
 445 -153 458.333333333 -148.333333333 471 -139 c 1
 494 -184 l 1
 484.666666667 -191.333333333 472.333333333 -197.833333333 457 -203.5 c 128
 441.666666667 -209.166666667 427.333333333 -212 414 -212 c 0
 387.333333333 -212 364.666666667 -204.666666667 346 -190 c 128
 327.333333333 -175.333333333 318 -153.666666667 318 -125 c 0
 318 -97 325.833333333 -72.1666666667 341.5 -50.5 c 128
 357.166666667 -28.8333333333 374.333333333 -12 393 0 c 1
 90 0 l 1
 90 656 l 1
EndSplineSet
Validated: 1
Substitution2: "'c2sc' Capitals to Small Capitals in Latin lookup 9 subtable" Eogonek.sc
Ligature2: "'ccmp' Glyph Composition/Decomposition in Latin lookup 7 subtable" E uni0328
Substitution2: "'aalt' Access All Alternates in Latin lookup 0 subtable" Eogonek.sc
EndChar

StartChar: Hbar
Encoding: 231 294 115
Width: 687
Flags: HW
LayerCount: 2
Fore
SplineSet
498 492 m 1
 193 492 l 1
 193 381 l 1
 498 381 l 1
 498 492 l 1
654 492 m 1
 582 492 l 1
 582 0 l 1
 498 0 l 1
 498 309 l 1
 193 309 l 1
 193 0 l 1
 110 0 l 1
 110 492 l 1
 32 492 l 1
 32 534 l 1
 110 539 l 1
 110 656 l 1
 193 656 l 1
 193 539 l 1
 498 539 l 1
 498 656 l 1
 582 656 l 1
 582 539 l 1
 654 539 l 1
 654 492 l 1
EndSplineSet
Validated: 1
Substitution2: "'c2sc' Capitals to Small Capitals in Latin lookup 9 subtable" Hbar.sc
Substitution2: "'aalt' Access All Alternates in Latin lookup 0 subtable" Hbar.sc
EndChar

StartChar: Iogonek
Encoding: 239 302 126
Width: 263
GlyphClass: 2
Flags: HW
AnchorPoint: "Anchor-0" 131 678 basechar 0
LayerCount: 2
Fore
SplineSet
90 656 m 1
 173 656 l 1
 173 0 l 1
 152.333333333 -16 136.333333333 -32.6666666667 125 -50 c 128
 113.666666667 -67.3333333333 108 -86.3333333333 108 -107 c 0
 108 -122.333333333 113 -133.833333333 123 -141.5 c 128
 133 -149.166666667 143.666666667 -153 155 -153 c 0
 169.666666667 -153 183.333333333 -148.333333333 196 -139 c 1
 219 -184 l 1
 209 -191.333333333 196.5 -197.833333333 181.5 -203.5 c 128
 166.5 -209.166666667 152.333333333 -212 139 -212 c 0
 112.333333333 -212 89.6666666667 -204.666666667 71 -190 c 128
 52.3333333333 -175.333333333 43 -153.666666667 43 -125 c 256
 43 -96.3333333333 50.1666666667 -72 64.5 -52 c 128
 78.8333333333 -32 94 -14.6666666667 110 0 c 1
 90 0 l 1
 90 656 l 1
EndSplineSet
Validated: 1
Substitution2: "'ss04' Style Set 4 in Latin lookup 29 subtable" Iogonek.a
Substitution2: "'c2sc' Capitals to Small Capitals in Latin lookup 9 subtable" Iogonek.sc
Ligature2: "'ccmp' Glyph Composition/Decomposition in Latin lookup 7 subtable" I uni0328
AlternateSubs2: "'aalt' Access All Alternates in Latin lookup 1 subtable" Iogonek.sc Iogonek.a
EndChar

StartChar: Lslash
Encoding: 256 321 136
Width: 489
Flags: HW
LayerCount: 2
Fore
SplineSet
465 71 m 1
 465 0 l 1
 95 0 l 1
 95 240 l 1
 13 194 l 1
 13 261 l 1
 95 308 l 1
 95 656 l 1
 179 656 l 1
 179 345 l 1
 364 445 l 1
 364 377 l 1
 179 278 l 1
 179 71 l 1
 465 71 l 1
EndSplineSet
Validated: 1
Substitution2: "'c2sc' Capitals to Small Capitals in Latin lookup 9 subtable" Lslash.sc
Substitution2: "'aalt' Access All Alternates in Latin lookup 0 subtable" Lslash.sc
EndChar

StartChar: Oslash
Encoding: 153 216 160
Width: 664
GlyphClass: 2
Flags: HW
AnchorPoint: "Anchor-0" 335 678 basechar 0
LayerCount: 2
Fore
SplineSet
208 116 m 1
 224.666666667 98.6666666667 243.666666667 85.1666666667 265 75.5 c 128
 286.333333333 65.8333333333 309.666666667 61 335 61 c 0
 364.333333333 61 390.833333333 67.3333333333 414.5 80 c 128
 438.166666667 92.6666666667 458.5 110.833333333 475.5 134.5 c 128
 492.5 158.166666667 505.666666667 186.5 515 219.5 c 128
 524.333333333 252.5 529 289.666666667 529 331 c 0
 529 363 526.166666667 392.333333333 520.5 419 c 128
 514.833333333 445.666666667 506.666666667 469.666666667 496 491 c 1
 208 116 l 1
462 541 m 1
 428 577 385.666666667 595 335 595 c 0
 305.666666667 595 279 588.833333333 255 576.5 c 128
 231 564.166666667 210.5 546.666666667 193.5 524 c 128
 176.5 501.333333333 163.333333333 473.666666667 154 441 c 128
 144.666666667 408.333333333 140 371.666666667 140 331 c 0
 140 267 151.333333333 212.333333333 174 167 c 1
 462 541 l 1
550 561 m 1
 570.666666667 532.333333333 586.666666667 498.833333333 598 460.5 c 128
 609.333333333 422.166666667 615 379 615 331 c 0
 615 278.333333333 608.166666667 230.833333333 594.5 188.5 c 128
 580.833333333 146.166666667 561.5 110.166666667 536.5 80.5 c 128
 511.5 50.8333333333 481.833333333 28 447.5 12 c 128
 413.166666667 -4 375.666666667 -12 335 -12 c 0
 300.333333333 -12 268.166666667 -6.5 238.5 4.5 c 128
 208.833333333 15.5 182.333333333 31.6666666667 159 53 c 1
 96 -30 l 1
 50 6 l 1
 120 97 l 1
 98.6666666667 126.333333333 82.3333333333 160.666666667 71 200 c 128
 59.6666666667 239.333333333 54 283 54 331 c 0
 54 383.666666667 60.8333333333 430.833333333 74.5 472.5 c 128
 88.1666666667 514.166666667 107.5 549.5 132.5 578.5 c 128
 157.5 607.5 187.166666667 629.666666667 221.5 645 c 128
 255.833333333 660.333333333 293.666666667 668 335 668 c 0
 404.333333333 668 462.666666667 647 510 605 c 1
 573 686 l 1
 619 651 l 1
 550 561 l 1
EndSplineSet
Validated: 1
Substitution2: "'c2sc' Capitals to Small Capitals in Latin lookup 9 subtable" Oslash.sc
Substitution2: "'aalt' Access All Alternates in Latin lookup 0 subtable" Oslash.sc
EndChar

StartChar: OE
Encoding: 271 338 161
Width: 847
GlyphClass: 2
Flags: HW
AnchorPoint: "Anchor-0" 532 678 basechar 0
LayerCount: 2
Fore
SplineSet
52 331 m 0
 52 435.666666667 80 516 136 572 c 128
 192 628 271 656 373 656 c 2
 788 656 l 1
 788 586 l 1
 510 586 l 1
 510 380 l 1
 742 380 l 1
 742 309 l 1
 510 309 l 1
 510 71 l 1
 798 71 l 1
 798 0 l 1
 369 0 l 2
 319 0 274.5 7.5 235.5 22.5 c 128
 196.5 37.5 163.333333333 59.1666666667 136 87.5 c 128
 108.666666667 115.833333333 87.8333333333 150.5 73.5 191.5 c 128
 59.1666666667 232.5 52 279 52 331 c 0
138 331 m 0
 138 247 158.333333333 182.166666667 199 136.5 c 128
 239.666666667 90.8333333333 299.666666667 68 379 68 c 2
 427 68 l 1
 427 588 l 1
 379 588 l 2
 299.666666667 588 239.666666667 566 199 522 c 128
 158.333333333 478 138 414.333333333 138 331 c 0
EndSplineSet
Validated: 1
Substitution2: "'c2sc' Capitals to Small Capitals in Latin lookup 9 subtable" OE.sc
Substitution2: "'aalt' Access All Alternates in Latin lookup 0 subtable" OE.sc
EndChar

StartChar: Ohorn
Encoding: 317 416 162
Width: 664
GlyphClass: 2
Flags: HW
AnchorPoint: "Anchor-2" 331 -22 basechar 0
AnchorPoint: "Anchor-0" 335 678 basechar 0
LayerCount: 2
Fore
SplineSet
335 61 m 256
 364.333333333 61 390.833333333 67.3333333333 414.5 80 c 128
 438.166666667 92.6666666667 458.5 110.833333333 475.5 134.5 c 128
 492.5 158.166666667 505.666666667 186.5 515 219.5 c 128
 524.333333333 252.5 529 289.666666667 529 331 c 0
 529 371.666666667 524.333333333 408.333333333 515 441 c 128
 505.666666667 473.666666667 492.5 501.333333333 475.5 524 c 128
 458.5 546.666666667 438.166666667 564.166666667 414.5 576.5 c 128
 390.833333333 588.833333333 364.333333333 595 335 595 c 256
 305.666666667 595 279 588.833333333 255 576.5 c 128
 231 564.166666667 210.5 546.666666667 193.5 524 c 128
 176.5 501.333333333 163.333333333 473.666666667 154 441 c 128
 144.666666667 408.333333333 140 371.666666667 140 331 c 0
 140 289.666666667 144.666666667 252.5 154 219.5 c 128
 163.333333333 186.5 176.5 158.166666667 193.5 134.5 c 128
 210.5 110.833333333 231 92.6666666667 255 80 c 128
 279 67.3333333333 305.666666667 61 335 61 c 256
591 773 m 1
 597.666666667 763.666666667 603.166666667 753.666666667 607.5 743 c 128
 611.833333333 732.333333333 614 720.666666667 614 708 c 0
 614 679.333333333 604.833333333 656.5 586.5 639.5 c 128
 568.166666667 622.5 543.333333333 610.333333333 512 603 c 1
 544 573.666666667 569.166666667 536.166666667 587.5 490.5 c 128
 605.833333333 444.833333333 615 391.666666667 615 331 c 0
 615 278.333333333 608.166666667 230.833333333 594.5 188.5 c 128
 580.833333333 146.166666667 561.5 110.166666667 536.5 80.5 c 128
 511.5 50.8333333333 481.833333333 28 447.5 12 c 128
 413.166666667 -4 375.666666667 -12 335 -12 c 0
 293.666666667 -12 255.833333333 -4 221.5 12 c 128
 187.166666667 28 157.5 50.8333333333 132.5 80.5 c 128
 107.5 110.166666667 88.1666666667 146.166666667 74.5 188.5 c 128
 60.8333333333 230.833333333 54 278.333333333 54 331 c 256
 54 383.666666667 60.8333333333 430.833333333 74.5 472.5 c 128
 88.1666666667 514.166666667 107.5 549.5 132.5 578.5 c 128
 157.5 607.5 187.166666667 629.666666667 221.5 645 c 128
 255.833333333 660.333333333 293.666666667 668 335 668 c 0
 383 668 426.333333333 657.333333333 465 636 c 1
 493 641.333333333 513.5 649.166666667 526.5 659.5 c 128
 539.5 669.833333333 546 684.333333333 546 703 c 0
 546 710.333333333 544.666666667 717.333333333 542 724 c 128
 539.333333333 730.666666667 536 737.333333333 532 744 c 1
 591 773 l 1
EndSplineSet
Validated: 1
Substitution2: "'c2sc' Capitals to Small Capitals in Latin lookup 9 subtable" Ohorn.sc
Substitution2: "'aalt' Access All Alternates in Latin lookup 0 subtable" Ohorn.sc
EndChar

StartChar: uni01EA
Encoding: 339 490 168
Width: 664
GlyphClass: 2
Flags: HW
AnchorPoint: "Anchor-0" 331 678 basechar 0
LayerCount: 2
Fore
SplineSet
266 -125 m 0
 266 -103 271.833333333 -82.1666666667 283.5 -62.5 c 128
 295.166666667 -42.8333333333 309.666666667 -25.6666666667 327 -11 c 1
 285 -10.3333333333 247 -1.66666666667 213 15 c 128
 179 31.6666666667 150 54.8333333333 126 84.5 c 128
 102 114.166666667 83.6666666667 149.833333333 71 191.5 c 128
 58.3333333333 233.166666667 52 279.666666667 52 331 c 0
 52 383.666666667 58.8333333333 430.833333333 72.5 472.5 c 128
 86.1666666667 514.166666667 105.333333333 549.5 130 578.5 c 128
 154.666666667 607.5 184.166666667 629.666666667 218.5 645 c 128
 252.833333333 660.333333333 290.666666667 668 332 668 c 256
 373.333333333 668 411.166666667 660.166666667 445.5 644.5 c 128
 479.833333333 628.833333333 509.5 606.5 534.5 577.5 c 128
 559.5 548.5 578.833333333 513.166666667 592.5 471.5 c 128
 606.166666667 429.833333333 613 383 613 331 c 0
 613 286.333333333 608.5 246.333333333 599.5 211 c 128
 590.5 175.666666667 577.166666667 144.333333333 559.5 117 c 128
 541.833333333 89.6666666667 520.333333333 65.8333333333 495 45.5 c 128
 469.666666667 25.1666666667 440.666666667 7.66666666667 408 -7 c 0
 380.666666667 -19 360.833333333 -34.3333333333 348.5 -53 c 128
 336.166666667 -71.6666666667 330 -89.6666666667 330 -107 c 0
 330 -122.333333333 335 -133.833333333 345 -141.5 c 128
 355 -149.166666667 366 -153 378 -153 c 0
 386 -153 393.166666667 -151.833333333 399.5 -149.5 c 128
 405.833333333 -147.166666667 412 -143.666666667 418 -139 c 1
 441 -184 l 1
 431.666666667 -191.333333333 419.333333333 -197.833333333 404 -203.5 c 128
 388.666666667 -209.166666667 374.333333333 -212 361 -212 c 0
 334.333333333 -212 311.833333333 -204.666666667 293.5 -190 c 128
 275.166666667 -175.333333333 266 -153.666666667 266 -125 c 0
332 61 m 256
 361.333333333 61 387.833333333 67.3333333333 411.5 80 c 128
 435.166666667 92.6666666667 455.5 110.833333333 472.5 134.5 c 128
 489.5 158.166666667 502.666666667 186.5 512 219.5 c 128
 521.333333333 252.5 526 289.666666667 526 331 c 0
 526 371.666666667 521.333333333 408.333333333 512 441 c 128
 502.666666667 473.666666667 489.5 501.333333333 472.5 524 c 128
 455.5 546.666666667 435.166666667 564.166666667 411.5 576.5 c 128
 387.833333333 588.833333333 361.333333333 595 332 595 c 256
 302.666666667 595 276.166666667 588.833333333 252.5 576.5 c 128
 228.833333333 564.166666667 208.5 546.666666667 191.5 524 c 128
 174.5 501.333333333 161.333333333 473.666666667 152 441 c 128
 142.666666667 408.333333333 138 371.666666667 138 331 c 0
 138 289.666666667 142.666666667 252.5 152 219.5 c 128
 161.333333333 186.5 174.5 158.166666667 191.5 134.5 c 128
 208.5 110.833333333 228.833333333 92.6666666667 252.5 80 c 128
 276.166666667 67.3333333333 302.666666667 61 332 61 c 256
EndSplineSet
Validated: 1
Substitution2: "'c2sc' Capitals to Small Capitals in Latin lookup 9 subtable" uni01EA.sc
Ligature2: "'ccmp' Glyph Composition/Decomposition in Latin lookup 7 subtable" O uni0328
Substitution2: "'aalt' Access All Alternates in Latin lookup 0 subtable" uni01EA.sc
EndChar

StartChar: uni1E9E
Encoding: 474 7838 182
Width: 667
Flags: HW
LayerCount: 2
Fore
SplineSet
91 417 m 2
 91 495.666666667 113.333333333 557.166666667 158 601.5 c 128
 202.666666667 645.833333333 265.666666667 668 347 668 c 0
 403 668 448.666666667 654 484 626 c 128
 519.333333333 598 546 560.666666667 564 514 c 1
 426 362 l 1
 496 348 546.5 324.666666667 577.5 292 c 128
 608.5 259.333333333 624 219 624 171 c 0
 624 145 619.5 120.833333333 610.5 98.5 c 128
 601.5 76.1666666667 588.666666667 56.8333333333 572 40.5 c 128
 555.333333333 24.1666666667 535.333333333 11.3333333333 512 2 c 128
 488.666666667 -7.33333333333 462.666666667 -12 434 -12 c 0
 395.333333333 -12 360.666666667 -5 330 9 c 128
 299.333333333 23 273.666666667 41.3333333333 253 64 c 1
 301 118 l 1
 320.333333333 96.6666666667 340 81.3333333333 360 72 c 128
 380 62.6666666667 402.333333333 58 427 58 c 0
 462.333333333 58 489.666666667 68.5 509 89.5 c 128
 528.333333333 110.5 538 137.666666667 538 171 c 0
 538 186.333333333 535.166666667 201 529.5 215 c 128
 523.833333333 229 513.666666667 242 499 254 c 128
 484.333333333 266 464.5 276.666666667 439.5 286 c 128
 414.5 295.333333333 383 303.333333333 345 310 c 1
 340 364 l 1
 477 517 l 1
 465.666666667 539.666666667 449.166666667 559 427.5 575 c 128
 405.833333333 591 378 599 344 599 c 0
 290.666666667 599 249.166666667 583.166666667 219.5 551.5 c 128
 189.833333333 519.833333333 175 470 175 402 c 2
 175 0 l 1
 91 0 l 1
 91 417 l 2
EndSplineSet
Validated: 1
Substitution2: "'c2sc' Capitals to Small Capitals in Latin lookup 9 subtable" uni1E9E.sc
Substitution2: "'aalt' Access All Alternates in Latin lookup 0 subtable" uni1E9E.sc
EndChar

StartChar: Uogonek
Encoding: 301 370 204
Width: 645
GlyphClass: 2
Flags: HW
AnchorPoint: "Anchor-0" 322 678 basechar 0
LayerCount: 2
Fore
SplineSet
87 656 m 1
 170 656 l 1
 170 269 l 2
 170 229.666666667 174 196.666666667 182 170 c 128
 190 143.333333333 200.833333333 122 214.5 106 c 128
 228.166666667 90 244.333333333 78.5 263 71.5 c 128
 281.666666667 64.5 301.666666667 61 323 61 c 0
 345 61 365.333333333 64.5 384 71.5 c 128
 402.666666667 78.5 419 90 433 106 c 128
 447 122 458 143.333333333 466 170 c 128
 474 196.666666667 478 229.666666667 478 269 c 2
 478 656 l 1
 558 656 l 1
 558 271 l 2
 558 227 554.166666667 189.833333333 546.5 159.5 c 128
 538.833333333 129.166666667 528 103.5 514 82.5 c 128
 500 61.5 483.166666667 44.1666666667 463.5 30.5 c 128
 443.833333333 16.8333333333 422 4.33333333333 398 -7 c 0
 372 -19.6666666667 352.333333333 -35.3333333333 339 -54 c 128
 325.666666667 -72.6666666667 319 -90.3333333333 319 -107 c 0
 319 -122.333333333 324 -133.833333333 334 -141.5 c 128
 344 -149.166666667 355 -153 367 -153 c 0
 381 -153 394.333333333 -148.333333333 407 -139 c 1
 430 -184 l 1
 420.666666667 -191.333333333 408.333333333 -197.833333333 393 -203.5 c 128
 377.666666667 -209.166666667 363.333333333 -212 350 -212 c 0
 323.333333333 -212 300.666666667 -204.666666667 282 -190 c 128
 263.333333333 -175.333333333 254 -153.666666667 254 -125 c 0
 254 -111 256.166666667 -98.5 260.5 -87.5 c 128
 264.833333333 -76.5 270.166666667 -66.3333333333 276.5 -57 c 128
 282.833333333 -47.6666666667 289.833333333 -39.1666666667 297.5 -31.5 c 128
 309 -20 309 -20 318 -11 c 1
 284 -10.3333333333 252.833333333 -4.66666666667 224.5 6 c 128
 196.166666667 16.6666666667 171.833333333 33.1666666667 151.5 55.5 c 128
 131.166666667 77.8333333333 115.333333333 106.666666667 104 142 c 128
 92.6666666667 177.333333333 87 220.333333333 87 271 c 2
 87 656 l 1
EndSplineSet
Validated: 1
Substitution2: "'c2sc' Capitals to Small Capitals in Latin lookup 9 subtable" Uogonek.sc
Ligature2: "'ccmp' Glyph Composition/Decomposition in Latin lookup 7 subtable" U uni0328
Substitution2: "'aalt' Access All Alternates in Latin lookup 0 subtable" Uogonek.sc
EndChar

StartChar: Uhorn
Encoding: 319 431 205
Width: 659
GlyphClass: 2
Flags: HW
AnchorPoint: "Anchor-2" 322 -22 basechar 0
AnchorPoint: "Anchor-0" 323 678 basechar 0
LayerCount: 2
Fore
SplineSet
645 793 m 1
 652.333333333 783.666666667 658 773.666666667 662 763 c 128
 666 752.333333333 668 740.666666667 668 728 c 0
 668 711.333333333 665 697 659 685 c 128
 653 673 645 662.666666667 635 654 c 128
 625 645.333333333 613.333333333 638.333333333 600 633 c 128
 586.666666667 627.666666667 572.666666667 623.333333333 558 620 c 1
 558 271 l 2
 558 218.333333333 552 174 540 138 c 128
 528 102 511.5 72.8333333333 490.5 50.5 c 128
 469.5 28.1666666667 444.666666667 12.1666666667 416 2.5 c 128
 387.333333333 -7.16666666667 356.333333333 -12 323 -12 c 256
 289.666666667 -12 258.5 -7.16666666667 229.5 2.5 c 128
 200.5 12.1666666667 175.5 28.1666666667 154.5 50.5 c 128
 133.5 72.8333333333 117 102 105 138 c 128
 93 174 87 218.333333333 87 271 c 2
 87 656 l 1
 170 656 l 1
 170 269 l 2
 170 229.666666667 174 196.666666667 182 170 c 128
 190 143.333333333 200.833333333 122 214.5 106 c 128
 228.166666667 90 244.333333333 78.5 263 71.5 c 128
 281.666666667 64.5 301.666666667 61 323 61 c 0
 345 61 365.333333333 64.5 384 71.5 c 128
 402.666666667 78.5 419 90 433 106 c 128
 447 122 458 143.333333333 466 170 c 128
 474 196.666666667 478 229.666666667 478 269 c 2
 478 656 l 1
 511 656 l 1
 539 658.666666667 561 664.666666667 577 674 c 128
 593 683.333333333 601 699.666666667 601 723 c 0
 601 730.333333333 599.666666667 737.333333333 597 744 c 128
 594.333333333 750.666666667 590.666666667 757.333333333 586 764 c 1
 645 793 l 1
EndSplineSet
Validated: 1
Substitution2: "'c2sc' Capitals to Small Capitals in Latin lookup 9 subtable" Uhorn.sc
Substitution2: "'aalt' Access All Alternates in Latin lookup 0 subtable" Uhorn.sc
EndChar

StartChar: Eth
Encoding: 145 208 227
Width: 638
Flags: HW
LayerCount: 2
Fore
SplineSet
270 68 m 2
 346.666666667 68 404.166666667 91 442.5 137 c 128
 480.833333333 183 500 247.666666667 500 331 c 256
 500 414.333333333 480.833333333 478 442.5 522 c 128
 404.166666667 566 346.666666667 588 270 588 c 2
 195 588 l 1
 195 368 l 1
 344 368 l 1
 344 321 l 1
 195 321 l 1
 195 68 l 1
 270 68 l 2
276 656 m 2
 377.333333333 656 454.333333333 628 507 572 c 128
 559.666666667 516 586 435.666666667 586 331 c 0
 586 279 579.333333333 232.5 566 191.5 c 128
 552.666666667 150.5 533 115.833333333 507 87.5 c 128
 481 59.1666666667 449 37.5 411 22.5 c 128
 373 7.5 329.333333333 0 280 0 c 2
 112 0 l 1
 112 321 l 1
 33 321 l 1
 33 364 l 1
 112 368 l 1
 112 656 l 1
 276 656 l 2
EndSplineSet
Validated: 1
Substitution2: "'c2sc' Capitals to Small Capitals in Latin lookup 9 subtable" Eth.sc
Substitution2: "'aalt' Access All Alternates in Latin lookup 0 subtable" Eth.sc
EndChar

StartChar: Thorn
Encoding: 159 222 228
Width: 583
Flags: HW
LayerCount: 2
Fore
SplineSet
90 656 m 1
 173 656 l 1
 173 546 l 1
 291 546 l 2
 327 546 360 542.666666667 390 536 c 128
 420 529.333333333 445.5 518.333333333 466.5 503 c 128
 487.5 487.666666667 503.833333333 467.833333333 515.5 443.5 c 128
 527.166666667 419.166666667 533 389 533 353 c 0
 533 318.333333333 527.166666667 288.166666667 515.5 262.5 c 128
 503.833333333 236.833333333 487.333333333 215.666666667 466 199 c 128
 444.666666667 182.333333333 419.166666667 170 389.5 162 c 128
 359.833333333 154 327 150 291 150 c 2
 173 150 l 1
 173 0 l 1
 90 0 l 1
 90 656 l 1
281 218 m 2
 338.333333333 218 380.833333333 228.666666667 408.5 250 c 128
 436.166666667 271.333333333 450 305.666666667 450 353 c 256
 450 400.333333333 436 433 408 451 c 128
 380 469 337.666666667 478 281 478 c 2
 173 478 l 1
 173 218 l 1
 281 218 l 2
EndSplineSet
Validated: 1
Substitution2: "'c2sc' Capitals to Small Capitals in Latin lookup 9 subtable" Thorn.sc
Substitution2: "'aalt' Access All Alternates in Latin lookup 0 subtable" Thorn.sc
EndChar

StartChar: uni018F
Encoding: 315 399 229
Width: 659
GlyphClass: 2
Flags: HW
AnchorPoint: "Anchor-2" 355 -22 basechar 0
AnchorPoint: "Anchor-0" 352 678 basechar 0
LayerCount: 2
Fore
SplineSet
143 286 m 1
 145 250 150.833333333 217.833333333 160.5 189.5 c 128
 170.166666667 161.166666667 183.166666667 137.166666667 199.5 117.5 c 128
 215.833333333 97.8333333333 234.833333333 82.8333333333 256.5 72.5 c 128
 278.166666667 62.1666666667 302 57 328 57 c 0
 381.333333333 57 425.333333333 77.3333333333 460 118 c 128
 494.666666667 158.666666667 515.333333333 214.666666667 522 286 c 1
 143 286 l 1
125 591 m 1
 148.333333333 613.666666667 177.5 632.166666667 212.5 646.5 c 128
 247.5 660.833333333 287.333333333 668 332 668 c 0
 374 668 412 660.166666667 446 644.5 c 128
 480 628.833333333 508.833333333 606.5 532.5 577.5 c 128
 556.166666667 548.5 574.5 513.166666667 587.5 471.5 c 128
 600.5 429.833333333 607 382.666666667 607 330 c 256
 607 277.333333333 600.166666667 230 586.5 188 c 128
 572.833333333 146 553.666666667 110.166666667 529 80.5 c 128
 504.333333333 50.8333333333 474.833333333 28 440.5 12 c 128
 406.166666667 -4 368.666666667 -12 328 -12 c 0
 286.666666667 -12 249.5 -4 216.5 12 c 128
 183.5 28 155.166666667 50.8333333333 131.5 80.5 c 128
 107.833333333 110.166666667 89.6666666667 145.666666667 77 187 c 128
 64.3333333333 228.333333333 58 274.333333333 58 325 c 0
 58 328.333333333 58.1666666667 332.166666667 58.5 336.5 c 128
 58.8333333333 340.833333333 59.3333333333 345.333333333 60 350 c 1
 524 350 l 1
 520.666666667 427.333333333 502.166666667 488.166666667 468.5 532.5 c 128
 434.833333333 576.833333333 387 599 325 599 c 0
 292.333333333 599 262.333333333 593 235 581 c 128
 207.666666667 569 184.333333333 553.333333333 165 534 c 1
 125 591 l 1
EndSplineSet
Validated: 1
Substitution2: "'c2sc' Capitals to Small Capitals in Latin lookup 9 subtable" uni018F.sc
Substitution2: "'aalt' Access All Alternates in Latin lookup 0 subtable" uni018F.sc
EndChar

StartChar: aogonek
Encoding: 198 261 251
Width: 512
GlyphClass: 2
Flags: HW
AnchorPoint: "Anchor-0" 269 508 basechar 0
LayerCount: 2
Fore
SplineSet
139 132 m 0
 139 104 147.166666667 84 163.5 72 c 128
 179.833333333 60 200 54 224 54 c 0
 247.333333333 54 269.5 59.5 290.5 70.5 c 128
 311.5 81.5 333.666666667 97.6666666667 357 119 c 1
 357 254 l 1
 316.333333333 248.666666667 282 242.333333333 254 235 c 128
 226 227.666666667 203.5 219 186.5 209 c 128
 169.5 199 157.333333333 187.5 150 174.5 c 128
 142.666666667 161.5 139 147.333333333 139 132 c 0
58 126 m 0
 58 179.333333333 81.8333333333 220.166666667 129.5 248.5 c 128
 177.166666667 276.833333333 253 296.666666667 357 308 c 1
 357 323.333333333 355.5 338.333333333 352.5 353 c 128
 349.5 367.666666667 344.166666667 380.666666667 336.5 392 c 128
 328.833333333 403.333333333 318.666666667 412.5 306 419.5 c 128
 293.333333333 426.5 277 430 257 430 c 0
 228.333333333 430 201.833333333 424.666666667 177.5 414 c 128
 153.166666667 403.333333333 131.333333333 391.333333333 112 378 c 1
 79 435 l 1
 101.666666667 449.666666667 129.333333333 463.833333333 162 477.5 c 128
 194.666666667 491.166666667 230.666666667 498 270 498 c 0
 329.333333333 498 372.333333333 479.833333333 399 443.5 c 128
 425.666666667 407.166666667 439 358.666666667 439 298 c 2
 439 0 l 1
 411 -11.3333333333 389.5 -26.8333333333 374.5 -46.5 c 128
 359.5 -66.1666666667 352 -85.6666666667 352 -105 c 0
 352 -120.333333333 356.833333333 -131.833333333 366.5 -139.5 c 128
 376.166666667 -147.166666667 387 -151 399 -151 c 0
 407 -151 414.166666667 -149.833333333 420.5 -147.5 c 128
 426.833333333 -145.166666667 433 -142 439 -138 c 1
 460 -179 l 1
 450.666666667 -186.333333333 438.5 -192.666666667 423.5 -198 c 128
 408.5 -203.333333333 394.666666667 -206 382 -206 c 0
 356.666666667 -206 335.333333333 -198.833333333 318 -184.5 c 128
 300.666666667 -170.166666667 292 -149 292 -121 c 0
 292 -107.666666667 294.333333333 -94.8333333333 299 -82.5 c 128
 303.666666667 -70.1666666667 309.833333333 -58.6666666667 317.5 -48 c 128
 325.166666667 -37.3333333333 333.666666667 -27.5 343 -18.5 c 128
 352.333333333 -9.5 362 -2 372 4 c 1
 364 58 l 1
 362 58 l 1
 338.666666667 38.6666666667 313.5 22.1666666667 286.5 8.5 c 128
 259.5 -5.16666666667 231 -12 201 -12 c 0
 159.666666667 -12 125.5 0 98.5 24 c 128
 71.5 48 58 82 58 126 c 0
EndSplineSet
Validated: 1
Substitution2: "'ss02' Style Set 2 in Latin lookup 27 subtable" aogonek.a
Substitution2: "'smcp' Lowercase to Small Capitals in Latin lookup 11 subtable" Aogonek.sc
Ligature2: "'ccmp' Glyph Composition/Decomposition in Latin lookup 7 subtable" a uni0328
AlternateSubs2: "'aalt' Access All Alternates in Latin lookup 1 subtable" Aogonek.sc aogonek.a
EndChar

StartChar: ae
Encoding: 167 230 252
Width: 785
Flags: HW
LayerCount: 2
Fore
SplineSet
139 132 m 0
 139 104 147.166666667 84 163.5 72 c 128
 179.833333333 60 200 54 224 54 c 0
 246.666666667 54 271.333333333 60.5 298 73.5 c 128
 324.666666667 86.5 349 105 371 129 c 1
 365.666666667 141.666666667 361.333333333 156.833333333 358 174.5 c 128
 354.666666667 192.166666667 352.666666667 210.333333333 352 229 c 1
 352 254 l 1
 313.333333333 248.666666667 280.5 242.333333333 253.5 235 c 128
 226.5 227.666666667 204.5 219 187.5 209 c 128
 170.5 199 158.166666667 187.5 150.5 174.5 c 128
 142.833333333 161.5 139 147.333333333 139 132 c 0
79 435 m 1
 101.666666667 449.666666667 129 463.833333333 161 477.5 c 128
 193 491.166666667 227 498 263 498 c 256
 299 498 328.666666667 488.833333333 352 470.5 c 128
 375.333333333 452.166666667 392 427 402 395 c 1
 421.333333333 427 444.5 452.166666667 471.5 470.5 c 128
 498.5 488.833333333 528.666666667 498 562 498 c 0
 592 498 618.5 492.666666667 641.5 482 c 128
 664.5 471.333333333 683.833333333 456 699.5 436 c 128
 715.166666667 416 727 391.833333333 735 363.5 c 128
 743 335.166666667 747 303.666666667 747 269 c 0
 747 250.333333333 746 235 744 223 c 1
 429 223 l 1
 429.666666667 197.666666667 434.166666667 174.666666667 442.5 154 c 128
 450.833333333 133.333333333 461.666666667 115.666666667 475 101 c 128
 488.333333333 86.3333333333 504 75 522 67 c 128
 540 59 559.333333333 55 580 55 c 0
 603.333333333 55 624.333333333 58.8333333333 643 66.5 c 128
 661.666666667 74.1666666667 680 83.6666666667 698 95 c 1
 728 38 l 1
 706.666666667 24.6666666667 683.333333333 13 658 3 c 128
 632.666666667 -7 603.333333333 -12 570 -12 c 0
 529.333333333 -12 495.333333333 -2.83333333333 468 15.5 c 128
 440.666666667 33.8333333333 417.666666667 55 399 79 c 1
 365.666666667 49 332.166666667 26.3333333333 298.5 11 c 128
 264.833333333 -4.33333333333 232.333333333 -12 201 -12 c 0
 159.666666667 -12 125.5 0 98.5 24 c 128
 71.5 48 58 82 58 126 c 0
 58 179.333333333 81.6666666667 220.166666667 129 248.5 c 128
 176.333333333 276.833333333 250.666666667 296.666666667 352 308 c 1
 352 323.333333333 350.666666667 338.333333333 348 353 c 128
 345.333333333 367.666666667 340.166666667 380.666666667 332.5 392 c 128
 324.833333333 403.333333333 314.666666667 412.5 302 419.5 c 128
 289.333333333 426.5 273 430 253 430 c 0
 226.333333333 430 201 424.666666667 177 414 c 128
 153 403.333333333 131.333333333 391.333333333 112 378 c 1
 79 435 l 1
675 278 m 1
 675 328 665.166666667 366.333333333 645.5 393 c 128
 625.833333333 419.666666667 597.333333333 433 560 433 c 0
 526 433 496.833333333 419.166666667 472.5 391.5 c 128
 448.166666667 363.833333333 433.666666667 326 429 278 c 1
 675 278 l 1
EndSplineSet
Validated: 1
Substitution2: "'smcp' Lowercase to Small Capitals in Latin lookup 11 subtable" AE.sc
Substitution2: "'aalt' Access All Alternates in Latin lookup 0 subtable" AE.sc
EndChar

StartChar: dcroat
Encoding: 210 273 261
Width: 555
Flags: HW
LayerCount: 2
Fore
SplineSet
390 358 m 1
 369.333333333 376.666666667 349.5 389.833333333 330.5 397.5 c 128
 311.5 405.166666667 292 409 272 409 c 0
 252.666666667 409 234.5 404.833333333 217.5 396.5 c 128
 200.5 388.166666667 185.666666667 376.166666667 173 360.5 c 128
 160.333333333 344.833333333 150.333333333 326.166666667 143 304.5 c 128
 135.666666667 282.833333333 132 259 132 233 c 0
 132 177 143.666666667 133.666666667 167 103 c 128
 190.333333333 72.3333333333 223.333333333 57 266 57 c 0
 288.666666667 57 310 62.5 330 73.5 c 128
 350 84.5 370 101.333333333 390 124 c 1
 390 358 l 1
545 576 m 1
 473 571 l 1
 473 0 l 1
 403 0 l 1
 397 55 l 1
 394 55 l 1
 375.333333333 36.3333333333 353.666666667 20.5 329 7.5 c 128
 304.333333333 -5.5 277.333333333 -12 248 -12 c 0
 186.666666667 -12 137.833333333 9 101.5 51 c 128
 65.1666666667 93 47 153.333333333 47 232 c 0
 47 270 52.8333333333 304.166666667 64.5 334.5 c 128
 76.1666666667 364.833333333 91.6666666667 390.666666667 111 412 c 128
 130.333333333 433.333333333 152.666666667 449.666666667 178 461 c 128
 203.333333333 472.333333333 230 478 258 478 c 256
 286 478 310.333333333 473 331 463 c 128
 351.666666667 453 372.666666667 439.333333333 394 422 c 1
 390 505 l 1
 390 571 l 1
 229 571 l 1
 229 619 l 1
 390 619 l 1
 390 712 l 1
 473 712 l 1
 473 619 l 1
 545 619 l 1
 545 576 l 1
EndSplineSet
Validated: 1
Substitution2: "'smcp' Lowercase to Small Capitals in Latin lookup 11 subtable" Dcroat.sc
Substitution2: "'aalt' Access All Alternates in Latin lookup 0 subtable" Dcroat.sc
EndChar

StartChar: eogonek
Encoding: 218 281 278
Width: 496
GlyphClass: 2
Flags: HW
AnchorPoint: "Anchor-0" 264 508 basechar 0
LayerCount: 2
Fore
SplineSet
46 242 m 256
 46 282 52.1666666667 317.833333333 64.5 349.5 c 128
 76.8333333333 381.166666667 93.1666666667 408 113.5 430 c 128
 133.833333333 452 157 468.833333333 183 480.5 c 128
 209 492.166666667 236 498 264 498 c 0
 294.666666667 498 322.166666667 492.666666667 346.5 482 c 128
 370.833333333 471.333333333 391.166666667 456 407.5 436 c 128
 423.833333333 416 436.333333333 392 445 364 c 128
 453.666666667 336 458 304.666666667 458 270 c 0
 458 252 457 237 455 225 c 1
 127 225 l 1
 130.333333333 172.333333333 146.5 130.666666667 175.5 100 c 128
 204.5 69.3333333333 242.333333333 54 289 54 c 0
 312.333333333 54 333.833333333 57.5 353.5 64.5 c 128
 373.166666667 71.5 392 80.6666666667 410 92 c 1
 439 38 l 1
 417 22.6666666667 399 8.5 385 -4.5 c 128
 371 -17.5 359.666666667 -29.6666666667 351 -41 c 128
 342.333333333 -52.3333333333 336.333333333 -63.1666666667 333 -73.5 c 128
 329.666666667 -83.8333333333 328 -94.3333333333 328 -105 c 0
 328 -120.333333333 332.666666667 -131.833333333 342 -139.5 c 128
 351.333333333 -147.166666667 362.333333333 -151 375 -151 c 0
 383 -151 390.166666667 -149.833333333 396.5 -147.5 c 128
 402.833333333 -145.166666667 409 -142 415 -138 c 1
 436 -179 l 1
 426.666666667 -186.333333333 414.5 -192.666666667 399.5 -198 c 128
 384.5 -203.333333333 370.666666667 -206 358 -206 c 0
 332.666666667 -206 311.333333333 -198.833333333 294 -184.5 c 128
 276.666666667 -170.166666667 268 -149 268 -121 c 0
 268 -108.333333333 269.833333333 -96.3333333333 273.5 -85 c 128
 277.166666667 -73.6666666667 282 -63 288 -53 c 128
 294 -43 300.5 -34 307.5 -26 c 128
 314.5 -18 321.333333333 -11 328 -5 c 1
 319.333333333 -8.33333333333 311 -10.3333333333 303 -11 c 128
 295 -11.6666666667 287 -12 279 -12 c 0
 246.333333333 -12 215.833333333 -6.16666666667 187.5 5.5 c 128
 159.166666667 17.1666666667 134.5 33.8333333333 113.5 55.5 c 128
 92.5 77.1666666667 76 103.666666667 64 135 c 128
 52 166.333333333 46 202 46 242 c 256
386 279 m 1
 386 329 375.666666667 367.166666667 355 393.5 c 128
 334.333333333 419.833333333 304.666666667 433 266 433 c 0
 248.666666667 433 232.166666667 429.5 216.5 422.5 c 128
 200.833333333 415.5 186.666666667 405.5 174 392.5 c 128
 161.333333333 379.5 150.833333333 363.5 142.5 344.5 c 128
 134.166666667 325.5 128.666666667 303.666666667 126 279 c 1
 386 279 l 1
EndSplineSet
Validated: 1
Substitution2: "'smcp' Lowercase to Small Capitals in Latin lookup 11 subtable" Eogonek.sc
Ligature2: "'ccmp' Glyph Composition/Decomposition in Latin lookup 7 subtable" e uni0328
Substitution2: "'aalt' Access All Alternates in Latin lookup 0 subtable" Eogonek.sc
EndChar

StartChar: hbar
Encoding: 232 295 289
Width: 544
Flags: HW
LayerCount: 2
Fore
SplineSet
161 398 m 1
 184.333333333 420 208.666666667 438.833333333 234 454.5 c 128
 259.333333333 470.166666667 289 478 323 478 c 0
 374.333333333 478 411.833333333 462 435.5 430 c 128
 459.166666667 398 471 350.666666667 471 288 c 2
 471 0 l 1
 389 0 l 1
 389 277 l 2
 389 323 381.666666667 356.166666667 367 376.5 c 128
 352.333333333 396.833333333 329 407 297 407 c 0
 271.666666667 407 249.333333333 400.666666667 230 388 c 128
 210.666666667 375.333333333 188.666666667 356.666666667 164 332 c 1
 164 0 l 1
 82 0 l 1
 82 571 l 1
 8 571 l 1
 8 614 l 1
 82 619 l 1
 82 712 l 1
 164 712 l 1
 164 619 l 1
 346 619 l 1
 346 571 l 1
 164 571 l 1
 164 498 l 1
 161 398 l 1
EndSplineSet
Validated: 1
Substitution2: "'smcp' Lowercase to Small Capitals in Latin lookup 11 subtable" Hbar.sc
Substitution2: "'aalt' Access All Alternates in Latin lookup 0 subtable" Hbar.sc
EndChar

StartChar: iogonek
Encoding: 240 303 299
Width: 246
GlyphClass: 3
Flags: HW
LayerCount: 2
Fore
SplineSet
82 486 m 1
 164 486 l 1
 164 0 l 1
 144 -14.6666666667 128.166666667 -31 116.5 -49 c 128
 104.833333333 -67 99 -85.6666666667 99 -105 c 0
 99 -120.333333333 103.666666667 -131.833333333 113 -139.5 c 128
 122.333333333 -147.166666667 133.333333333 -151 146 -151 c 0
 153.333333333 -151 160.166666667 -149.833333333 166.5 -147.5 c 128
 172.833333333 -145.166666667 179.333333333 -142 186 -138 c 1
 207 -179 l 1
 197.666666667 -186.333333333 185.5 -192.666666667 170.5 -198 c 128
 155.5 -203.333333333 141.666666667 -206 129 -206 c 0
 103.666666667 -206 82.1666666667 -198.833333333 64.5 -184.5 c 128
 46.8333333333 -170.166666667 38 -149 38 -121 c 0
 38 -94.3333333333 45.1666666667 -71 59.5 -51 c 128
 73.8333333333 -31 88 -14 102 0 c 1
 82 0 l 1
 82 486 l 1
123 586 m 0
 107 586 93.5 591 82.5 601 c 128
 71.5 611 66 623.666666667 66 639 c 0
 66 655 71.5 667.833333333 82.5 677.5 c 128
 93.5 687.166666667 107 692 123 692 c 0
 138.333333333 692 151.5 687.166666667 162.5 677.5 c 128
 173.5 667.833333333 179 655 179 639 c 0
 179 623.666666667 173.5 611 162.5 601 c 128
 151.5 591 138.333333333 586 123 586 c 0
EndSplineSet
Validated: 1
Substitution2: "Single Substitution lookup 32 subtable" iogonek.d
Substitution2: "'smcp' Lowercase to Small Capitals in Latin lookup 11 subtable" Iogonek.sc
Ligature2: "'ccmp' Glyph Composition/Decomposition in Latin lookup 7 subtable" i uni0328
Substitution2: "'aalt' Access All Alternates in Latin lookup 0 subtable" Iogonek.sc
EndChar

StartChar: iogonek.d
Encoding: 868 -1 300
Width: 246
GlyphClass: 2
Flags: HW
AnchorPoint: "Anchor-0" 124 508 basechar 0
LayerCount: 2
Fore
SplineSet
82 486 m 1
 164 486 l 1
 164 0 l 1
 144 -14.6666666667 128.166666667 -31 116.5 -49 c 128
 104.833333333 -67 99 -85.6666666667 99 -105 c 0
 99 -120.333333333 103.666666667 -131.833333333 113 -139.5 c 128
 122.333333333 -147.166666667 133.333333333 -151 146 -151 c 0
 153.333333333 -151 160.166666667 -149.833333333 166.5 -147.5 c 128
 172.833333333 -145.166666667 179.333333333 -142 186 -138 c 1
 207 -179 l 1
 197.666666667 -186.333333333 185.5 -192.666666667 170.5 -198 c 128
 155.5 -203.333333333 141.666666667 -206 129 -206 c 0
 103.666666667 -206 82.1666666667 -198.833333333 64.5 -184.5 c 128
 46.8333333333 -170.166666667 38 -149 38 -121 c 0
 38 -94.3333333333 45.1666666667 -71 59.5 -51 c 128
 73.8333333333 -31 88 -14 102 0 c 1
 82 0 l 1
 82 486 l 1
EndSplineSet
Validated: 1
Ligature2: "Ligature Substitution lookup 31 subtable" i uni0328
Substitution2: "'smcp' Lowercase to Small Capitals in Latin lookup 11 subtable" Iogonek.sc
Substitution2: "'aalt' Access All Alternates in Latin lookup 0 subtable" Iogonek.sc
EndChar

StartChar: dotlessi
Encoding: 242 305 301
Width: 246
GlyphClass: 2
Flags: HW
AnchorPoint: "Anchor-4" 152 0 basechar 0
AnchorPoint: "Anchor-2" 123 -22 basechar 0
AnchorPoint: "Anchor-0" 124 508 basechar 0
LayerCount: 2
Fore
SplineSet
82 486 m 1
 164 486 l 1
 164 0 l 1
 82 0 l 1
 82 486 l 1
EndSplineSet
Validated: 1
EndChar

StartChar: kgreenlandic
Encoding: 247 312 304
Width: 495
Flags: HW
LayerCount: 2
Fore
SplineSet
82 486 m 1
 164 486 l 1
 164 228 l 1
 167 228 l 1
 373 486 l 1
 464 486 l 1
 303 291 l 1
 486 0 l 1
 396 0 l 1
 254 231 l 1
 164 125 l 1
 164 0 l 1
 82 0 l 1
 82 486 l 1
EndSplineSet
Validated: 1
EndChar

StartChar: lslash
Encoding: 257 322 312
Width: 262
Flags: HW
LayerCount: 2
Fore
SplineSet
169 374 m 1
 169 92 l 2
 169 78.6666666667 171.333333333 69.3333333333 176 64 c 128
 180.666666667 58.6666666667 186 56 192 56 c 0
 195 56 195 56 198.5 56 c 128
 200.833333333 56 204.666666667 56.6666666667 210 58 c 1
 221 -4 l 1
 215 -6.66666666667 208.333333333 -8.66666666667 201 -10 c 128
 193.666666667 -11.3333333333 184.333333333 -12 173 -12 c 0
 142.333333333 -12 120.166666667 -2.66666666667 106.5 16 c 128
 92.8333333333 34.6666666667 86 62 86 98 c 2
 86 331 l 1
 23 291 l 1
 23 361 l 1
 86 401 l 1
 86 712 l 1
 169 712 l 1
 169 444 l 1
 239 489 l 1
 239 419 l 1
 169 374 l 1
EndSplineSet
Validated: 1
Substitution2: "'ss01' Style Set 1 in Latin lookup 26 subtable" lslash.a
Substitution2: "'smcp' Lowercase to Small Capitals in Latin lookup 11 subtable" Lslash.sc
AlternateSubs2: "'aalt' Access All Alternates in Latin lookup 1 subtable" Lslash.sc lslash.a
EndChar

StartChar: oslash
Encoding: 185 248 337
Width: 542
GlyphClass: 2
Flags: HW
AnchorPoint: "Anchor-0" 271 508 basechar 0
LayerCount: 2
Fore
SplineSet
178 93 m 1
 204 67 235 54 271 54 c 0
 291.666666667 54 310.833333333 58.5 328.5 67.5 c 128
 346.166666667 76.5 361.5 89.1666666667 374.5 105.5 c 128
 387.5 121.833333333 397.5 141.333333333 404.5 164 c 128
 411.5 186.666666667 415 211.666666667 415 239 c 0
 415 283.666666667 407 321.666666667 391 353 c 1
 178 93 l 1
364 392 m 1
 339.333333333 418.666666667 308.333333333 432 271 432 c 0
 250.333333333 432 231.166666667 427.5 213.5 418.5 c 128
 195.833333333 409.5 180.666666667 396.833333333 168 380.5 c 128
 155.333333333 364.166666667 145.333333333 344.5 138 321.5 c 128
 130.666666667 298.5 127 273.333333333 127 246 c 0
 127 201.333333333 134.666666667 163.666666667 150 133 c 1
 364 392 l 1
442 415 m 1
 458.666666667 393.666666667 471.833333333 368.5 481.5 339.5 c 128
 491.166666667 310.5 496 278 496 242 c 0
 496 202 489.833333333 166.166666667 477.5 134.5 c 128
 465.166666667 102.833333333 448.666666667 76.1666666667 428 54.5 c 128
 407.333333333 32.8333333333 383.5 16.3333333333 356.5 5 c 128
 329.5 -6.33333333333 301 -12 271 -12 c 0
 218.333333333 -12 172 4.33333333333 132 37 c 1
 83 -23 l 1
 46 6 l 1
 100 71 l 1
 83.3333333333 92.3333333333 70.1666666667 117.166666667 60.5 145.5 c 128
 50.8333333333 173.833333333 46 206 46 242 c 0
 46 282.666666667 52.1666666667 318.833333333 64.5 350.5 c 128
 76.8333333333 382.166666667 93.3333333333 409 114 431 c 128
 134.666666667 453 158.5 469.666666667 185.5 481 c 128
 212.5 492.333333333 241 498 271 498 c 0
 296.333333333 498 321 493.833333333 345 485.5 c 128
 369 477.166666667 390.666666667 464.666666667 410 448 c 1
 460 509 l 1
 496 480 l 1
 442 415 l 1
EndSplineSet
Validated: 1
Substitution2: "'smcp' Lowercase to Small Capitals in Latin lookup 11 subtable" Oslash.sc
Substitution2: "'aalt' Access All Alternates in Latin lookup 0 subtable" Oslash.sc
EndChar

StartChar: oe
Encoding: 272 339 338
Width: 839
GlyphClass: 2
Flags: HW
AnchorPoint: "Anchor-0" 440 508 basechar 0
LayerCount: 2
Fore
SplineSet
130 242 m 256
 130 214 133.333333333 188.666666667 140 166 c 128
 146.666666667 143.333333333 156 123.833333333 168 107.5 c 128
 180 91.1666666667 194.333333333 78.5 211 69.5 c 128
 227.666666667 60.5 246 56 266 56 c 256
 286 56 304.333333333 60.5 321 69.5 c 128
 337.666666667 78.5 352 91.1666666667 364 107.5 c 128
 376 123.833333333 385.333333333 143.333333333 392 166 c 128
 398.666666667 188.666666667 402 214 402 242 c 256
 402 270 398.666666667 295.5 392 318.5 c 128
 385.333333333 341.5 376 361.333333333 364 378 c 128
 352 394.666666667 337.666666667 407.5 321 416.5 c 128
 304.333333333 425.5 286 430 266 430 c 256
 246 430 227.666666667 425.5 211 416.5 c 128
 194.333333333 407.5 180 394.666666667 168 378 c 128
 156 361.333333333 146.666666667 341.5 140 318.5 c 128
 133.333333333 295.5 130 270 130 242 c 256
46 242 m 0
 46 282.666666667 52 318.833333333 64 350.5 c 128
 76 382.166666667 92 409 112 431 c 128
 132 453 155.333333333 469.666666667 182 481 c 128
 208.666666667 492.333333333 236.666666667 498 266 498 c 0
 303.333333333 498 337.666666667 487.666666667 369 467 c 128
 400.333333333 446.333333333 424.666666667 416 442 376 c 1
 460.666666667 414 484.833333333 443.833333333 514.5 465.5 c 128
 544.166666667 487.166666667 577 498 613 498 c 0
 643 498 669.666666667 492.666666667 693 482 c 128
 716.333333333 471.333333333 736 456 752 436 c 128
 768 416 780.166666667 391.833333333 788.5 363.5 c 128
 796.833333333 335.166666667 801 303.666666667 801 269 c 0
 801 250.333333333 800 235 798 223 c 1
 479 223 l 1
 479.666666667 197.666666667 484.166666667 174.666666667 492.5 154 c 128
 500.833333333 133.333333333 511.833333333 115.666666667 525.5 101 c 128
 539.166666667 86.3333333333 555.166666667 75 573.5 67 c 128
 591.833333333 59 611.333333333 55 632 55 c 0
 655.333333333 55 676.666666667 58.8333333333 696 66.5 c 128
 715.333333333 74.1666666667 734 83.6666666667 752 95 c 1
 782 38 l 1
 760.666666667 24.6666666667 737 13 711 3 c 128
 685 -7 655.333333333 -12 622 -12 c 0
 584 -12 549.333333333 -1.33333333333 518 20 c 128
 486.666666667 41.3333333333 461.666666667 71 443 109 c 1
 405 28.3333333333 345.333333333 -12 264 -12 c 0
 234.666666667 -12 206.833333333 -6.33333333333 180.5 5 c 128
 154.166666667 16.3333333333 131 32.8333333333 111 54.5 c 128
 91 76.1666666667 75.1666666667 102.833333333 63.5 134.5 c 128
 51.8333333333 166.166666667 46 202 46 242 c 0
729 278 m 1
 729 328 718.666666667 366.333333333 698 393 c 128
 677.333333333 419.666666667 648.333333333 433 611 433 c 0
 577 433 547.666666667 419.166666667 523 391.5 c 128
 498.333333333 363.833333333 483.666666667 326 479 278 c 1
 729 278 l 1
EndSplineSet
Validated: 1
Substitution2: "'smcp' Lowercase to Small Capitals in Latin lookup 11 subtable" OE.sc
Substitution2: "'aalt' Access All Alternates in Latin lookup 0 subtable" OE.sc
EndChar

StartChar: ohorn
Encoding: 318 417 339
Width: 542
GlyphClass: 2
Flags: HW
AnchorPoint: "Anchor-2" 271 -22 basechar 0
AnchorPoint: "Anchor-0" 271 508 basechar 0
LayerCount: 2
Fore
SplineSet
271 56 m 256
 291.666666667 56 310.666666667 60.5 328 69.5 c 128
 345.333333333 78.5 360.166666667 91.1666666667 372.5 107.5 c 128
 384.833333333 123.833333333 394.333333333 143.333333333 401 166 c 128
 407.666666667 188.666666667 411 214 411 242 c 256
 411 270 407.666666667 295.5 401 318.5 c 128
 394.333333333 341.5 384.833333333 361.333333333 372.5 378 c 128
 360.166666667 394.666666667 345.333333333 407.5 328 416.5 c 128
 310.666666667 425.5 291.666666667 430 271 430 c 256
 250.333333333 430 231.333333333 425.5 214 416.5 c 128
 196.666666667 407.5 181.833333333 394.666666667 169.5 378 c 128
 157.166666667 361.333333333 147.666666667 341.5 141 318.5 c 128
 134.333333333 295.5 131 270 131 242 c 256
 131 214 134.333333333 188.666666667 141 166 c 128
 147.666666667 143.333333333 157.166666667 123.833333333 169.5 107.5 c 128
 181.833333333 91.1666666667 196.666666667 78.5 214 69.5 c 128
 231.333333333 60.5 250.333333333 56 271 56 c 256
484 613 m 1
 490.666666667 603.666666667 496.166666667 593.666666667 500.5 583 c 128
 504.833333333 572.333333333 507 560.666666667 507 548 c 0
 507 518 497.666666667 495.166666667 479 479.5 c 128
 460.333333333 463.833333333 438.666666667 452.333333333 414 445 c 1
 438.666666667 423 458.5 395 473.5 361 c 128
 488.5 327 496 287.333333333 496 242 c 0
 496 202 489.833333333 166.166666667 477.5 134.5 c 128
 465.166666667 102.833333333 448.666666667 76.1666666667 428 54.5 c 128
 407.333333333 32.8333333333 383.5 16.3333333333 356.5 5 c 128
 329.5 -6.33333333333 301 -12 271 -12 c 256
 241 -12 212.5 -6.33333333333 185.5 5 c 128
 158.5 16.3333333333 134.666666667 32.8333333333 114 54.5 c 128
 93.3333333333 76.1666666667 76.8333333333 102.833333333 64.5 134.5 c 128
 52.1666666667 166.166666667 46 202 46 242 c 0
 46 282.666666667 52.1666666667 318.833333333 64.5 350.5 c 128
 76.8333333333 382.166666667 93.3333333333 409 114 431 c 128
 134.666666667 453 158.5 469.666666667 185.5 481 c 128
 212.5 492.333333333 241 498 271 498 c 0
 304.333333333 498 335.666666667 491 365 477 c 1
 388.333333333 481 406.5 488.166666667 419.5 498.5 c 128
 432.5 508.833333333 439 523.333333333 439 542 c 0
 439 549.333333333 437.666666667 556.5 435 563.5 c 128
 432.333333333 570.5 428.666666667 577.333333333 424 584 c 1
 484 613 l 1
EndSplineSet
Validated: 1
Substitution2: "'smcp' Lowercase to Small Capitals in Latin lookup 11 subtable" Ohorn.sc
Substitution2: "'aalt' Access All Alternates in Latin lookup 0 subtable" Ohorn.sc
EndChar

StartChar: uni01EB
Encoding: 340 491 345
Width: 542
GlyphClass: 2
Flags: HW
AnchorPoint: "Anchor-0" 271 508 basechar 0
LayerCount: 2
Fore
SplineSet
205 -121 m 0
 205 -108.333333333 206.833333333 -96.5 210.5 -85.5 c 128
 214.166666667 -74.5 218.833333333 -64.1666666667 224.5 -54.5 c 128
 230.166666667 -44.8333333333 236.166666667 -36.3333333333 242.5 -29 c 128
 248.833333333 -21.6666666667 255 -15.6666666667 261 -11 c 1
 231.666666667 -9.66666666667 204 -2.83333333333 178 9.5 c 128
 152 21.8333333333 129.166666667 38.6666666667 109.5 60 c 128
 89.8333333333 81.3333333333 74.3333333333 107.333333333 63 138 c 128
 51.6666666667 168.666666667 46 203.333333333 46 242 c 0
 46 282.666666667 52.1666666667 318.833333333 64.5 350.5 c 128
 76.8333333333 382.166666667 93.3333333333 409 114 431 c 128
 134.666666667 453 158.5 469.666666667 185.5 481 c 128
 212.5 492.333333333 241 498 271 498 c 256
 301 498 329.5 492.333333333 356.5 481 c 128
 383.5 469.666666667 407.333333333 453 428 431 c 128
 448.666666667 409 465.166666667 382.166666667 477.5 350.5 c 128
 489.833333333 318.833333333 496 282.666666667 496 242 c 0
 496 208 492.166666667 178.166666667 484.5 152.5 c 128
 476.833333333 126.833333333 466 104.166666667 452 84.5 c 128
 438 64.8333333333 421.333333333 47.8333333333 402 33.5 c 128
 382.666666667 19.1666666667 361 6.66666666667 337 -4 c 0
 314.333333333 -14.6666666667 296.833333333 -29.3333333333 284.5 -48 c 128
 272.166666667 -66.6666666667 266 -85.6666666667 266 -105 c 0
 266 -120.333333333 270.666666667 -131.833333333 280 -139.5 c 128
 289.333333333 -147.166666667 300 -151 312 -151 c 0
 320 -151 327.166666667 -149.833333333 333.5 -147.5 c 128
 339.833333333 -145.166666667 346.333333333 -142 353 -138 c 1
 374 -179 l 1
 364.666666667 -186.333333333 352.5 -192.666666667 337.5 -198 c 128
 322.5 -203.333333333 308.333333333 -206 295 -206 c 0
 269.666666667 -206 248.333333333 -198.833333333 231 -184.5 c 128
 213.666666667 -170.166666667 205 -149 205 -121 c 0
131 242 m 256
 131 214 134.333333333 188.666666667 141 166 c 128
 147.666666667 143.333333333 157.166666667 123.833333333 169.5 107.5 c 128
 181.833333333 91.1666666667 196.666666667 78.5 214 69.5 c 128
 231.333333333 60.5 250.333333333 56 271 56 c 256
 291.666666667 56 310.666666667 60.5 328 69.5 c 128
 345.333333333 78.5 360.166666667 91.1666666667 372.5 107.5 c 128
 384.833333333 123.833333333 394.333333333 143.333333333 401 166 c 128
 407.666666667 188.666666667 411 214 411 242 c 256
 411 270 407.666666667 295.5 401 318.5 c 128
 394.333333333 341.5 384.833333333 361.333333333 372.5 378 c 128
 360.166666667 394.666666667 345.333333333 407.5 328 416.5 c 128
 310.666666667 425.5 291.666666667 430 271 430 c 256
 250.333333333 430 231.333333333 425.5 214 416.5 c 128
 196.666666667 407.5 181.833333333 394.666666667 169.5 378 c 128
 157.166666667 361.333333333 147.666666667 341.5 141 318.5 c 128
 134.333333333 295.5 131 270 131 242 c 256
EndSplineSet
Validated: 1
Substitution2: "'smcp' Lowercase to Small Capitals in Latin lookup 11 subtable" uni01EA.sc
Ligature2: "'ccmp' Glyph Composition/Decomposition in Latin lookup 7 subtable" o uni0328
Substitution2: "'aalt' Access All Alternates in Latin lookup 0 subtable" uni01EA.sc
EndChar

StartChar: germandbls
Encoding: 160 223 359
Width: 576
Flags: HW
LayerCount: 2
Fore
SplineSet
82 515 m 2
 82 577.666666667 99 627.833333333 133 665.5 c 128
 167 703.166666667 215.333333333 722 278 722 c 0
 304 722 327.166666667 718.166666667 347.5 710.5 c 128
 367.833333333 702.833333333 385 692.333333333 399 679 c 128
 413 665.666666667 423.5 650.166666667 430.5 632.5 c 128
 437.5 614.833333333 441 596 441 576 c 0
 441 550.666666667 436.333333333 529.166666667 427 511.5 c 128
 417.666666667 493.833333333 407.166666667 477.666666667 395.5 463 c 128
 383.833333333 448.333333333 373.333333333 434.166666667 364 420.5 c 128
 354.666666667 406.833333333 350 391.333333333 350 374 c 0
 350 358 354.833333333 344.666666667 364.5 334 c 128
 374.166666667 323.333333333 386.333333333 313.833333333 401 305.5 c 128
 415.666666667 297.166666667 431.5 288.666666667 448.5 280 c 128
 465.5 271.333333333 481.333333333 261 496 249 c 128
 510.666666667 237 522.833333333 222 532.5 204 c 128
 542.166666667 186 547 163.666666667 547 137 c 0
 547 115.666666667 543.333333333 96 536 78 c 128
 528.666666667 60 518 44.3333333333 504 31 c 128
 490 17.6666666667 473.166666667 7.16666666667 453.5 -0.5 c 128
 433.833333333 -8.16666666667 411.666666667 -12 387 -12 c 0
 359 -12 333.666666667 -7.66666666667 311 1 c 128
 288.333333333 9.66666666667 266.666666667 21.6666666667 246 37 c 1
 279 95 l 1
 296.333333333 80.3333333333 313.5 69.5 330.5 62.5 c 128
 347.5 55.5 365.666666667 52 385 52 c 0
 413 52 434 60 448 76 c 128
 462 92 469 110.666666667 469 132 c 0
 469 151.333333333 464.166666667 167.333333333 454.5 180 c 128
 444.833333333 192.666666667 432.666666667 203.666666667 418 213 c 128
 403.333333333 222.333333333 387.5 231.166666667 370.5 239.5 c 128
 353.5 247.833333333 337.666666667 257.333333333 323 268 c 128
 308.333333333 278.666666667 296.166666667 291.5 286.5 306.5 c 128
 276.833333333 321.5 272 340.666666667 272 364 c 0
 272 386.666666667 276.5 406 285.5 422 c 128
 294.5 438 304.5 453.333333333 315.5 468 c 128
 326.5 482.666666667 336.666666667 497.666666667 346 513 c 128
 355.333333333 528.333333333 360 546.666666667 360 568 c 0
 360 593.333333333 353.166666667 614.166666667 339.5 630.5 c 128
 325.833333333 646.833333333 305 655 277 655 c 0
 241 655 213.166666667 642.166666667 193.5 616.5 c 128
 173.833333333 590.833333333 164 552 164 500 c 2
 164 0 l 1
 82 0 l 1
 82 515 l 2
EndSplineSet
Validated: 1
Substitution2: "'smcp' Lowercase to Small Capitals in Latin lookup 11 subtable" uni1E9E.sc
Substitution2: "'aalt' Access All Alternates in Latin lookup 0 subtable" uni1E9E.sc
EndChar

StartChar: uogonek
Encoding: 302 371 382
Width: 544
GlyphClass: 2
Flags: HW
AnchorPoint: "Anchor-0" 269 502 basechar 0
LayerCount: 2
Fore
SplineSet
75 486 m 1
 158 486 l 1
 158 189 l 2
 158 143 165 109.833333333 179 89.5 c 128
 193 69.1666666667 216.333333333 59 249 59 c 0
 274.333333333 59 296.666666667 65.5 316 78.5 c 128
 335.333333333 91.5 356.666666667 112.333333333 380 141 c 1
 380 486 l 1
 462 486 l 1
 462 0 l 1
 432 -14.6666666667 410 -31 396 -49 c 128
 382 -67 375 -85.6666666667 375 -105 c 0
 375 -120.333333333 379.833333333 -131.833333333 389.5 -139.5 c 128
 399.166666667 -147.166666667 409.666666667 -151 421 -151 c 0
 429 -151 436.333333333 -149.833333333 443 -147.5 c 128
 449.666666667 -145.166666667 456 -142 462 -138 c 1
 483 -179 l 1
 473.666666667 -186.333333333 461.5 -192.666666667 446.5 -198 c 128
 431.5 -203.333333333 417.666666667 -206 405 -206 c 0
 379.666666667 -206 358.166666667 -198.833333333 340.5 -184.5 c 128
 322.833333333 -170.166666667 314 -149 314 -121 c 0
 314 -93.6666666667 322.166666667 -69.8333333333 338.5 -49.5 c 128
 354.833333333 -29.1666666667 373.666666667 -11.3333333333 395 4 c 1
 387 76 l 1
 384 76 l 1
 361.333333333 49.3333333333 337.5 28 312.5 12 c 128
 287.5 -4 258 -12 224 -12 c 0
 172 -12 134.166666667 4 110.5 36 c 128
 86.8333333333 68 75 115.333333333 75 178 c 2
 75 486 l 1
EndSplineSet
Validated: 1
Substitution2: "'smcp' Lowercase to Small Capitals in Latin lookup 11 subtable" Uogonek.sc
Ligature2: "'ccmp' Glyph Composition/Decomposition in Latin lookup 7 subtable" u uni0328
Substitution2: "'aalt' Access All Alternates in Latin lookup 0 subtable" Uogonek.sc
EndChar

StartChar: uhorn
Encoding: 320 432 383
Width: 544
GlyphClass: 2
Flags: HW
AnchorPoint: "Anchor-2" 289 -22 basechar 0
AnchorPoint: "Anchor-0" 271 508 basechar 0
LayerCount: 2
Fore
SplineSet
530 623 m 1
 536.666666667 613.666666667 542.166666667 603.666666667 546.5 593 c 128
 550.833333333 582.333333333 553 570.666666667 553 558 c 0
 553 542.666666667 550.333333333 529.333333333 545 518 c 128
 539.666666667 506.666666667 532.833333333 496.833333333 524.5 488.5 c 128
 516.166666667 480.166666667 506.5 473.333333333 495.5 468 c 128
 484.5 462.666666667 473.333333333 458.333333333 462 455 c 1
 462 0 l 1
 394 0 l 1
 387 76 l 1
 384 76 l 1
 361.333333333 49.3333333333 337.5 28 312.5 12 c 128
 287.5 -4 258 -12 224 -12 c 0
 172 -12 134.166666667 4 110.5 36 c 128
 86.8333333333 68 75 115.333333333 75 178 c 2
 75 486 l 1
 158 486 l 1
 158 189 l 2
 158 143 165.166666667 109.833333333 179.5 89.5 c 128
 193.833333333 69.1666666667 217 59 249 59 c 0
 274.333333333 59 296.666666667 65.5 316 78.5 c 128
 335.333333333 91.5 356.666666667 112.333333333 380 141 c 1
 380 486 l 1
 401 486 l 1
 424.333333333 488.666666667 444.166666667 494.666666667 460.5 504 c 128
 476.833333333 513.333333333 485 529.333333333 485 552 c 0
 485 559.333333333 483.666666667 566.5 481 573.5 c 128
 478.333333333 580.5 475 587.333333333 471 594 c 1
 530 623 l 1
EndSplineSet
Validated: 1
Substitution2: "'smcp' Lowercase to Small Capitals in Latin lookup 11 subtable" Uhorn.sc
Substitution2: "'aalt' Access All Alternates in Latin lookup 0 subtable" Uhorn.sc
EndChar

StartChar: eth
Encoding: 177 240 405
Width: 545
Flags: HW
LayerCount: 2
Fore
SplineSet
271 56 m 0
 293.666666667 56 313.333333333 60.8333333333 330 70.5 c 128
 346.666666667 80.1666666667 360.666666667 93.6666666667 372 111 c 128
 383.333333333 128.333333333 391.833333333 149.166666667 397.5 173.5 c 128
 403.166666667 197.833333333 406 224.666666667 406 254 c 0
 406 263.333333333 405.833333333 272.666666667 405.5 282 c 128
 405.166666667 291.333333333 404.666666667 300.333333333 404 309 c 1
 382 338.333333333 360 358 338 368 c 128
 316 378 293.666666667 383 271 383 c 0
 249 383 229.333333333 379 212 371 c 128
 194.666666667 363 180 351.666666667 168 337 c 128
 156 322.333333333 146.833333333 305.166666667 140.5 285.5 c 128
 134.166666667 265.833333333 131 244.666666667 131 222 c 0
 131 196.666666667 134.666666667 173.833333333 142 153.5 c 128
 149.333333333 133.166666667 159.5 115.833333333 172.5 101.5 c 128
 185.5 87.1666666667 200.333333333 76 217 68 c 128
 233.666666667 60 251.666666667 56 271 56 c 0
349 605 m 1
 389 564.333333333 421.666666667 516 447 460 c 128
 472.333333333 404 485 336.333333333 485 257 c 0
 485 217 479.833333333 180.5 469.5 147.5 c 128
 459.166666667 114.5 444.5 86.1666666667 425.5 62.5 c 128
 406.5 38.8333333333 383.833333333 20.5 357.5 7.5 c 128
 331.166666667 -5.5 301.666666667 -12 269 -12 c 0
 241 -12 214 -6.66666666667 188 4 c 128
 162 14.6666666667 139 30.1666666667 119 50.5 c 128
 99 70.8333333333 83 95.5 71 124.5 c 128
 59 153.5 53 186 53 222 c 0
 53 256 58.3333333333 286.833333333 69 314.5 c 128
 79.6666666667 342.166666667 94.1666666667 365.833333333 112.5 385.5 c 128
 130.833333333 405.166666667 152.5 420.333333333 177.5 431 c 128
 202.5 441.666666667 229.666666667 447 259 447 c 0
 284.333333333 447 308.666666667 441.666666667 332 431 c 128
 355.333333333 420.333333333 375.666666667 403.666666667 393 381 c 1
 383.666666667 422.333333333 369.833333333 458.333333333 351.5 489 c 128
 333.166666667 519.666666667 311.333333333 547.666666667 286 573 c 1
 145 500 l 1
 121 541 l 1
 248 606 l 1
 213.333333333 632.666666667 176 656.666666667 136 678 c 1
 174 730 l 1
 198 716.666666667 221.666666667 702.666666667 245 688 c 128
 268.333333333 673.333333333 290.666666667 657 312 639 c 1
 454 712 l 1
 478 671 l 1
 349 605 l 1
EndSplineSet
Validated: 1
Substitution2: "'smcp' Lowercase to Small Capitals in Latin lookup 11 subtable" Eth.sc
Substitution2: "'aalt' Access All Alternates in Latin lookup 0 subtable" Eth.sc
EndChar

StartChar: thorn
Encoding: 191 254 406
Width: 555
GlyphClass: 2
Flags: HW
AnchorPoint: "Anchor-2" 284 -22 basechar 0
AnchorPoint: "Anchor-0" 126 730 basechar 0
LayerCount: 2
Fore
SplineSet
164 -205 m 1
 82 -205 l 1
 82 712 l 1
 164 712 l 1
 164 518 l 1
 163 435 l 1
 184.333333333 452.333333333 207.666666667 467.166666667 233 479.5 c 128
 258.333333333 491.833333333 284.333333333 498 311 498 c 0
 343 498 371.166666667 492.166666667 395.5 480.5 c 128
 419.833333333 468.833333333 440.333333333 452.166666667 457 430.5 c 128
 473.666666667 408.833333333 486.166666667 382.833333333 494.5 352.5 c 128
 502.833333333 322.166666667 507 288 507 250 c 0
 507 208.666666667 501.333333333 171.833333333 490 139.5 c 128
 478.666666667 107.166666667 463.333333333 79.6666666667 444 57 c 128
 424.666666667 34.3333333333 402.333333333 17.1666666667 377 5.5 c 128
 351.666666667 -6.16666666667 325 -12 297 -12 c 0
 273.666666667 -12 251 -7.33333333333 229 2 c 128
 207 11.3333333333 185 24.6666666667 163 42 c 1
 164 -41 l 1
 164 -205 l 1
164 108 m 1
 186 89.3333333333 207.333333333 76.1666666667 228 68.5 c 128
 248.666666667 60.8333333333 267 57 283 57 c 0
 303 57 321.5 61.5 338.5 70.5 c 128
 355.5 79.5 370.166666667 92.1666666667 382.5 108.5 c 128
 394.833333333 124.833333333 404.5 145 411.5 169 c 128
 418.5 193 422 220 422 250 c 0
 422 276.666666667 419.666666667 301 415 323 c 128
 410.333333333 345 402.833333333 363.833333333 392.5 379.5 c 128
 382.166666667 395.166666667 368.833333333 407.333333333 352.5 416 c 128
 336.166666667 424.666666667 316.666666667 429 294 429 c 0
 273.333333333 429 252.5 423.333333333 231.5 412 c 128
 210.5 400.666666667 188 384.333333333 164 363 c 1
 164 108 l 1
EndSplineSet
Validated: 1
Substitution2: "'smcp' Lowercase to Small Capitals in Latin lookup 11 subtable" Thorn.sc
Substitution2: "'aalt' Access All Alternates in Latin lookup 0 subtable" Thorn.sc
EndChar

StartChar: uni0237
Encoding: 345 567 407
Width: 247
GlyphClass: 2
Flags: HW
AnchorPoint: "Anchor-0" 125 508 basechar 0
LayerCount: 2
Fore
SplineSet
83 486 m 1
 165 486 l 1
 165 -55 l 2
 165 -104.333333333 155 -143.666666667 135 -173 c 128
 115 -202.333333333 80.6666666667 -217 32 -217 c 0
 16.6666666667 -217 3 -215.666666667 -9 -213 c 128
 -21 -210.333333333 -31.3333333333 -207.333333333 -40 -204 c 1
 -23 -142 l 1
 -17 -144 -10 -145.833333333 -2 -147.5 c 128
 6 -149.166666667 14.3333333333 -150 23 -150 c 0
 47 -150 63 -141.666666667 71 -125 c 128
 79 -108.333333333 83 -85 83 -55 c 2
 83 486 l 1
EndSplineSet
Validated: 1
EndChar

StartChar: uni0251
Encoding: 347 593 408
Width: 555
GlyphClass: 2
Flags: HW
AnchorPoint: "Anchor-2" 283 -22 basechar 0
AnchorPoint: "Anchor-0" 282 508 basechar 0
LayerCount: 2
Fore
SplineSet
132 243 m 0
 132 184.333333333 143.666666667 138.666666667 167 106 c 128
 190.333333333 73.3333333333 223.333333333 57 266 57 c 0
 288.666666667 57 310 62.5 330 73.5 c 128
 350 84.5 370 101.333333333 390 124 c 1
 390 378 l 1
 369.333333333 396.666666667 349.5 409.833333333 330.5 417.5 c 128
 311.5 425.166666667 292 429 272 429 c 0
 252.666666667 429 234.5 424.5 217.5 415.5 c 128
 200.5 406.5 185.666666667 393.833333333 173 377.5 c 128
 160.333333333 361.166666667 150.333333333 341.666666667 143 319 c 128
 135.666666667 296.333333333 132 271 132 243 c 0
47 242 m 0
 47 281.333333333 52.8333333333 316.833333333 64.5 348.5 c 128
 76.1666666667 380.166666667 91.8333333333 407 111.5 429 c 128
 131.166666667 451 153.666666667 468 179 480 c 128
 204.333333333 492 231 498 259 498 c 0
 286.333333333 498 310.666666667 493 332 483 c 128
 353.333333333 473 375 458.333333333 397 439 c 1
 399 439 l 1
 406 486 l 1
 473 486 l 1
 473 0 l 1
 405 0 l 1
 398 57 l 1
 395 57 l 1
 375.666666667 38.3333333333 353.5 22.1666666667 328.5 8.5 c 128
 303.5 -5.16666666667 276.666666667 -12 248 -12 c 0
 186.666666667 -12 137.833333333 10 101.5 54 c 128
 65.1666666667 98 47 160.666666667 47 242 c 0
EndSplineSet
Validated: 1
EndChar

StartChar: uni0259
Encoding: 348 601 409
Width: 496
GlyphClass: 2
Flags: HW
AnchorPoint: "Anchor-4" 240 0 basechar 0
AnchorPoint: "Anchor-2" 240 -22 basechar 0
AnchorPoint: "Anchor-0" 242 508 basechar 0
LayerCount: 2
Fore
SplineSet
37 222 m 0
 37 231.333333333 37.3333333333 239.833333333 38 247.5 c 128
 38.6666666667 255.166666667 39.6666666667 262 41 268 c 1
 368 268 l 1
 365.333333333 318 351.5 358 326.5 388 c 128
 301.5 418 267 433 223 433 c 0
 198.333333333 433 176 429.166666667 156 421.5 c 128
 136 413.833333333 116.333333333 403.666666667 97 391 c 1
 68 445 l 1
 90.6666666667 460.333333333 115.833333333 473 143.5 483 c 128
 171.166666667 493 202 498 236 498 c 0
 266.666666667 498 295 492.333333333 321 481 c 128
 347 469.666666667 369.5 453 388.5 431 c 128
 407.5 409 422.5 382.333333333 433.5 351 c 128
 444.5 319.666666667 450 284 450 244 c 256
 450 204 444.5 168.166666667 433.5 136.5 c 128
 422.5 104.833333333 407.5 78 388.5 56 c 128
 369.5 34 347 17.1666666667 321 5.5 c 128
 295 -6.16666666667 267.333333333 -12 238 -12 c 0
 207.333333333 -12 179.666666667 -6.66666666667 155 4 c 128
 130.333333333 14.6666666667 109.166666667 30.1666666667 91.5 50.5 c 128
 73.8333333333 70.8333333333 60.3333333333 95.5 51 124.5 c 128
 41.6666666667 153.5 37 186 37 222 c 0
110 213 m 1
 110 159 121.333333333 119 144 93 c 128
 166.666666667 67 197.333333333 54 236 54 c 0
 274 54 304.5 67.6666666667 327.5 95 c 128
 350.5 122.333333333 364.333333333 161.666666667 369 213 c 1
 110 213 l 1
EndSplineSet
Validated: 1
Substitution2: "'sups' Superscript in Latin lookup 16 subtable" uni0259.sups
Substitution2: "'smcp' Lowercase to Small Capitals in Latin lookup 11 subtable" uni018F.sc
AlternateSubs2: "'aalt' Access All Alternates in Latin lookup 1 subtable" uni018F.sc uni0259.sups
EndChar

StartChar: uni0261
Encoding: 349 609 410
Width: 559
GlyphClass: 2
Flags: HW
AnchorPoint: "Anchor-2" 274 -221 basechar 0
AnchorPoint: "Anchor-0" 286 508 basechar 0
LayerCount: 2
Fore
SplineSet
115 -105 m 1
 139 -121 163.166666667 -132.5 187.5 -139.5 c 128
 211.833333333 -146.5 235.666666667 -150 259 -150 c 0
 303.666666667 -150 336.833333333 -138.5 358.5 -115.5 c 128
 380.166666667 -92.5 391.666666667 -61.3333333333 393 -22 c 1
 394 70 l 1
 375.333333333 52 353.833333333 36.6666666667 329.5 24 c 128
 305.166666667 11.3333333333 278.666666667 5 250 5 c 0
 219.333333333 5 191.666666667 10.6666666667 167 22 c 128
 142.333333333 33.3333333333 121.333333333 49.5 104 70.5 c 128
 86.6666666667 91.5 73.3333333333 117.166666667 64 147.5 c 128
 54.6666666667 177.833333333 50 212 50 250 c 256
 50 288 55.8333333333 322.333333333 67.5 353 c 128
 79.1666666667 383.666666667 94.6666666667 409.666666667 114 431 c 128
 133.333333333 452.333333333 155.833333333 468.833333333 181.5 480.5 c 128
 207.166666667 492.166666667 233.666666667 498 261 498 c 0
 289 498 313.5 493.166666667 334.5 483.5 c 128
 355.5 473.833333333 376.333333333 459.666666667 397 441 c 1
 399 441 l 1
 406 486 l 1
 475 486 l 1
 475 -24 l 2
 475 -84.6666666667 456.333333333 -131.833333333 419 -165.5 c 128
 381.666666667 -199.166666667 328.333333333 -216 259 -216 c 0
 229 -216 198.833333333 -211.5 168.5 -202.5 c 128
 138.166666667 -193.5 110.333333333 -180.333333333 85 -163 c 1
 115 -105 l 1
268 73 m 0
 290.666666667 73 311.833333333 78.5 331.5 89.5 c 128
 351.166666667 100.5 371.666666667 117.333333333 393 140 c 1
 393 378 l 1
 371.666666667 396.666666667 351.5 409.833333333 332.5 417.5 c 128
 313.5 425.166666667 294 429 274 429 c 0
 254.666666667 429 236.5 424.666666667 219.5 416 c 128
 202.5 407.333333333 187.666666667 395 175 379 c 128
 162.333333333 363 152.333333333 344.166666667 145 322.5 c 128
 137.666666667 300.833333333 134 277 134 251 c 0
 134 196.333333333 145.666666667 153 169 121 c 128
 192.333333333 89 225.333333333 73 268 73 c 0
EndSplineSet
Validated: 1
EndChar

StartChar: f_f
Encoding: 728 64256 411
Width: 574
GlyphClass: 3
Flags: HW
LayerCount: 2
Fore
SplineSet
586 645 m 1
 566.666666667 653 548.333333333 657 531 657 c 0
 485 657 462 625.666666667 462 563 c 2
 462 486 l 1
 565 486 l 1
 565 419 l 1
 462 419 l 1
 462 0 l 1
 380 0 l 1
 380 419 l 1
 178 419 l 1
 178 0 l 1
 96 0 l 1
 96 419 l 1
 30 419 l 1
 30 481 l 1
 96 486 l 1
 96 550 l 2
 96 600.666666667 108.5 640.666666667 133.5 670 c 128
 158.5 699.333333333 196.333333333 714 247 714 c 0
 263 714 278.833333333 712.333333333 294.5 709 c 128
 310.166666667 705.666666667 324 701.333333333 336 696 c 1
 319 634 l 1
 299 642.666666667 277.333333333 647 254 647 c 0
 230 647 211.333333333 638.5 198 621.5 c 128
 184.666666667 604.5 178 580 178 548 c 2
 178 486 l 1
 380 486 l 1
 380 563 l 2
 380 613 391.5 652.333333333 414.5 681 c 128
 437.5 709.666666667 473.333333333 724 522 724 c 0
 537.333333333 724 551.833333333 722.5 565.5 719.5 c 128
 579.166666667 716.5 591.666666667 712.666666667 603 708 c 1
 586 645 l 1
EndSplineSet
Validated: 1
Ligature2: "'liga' Standard Ligatures in Latin lookup 30 subtable" f f
EndChar

StartChar: f_t
Encoding: 869 -1 414
Width: 594
GlyphClass: 3
Flags: HW
LayerCount: 2
Fore
SplineSet
581 6 m 1
 567.666666667 1.33333333333 553.166666667 -2.83333333333 537.5 -6.5 c 128
 521.833333333 -10.1666666667 506.333333333 -12 491 -12 c 0
 465 -12 443.166666667 -8 425.5 0 c 128
 407.833333333 8 393.5 19 382.5 33 c 128
 371.5 47 363.666666667 64 359 84 c 128
 354.333333333 104 352 126 352 150 c 2
 352 419 l 1
 178 419 l 1
 178 0 l 1
 96 0 l 1
 96 419 l 1
 30 419 l 1
 30 481 l 1
 96 486 l 1
 96 563 l 2
 96 613 107.5 652.333333333 130.5 681 c 128
 153.5 709.666666667 189.333333333 724 238 724 c 0
 253.333333333 724 267.833333333 722.5 281.5 719.5 c 128
 295.166666667 716.5 307.666666667 712.666666667 319 708 c 1
 301 645 l 1
 283 653 264.666666667 657 246 657 c 0
 200.666666667 657 178 625.666666667 178 563 c 2
 178 486 l 1
 356 486 l 1
 366 622 l 1
 434 622 l 1
 434 486 l 1
 566 486 l 1
 566 419 l 1
 434 419 l 1
 434 149 l 2
 434 119 439.666666667 95.8333333333 451 79.5 c 128
 462.333333333 63.1666666667 482 55 510 55 c 0
 518.666666667 55 528 56.3333333333 538 59 c 128
 548 61.6666666667 557 64.6666666667 565 68 c 1
 581 6 l 1
EndSplineSet
Validated: 1
Ligature2: "'liga' Standard Ligatures in Latin lookup 30 subtable" f t
EndChar

StartChar: I.a
Encoding: 870 -1 415
Width: 344
GlyphClass: 2
Flags: HW
AnchorPoint: "Anchor-4" 148 0 basechar 0
AnchorPoint: "Anchor-2" 173 -22 basechar 0
AnchorPoint: "Anchor-0" 171 678 basechar 0
LayerCount: 2
Fore
SplineSet
46 71 m 1
 130 71 l 1
 130 586 l 1
 46 586 l 1
 46 656 l 1
 296 656 l 1
 296 586 l 1
 213 586 l 1
 213 71 l 1
 296 71 l 1
 296 0 l 1
 46 0 l 1
 46 71 l 1
EndSplineSet
Validated: 1
EndChar

StartChar: Iogonek.a
Encoding: 881 -1 426
Width: 344
GlyphClass: 2
Flags: HW
AnchorPoint: "Anchor-0" 171 678 basechar 0
LayerCount: 2
Fore
SplineSet
46 71 m 1
 130 71 l 1
 130 586 l 1
 46 586 l 1
 46 656 l 1
 296 656 l 1
 296 586 l 1
 213 586 l 1
 213 71 l 1
 296 71 l 1
 296 0 l 1
 209 0 l 1
 189.666666667 -15.3333333333 174.333333333 -32.1666666667 163 -50.5 c 128
 151.666666667 -68.8333333333 146 -87.6666666667 146 -107 c 0
 146 -122.333333333 151 -133.833333333 161 -141.5 c 128
 171 -149.166666667 182 -153 194 -153 c 0
 202 -153 209.166666667 -151.833333333 215.5 -149.5 c 128
 221.833333333 -147.166666667 228 -143.666666667 234 -139 c 1
 257 -184 l 1
 247.666666667 -191.333333333 235.333333333 -197.833333333 220 -203.5 c 128
 204.666666667 -209.166666667 190.333333333 -212 177 -212 c 0
 151 -212 128.666666667 -204.666666667 110 -190 c 128
 91.3333333333 -175.333333333 82 -153.666666667 82 -125 c 0
 82 -97.6666666667 89.3333333333 -73.3333333333 104 -52 c 128
 118.666666667 -30.6666666667 134 -13.3333333333 150 0 c 1
 46 0 l 1
 46 71 l 1
EndSplineSet
Validated: 1
EndChar

StartChar: aogonek.a
Encoding: 904 -1 449
Width: 555
GlyphClass: 2
Flags: HW
AnchorPoint: "Anchor-0" 282 508 basechar 0
LayerCount: 2
Fore
SplineSet
132 243 m 0
 132 184.333333333 143.666666667 138.666666667 167 106 c 128
 190.333333333 73.3333333333 223.333333333 57 266 57 c 0
 288.666666667 57 310 62.5 330 73.5 c 128
 350 84.5 370 101.333333333 390 124 c 1
 390 378 l 1
 369.333333333 396.666666667 349.5 409.833333333 330.5 417.5 c 128
 311.5 425.166666667 292 429 272 429 c 0
 252.666666667 429 234.5 424.5 217.5 415.5 c 128
 200.5 406.5 185.666666667 393.833333333 173 377.5 c 128
 160.333333333 361.166666667 150.333333333 341.666666667 143 319 c 128
 135.666666667 296.333333333 132 271 132 243 c 0
47 242 m 0
 47 281.333333333 52.8333333333 316.833333333 64.5 348.5 c 128
 76.1666666667 380.166666667 91.8333333333 407 111.5 429 c 128
 131.166666667 451 153.666666667 468 179 480 c 128
 204.333333333 492 231 498 259 498 c 0
 286.333333333 498 310.666666667 493 332 483 c 128
 353.333333333 473 375 458.333333333 397 439 c 1
 399 439 l 1
 406 486 l 1
 473 486 l 1
 473 0 l 1
 443 -14.6666666667 421 -31 407 -49 c 128
 393 -67 386 -85.6666666667 386 -105 c 0
 386 -120.333333333 390.666666667 -131.833333333 400 -139.5 c 128
 409.333333333 -147.166666667 420 -151 432 -151 c 0
 440 -151 447.333333333 -149.833333333 454 -147.5 c 128
 460.666666667 -145.166666667 467 -142 473 -138 c 1
 494 -179 l 1
 484.666666667 -186.333333333 472.5 -192.666666667 457.5 -198 c 128
 442.5 -203.333333333 428.666666667 -206 416 -206 c 0
 390.666666667 -206 369.166666667 -198.833333333 351.5 -184.5 c 128
 333.833333333 -170.166666667 325 -149 325 -121 c 0
 325 -93.6666666667 333 -69.8333333333 349 -49.5 c 128
 365 -29.1666666667 383.666666667 -11.3333333333 405 4 c 1
 398 57 l 1
 395 57 l 1
 375.666666667 38.3333333333 353.5 22.1666666667 328.5 8.5 c 128
 303.5 -5.16666666667 276.666666667 -12 248 -12 c 0
 186.666666667 -12 137.833333333 10 101.5 54 c 128
 65.1666666667 98 47 160.666666667 47 242 c 0
EndSplineSet
Validated: 1
EndChar

StartChar: l.a
Encoding: 913 -1 458
Width: 246
GlyphClass: 2
Flags: HW
AnchorPoint: "Anchor-2" 123 -22 basechar 0
AnchorPoint: "Anchor-0" 123 730 basechar 0
LayerCount: 2
Fore
SplineSet
82 712 m 1
 164 712 l 1
 164 0 l 1
 82 0 l 1
 82 712 l 1
EndSplineSet
Validated: 1
EndChar

StartChar: lslash.a
Encoding: 921 -1 466
Width: 257
Flags: HW
LayerCount: 2
Fore
SplineSet
239 419 m 1
 164 371 l 1
 164 0 l 1
 82 0 l 1
 82 329 l 1
 23 291 l 1
 23 361 l 1
 82 399 l 1
 82 712 l 1
 164 712 l 1
 164 441 l 1
 239 489 l 1
 239 419 l 1
EndSplineSet
Validated: 1
EndChar

StartChar: ampersand
Encoding: 8 38 468
Width: 609
Flags: HW
LayerCount: 2
Fore
SplineSet
112 175 m 0
 112 157 115.333333333 140.5 122 125.5 c 128
 128.666666667 110.5 137.833333333 97.6666666667 149.5 87 c 128
 161.166666667 76.3333333333 174.833333333 68.1666666667 190.5 62.5 c 128
 206.166666667 56.8333333333 223 54 241 54 c 0
 263.666666667 54 285.333333333 58.6666666667 306 68 c 128
 326.666666667 77.3333333333 346.666666667 90.3333333333 366 107 c 1
 334 135 303.166666667 165.666666667 273.5 199 c 128
 243.833333333 232.333333333 217.333333333 266.666666667 194 302 c 1
 170.666666667 283.333333333 151.166666667 263.833333333 135.5 243.5 c 128
 119.833333333 223.166666667 112 200.333333333 112 175 c 0
189 514 m 0
 189 496 191.833333333 477.333333333 197.5 458 c 128
 203.166666667 438.666666667 210.666666667 419 220 399 c 1
 234.666666667 409 248.833333333 419.166666667 262.5 429.5 c 128
 276.166666667 439.833333333 288.166666667 450.5 298.5 461.5 c 128
 308.833333333 472.5 317 484.166666667 323 496.5 c 128
 329 508.833333333 332 522.333333333 332 537 c 0
 332 556.333333333 327.166666667 573.166666667 317.5 587.5 c 128
 307.833333333 601.833333333 292 609 270 609 c 0
 245.333333333 609 225.666666667 600 211 582 c 128
 196.333333333 564 189 541.333333333 189 514 c 0
572 -12 m 1
 548.666666667 -5.33333333333 524.333333333 4.16666666667 499 16.5 c 128
 473.666666667 28.8333333333 447.666666667 44.3333333333 421 63 c 1
 395.666666667 40.3333333333 367.5 22.1666666667 336.5 8.5 c 128
 305.5 -5.16666666667 270.666666667 -12 232 -12 c 0
 202 -12 174.833333333 -7.5 150.5 1.5 c 128
 126.166666667 10.5 105.166666667 23 87.5 39 c 128
 69.8333333333 55 56.1666666667 74.1666666667 46.5 96.5 c 128
 36.8333333333 118.833333333 32 143.333333333 32 170 c 0
 32 192 35.5 212 42.5 230 c 128
 49.5 248 59 264.666666667 71 280 c 128
 83 295.333333333 96.8333333333 309.5 112.5 322.5 c 128
 128.166666667 335.5 144.333333333 347.666666667 161 359 c 1
 147.666666667 386.333333333 137.166666667 412.833333333 129.5 438.5 c 128
 121.833333333 464.166666667 118 489 118 513 c 0
 118 535 121.666666667 555.333333333 129 574 c 128
 136.333333333 592.666666667 146.666666667 609 160 623 c 128
 173.333333333 637 189.333333333 648 208 656 c 128
 226.666666667 664 247.333333333 668 270 668 c 0
 310.666666667 668 342.333333333 656 365 632 c 128
 387.666666667 608 399 576.666666667 399 538 c 0
 399 516.666666667 394.666666667 497 386 479 c 128
 377.333333333 461 366 444.166666667 352 428.5 c 128
 338 412.833333333 322.166666667 398.166666667 304.5 384.5 c 128
 286.833333333 370.833333333 269 357.333333333 251 344 c 1
 272.333333333 310 297.5 277.333333333 326.5 246 c 128
 355.5 214.666666667 385.666666667 186 417 160 c 1
 437 187.333333333 454.833333333 217 470.5 249 c 128
 486.166666667 281 499 316 509 354 c 1
 586 354 l 1
 572.666666667 310.666666667 556.666666667 269.333333333 538 230 c 128
 519.333333333 190.666666667 497 153.666666667 471 119 c 1
 493.666666667 103.666666667 515.333333333 90.6666666667 536 80 c 128
 556.666666667 69.3333333333 576 61.3333333333 594 56 c 1
 572 -12 l 1
EndSplineSet
Validated: 1
Substitution2: "'smcp' Lowercase to Small Capitals in Latin lookup 10 subtable" ampersand.sc
Substitution2: "'aalt' Access All Alternates in Latin lookup 0 subtable" ampersand.sc
EndChar

StartChar: zero
Encoding: 18 48 469
Width: 497
Flags: HW
LayerCount: 2
Fore
SplineSet
249 -12 m 0
 184.333333333 -12 134 16.6666666667 98 74 c 128
 62 131.333333333 44 213.666666667 44 321 c 256
 44 428.333333333 62 510 98 566 c 128
 134 622 184.333333333 650 249 650 c 0
 313 650 363 622 399 566 c 128
 435 510 453 428.333333333 453 321 c 256
 453 213.666666667 435 131.333333333 399 74 c 128
 363 16.6666666667 313 -12 249 -12 c 0
249 54 m 0
 267.666666667 54 284.5 59.1666666667 299.5 69.5 c 128
 314.5 79.8333333333 327.5 95.8333333333 338.5 117.5 c 128
 349.5 139.166666667 358 166.833333333 364 200.5 c 128
 370 234.166666667 373 274.333333333 373 321 c 256
 373 367.666666667 370 407.666666667 364 441 c 128
 358 474.333333333 349.5 501.5 338.5 522.5 c 128
 327.5 543.5 314.5 559 299.5 569 c 128
 284.5 579 267.666666667 584 249 584 c 256
 230.333333333 584 213.333333333 579 198 569 c 128
 182.666666667 559 169.5 543.5 158.5 522.5 c 128
 147.5 501.5 139 474.333333333 133 441 c 128
 127 407.666666667 124 367.666666667 124 321 c 0
 124 227.666666667 135.5 159.833333333 158.5 117.5 c 128
 181.5 75.1666666667 211.666666667 54 249 54 c 0
EndSplineSet
Validated: 1
Substitution2: "'zero' Slashed Zero in Latin lookup 24 subtable" zero.0
Substitution2: "'ss05' Style Set 5 in Latin lookup 23 subtable" zero.0s
Substitution2: "'onum' Oldstyle Figures in Latin lookup 22 subtable" zero.tnum
Substitution2: "'pnum' Proportional Numbers in Latin lookup 21 subtable" zero.pnum
Substitution2: "'subs' Subscript in Latin lookup 20 subtable" zero.subs
Substitution2: "'sups' Superscript in Latin lookup 18 subtable" zero.sups
Substitution2: "'dnom' Denominators in Latin lookup 13 subtable" zero.dnom
Substitution2: "'numr' Numerators in Latin lookup 12 subtable" zero.numr
Substitution2: "'smcp' Lowercase to Small Capitals in Latin lookup 10 subtable" zero.sc
AlternateSubs2: "'aalt' Access All Alternates in Latin lookup 1 subtable" zero.sc zero.numr zero.dnom zero.sups zero.subs zero.pnum zero.tnum
EndChar

StartChar: one
Encoding: 19 49 470
Width: 497
Flags: HW
LayerCount: 2
Fore
SplineSet
79 68 m 1
 225 68 l 1
 225 538 l 1
 109 538 l 1
 109 591 l 1
 138.333333333 596.333333333 163.833333333 602.833333333 185.5 610.5 c 128
 207.166666667 618.166666667 226.666666667 627.333333333 244 638 c 1
 307 638 l 1
 307 68 l 1
 439 68 l 1
 439 0 l 1
 79 0 l 1
 79 68 l 1
EndSplineSet
Validated: 1
Substitution2: "'onum' Oldstyle Figures in Latin lookup 22 subtable" one.tnum
Substitution2: "'pnum' Proportional Numbers in Latin lookup 21 subtable" one.pnum
Substitution2: "'subs' Subscript in Latin lookup 20 subtable" one.subs
Substitution2: "'sups' Superscript in Latin lookup 18 subtable" one.sups
Substitution2: "'dnom' Denominators in Latin lookup 13 subtable" one.dnom
Substitution2: "'numr' Numerators in Latin lookup 12 subtable" one.numr
Substitution2: "'smcp' Lowercase to Small Capitals in Latin lookup 10 subtable" one.sc
AlternateSubs2: "'aalt' Access All Alternates in Latin lookup 1 subtable" one.sc one.numr one.dnom one.sups one.subs one.pnum one.tnum
EndChar

StartChar: two
Encoding: 20 50 471
Width: 497
Flags: HW
LayerCount: 2
Fore
SplineSet
40 49 m 1
 88 97 130.666666667 140.333333333 168 179 c 128
 205.333333333 217.666666667 236.666666667 253.5 262 286.5 c 128
 287.333333333 319.5 306.666666667 349.833333333 320 377.5 c 128
 333.333333333 405.166666667 340 432 340 458 c 0
 340 494.666666667 330 524.666666667 310 548 c 128
 290 571.333333333 259.666666667 583 219 583 c 0
 192.333333333 583 167.666666667 575.5 145 560.5 c 128
 122.333333333 545.5 101.666666667 527.333333333 83 506 c 1
 36 553 l 1
 62.6666666667 582.333333333 91 605.833333333 121 623.5 c 128
 151 641.166666667 187 650 229 650 c 0
 288.333333333 650 335 632.833333333 369 598.5 c 128
 403 564.166666667 420 518.666666667 420 462 c 0
 420 432 413.5 401.833333333 400.5 371.5 c 128
 387.5 341.166666667 369.5 309.833333333 346.5 277.5 c 128
 323.5 245.166666667 296.166666667 211.5 264.5 176.5 c 128
 232.833333333 141.5 198 104.333333333 160 65 c 1
 177.333333333 66.3333333333 195.333333333 67.6666666667 214 69 c 128
 232.666666667 70.3333333333 250.333333333 71 267 71 c 2
 452 71 l 1
 452 0 l 1
 40 0 l 1
 40 49 l 1
EndSplineSet
Validated: 1
Substitution2: "'onum' Oldstyle Figures in Latin lookup 22 subtable" two.tnum
Substitution2: "'pnum' Proportional Numbers in Latin lookup 21 subtable" two.pnum
Substitution2: "'subs' Subscript in Latin lookup 20 subtable" two.subs
Substitution2: "'sups' Superscript in Latin lookup 18 subtable" two.sups
Substitution2: "'dnom' Denominators in Latin lookup 13 subtable" two.dnom
Substitution2: "'numr' Numerators in Latin lookup 12 subtable" two.numr
Substitution2: "'smcp' Lowercase to Small Capitals in Latin lookup 10 subtable" two.sc
AlternateSubs2: "'aalt' Access All Alternates in Latin lookup 1 subtable" two.sc two.numr two.dnom two.sups two.subs two.pnum two.tnum
EndChar

StartChar: three
Encoding: 21 51 472
Width: 497
Flags: HW
LayerCount: 2
Fore
SplineSet
68 132 m 1
 87.3333333333 112 109.833333333 94.3333333333 135.5 79 c 128
 161.166666667 63.6666666667 193 56 231 56 c 0
 269.666666667 56 301.333333333 66.5 326 87.5 c 128
 350.666666667 108.5 363 137 363 173 c 0
 363 191.666666667 359.5 208.833333333 352.5 224.5 c 128
 345.5 240.166666667 334 253.666666667 318 265 c 128
 302 276.333333333 281 285 255 291 c 128
 229 297 197 300 159 300 c 1
 159 363 l 1
 193 363 221.5 366 244.5 372 c 128
 267.5 378 286.166666667 386.333333333 300.5 397 c 128
 314.833333333 407.666666667 325 420.333333333 331 435 c 128
 337 449.666666667 340 465.333333333 340 482 c 0
 340 513.333333333 330.166666667 538 310.5 556 c 128
 290.833333333 574 264 583 230 583 c 0
 203.333333333 583 178.833333333 577 156.5 565 c 128
 134.166666667 553 113.333333333 537.333333333 94 518 c 1
 50 570 l 1
 74.6666666667 593.333333333 101.833333333 612.5 131.5 627.5 c 128
 161.166666667 642.5 195 650 233 650 c 0
 261 650 286.666666667 646.333333333 310 639 c 128
 333.333333333 631.666666667 353.5 621.166666667 370.5 607.5 c 128
 387.5 593.833333333 400.666666667 577 410 557 c 128
 419.333333333 537 424 514 424 488 c 0
 424 449.333333333 413.333333333 417.666666667 392 393 c 128
 370.666666667 368.333333333 342.666666667 349.333333333 308 336 c 1
 308 332 l 1
 327.333333333 327.333333333 345.333333333 320.5 362 311.5 c 128
 378.666666667 302.5 393.333333333 291.166666667 406 277.5 c 128
 418.666666667 263.833333333 428.5 248 435.5 230 c 128
 442.5 212 446 192 446 170 c 0
 446 142 440.5 116.666666667 429.5 94 c 128
 418.5 71.3333333333 403.5 52.1666666667 384.5 36.5 c 128
 365.5 20.8333333333 343.333333333 8.83333333333 318 0.5 c 128
 292.666666667 -7.83333333333 265.333333333 -12 236 -12 c 0
 210.666666667 -12 187.5 -9.5 166.5 -4.5 c 128
 145.5 0.5 126.333333333 7.16666666667 109 15.5 c 128
 91.6666666667 23.8333333333 76.1666666667 33.3333333333 62.5 44 c 128
 48.8333333333 54.6666666667 36.6666666667 66 26 78 c 1
 68 132 l 1
EndSplineSet
Validated: 1
Substitution2: "'onum' Oldstyle Figures in Latin lookup 22 subtable" three.tnum
Substitution2: "'pnum' Proportional Numbers in Latin lookup 21 subtable" three.pnum
Substitution2: "'subs' Subscript in Latin lookup 20 subtable" three.subs
Substitution2: "'sups' Superscript in Latin lookup 18 subtable" three.sups
Substitution2: "'dnom' Denominators in Latin lookup 13 subtable" three.dnom
Substitution2: "'numr' Numerators in Latin lookup 12 subtable" three.numr
Substitution2: "'smcp' Lowercase to Small Capitals in Latin lookup 10 subtable" three.sc
AlternateSubs2: "'aalt' Access All Alternates in Latin lookup 1 subtable" three.sc three.numr three.dnom three.sups three.subs three.pnum three.tnum
EndChar

StartChar: four
Encoding: 22 52 473
Width: 497
Flags: HW
LayerCount: 2
Fore
SplineSet
304 242 m 1
 304 427 l 2
 304 444.333333333 304.5 464.833333333 305.5 488.5 c 128
 306.5 512.166666667 307.666666667 532.666666667 309 550 c 1
 305 550 l 1
 297 534.666666667 288.666666667 519.666666667 280 505 c 128
 271.333333333 490.333333333 262.333333333 475.333333333 253 460 c 1
 104 242 l 1
 304 242 l 1
469 176 m 1
 382 176 l 1
 382 0 l 1
 304 0 l 1
 304 176 l 1
 17 176 l 1
 17 230 l 1
 290 638 l 1
 382 638 l 1
 382 242 l 1
 469 242 l 1
 469 176 l 1
EndSplineSet
Validated: 1
Substitution2: "'onum' Oldstyle Figures in Latin lookup 22 subtable" four.tnum
Substitution2: "'pnum' Proportional Numbers in Latin lookup 21 subtable" four.pnum
Substitution2: "'subs' Subscript in Latin lookup 20 subtable" four.subs
Substitution2: "'sups' Superscript in Latin lookup 18 subtable" four.sups
Substitution2: "'dnom' Denominators in Latin lookup 13 subtable" four.dnom
Substitution2: "'numr' Numerators in Latin lookup 12 subtable" four.numr
Substitution2: "'smcp' Lowercase to Small Capitals in Latin lookup 10 subtable" four.sc
AlternateSubs2: "'aalt' Access All Alternates in Latin lookup 1 subtable" four.sc four.numr four.dnom four.sups four.subs four.pnum four.tnum
EndChar

StartChar: five
Encoding: 23 53 474
Width: 497
Flags: HW
LayerCount: 2
Fore
SplineSet
65 129 m 1
 83.6666666667 109.666666667 105.833333333 92.6666666667 131.5 78 c 128
 157.166666667 63.3333333333 188.666666667 56 226 56 c 0
 245.333333333 56 263.5 59.5 280.5 66.5 c 128
 297.5 73.5 312.333333333 83.3333333333 325 96 c 128
 337.666666667 108.666666667 347.666666667 124 355 142 c 128
 362.333333333 160 366 180 366 202 c 0
 366 246 353.666666667 280.333333333 329 305 c 128
 304.333333333 329.666666667 271.333333333 342 230 342 c 0
 208 342 189.166666667 338.666666667 173.5 332 c 128
 157.833333333 325.333333333 140.333333333 315.666666667 121 303 c 1
 77 331 l 1
 98 638 l 1
 417 638 l 1
 417 567 l 1
 170 567 l 1
 153 378 l 1
 168.333333333 386 183.666666667 392.333333333 199 397 c 128
 214.333333333 401.666666667 231.666666667 404 251 404 c 0
 278.333333333 404 304 400 328 392 c 128
 352 384 373 371.833333333 391 355.5 c 128
 409 339.166666667 423.166666667 318.5 433.5 293.5 c 128
 443.833333333 268.5 449 238.666666667 449 204 c 256
 449 169.333333333 443 138.666666667 431 112 c 128
 419 85.3333333333 403 62.8333333333 383 44.5 c 128
 363 26.1666666667 340.166666667 12.1666666667 314.5 2.5 c 128
 288.833333333 -7.16666666667 262 -12 234 -12 c 0
 208.666666667 -12 185.5 -9.5 164.5 -4.5 c 128
 143.5 0.5 124.5 7 107.5 15 c 128
 90.5 23 75.1666666667 32.1666666667 61.5 42.5 c 128
 47.8333333333 52.8333333333 35.6666666667 63.6666666667 25 75 c 1
 65 129 l 1
EndSplineSet
Validated: 1
Substitution2: "'onum' Oldstyle Figures in Latin lookup 22 subtable" five.tnum
Substitution2: "'pnum' Proportional Numbers in Latin lookup 21 subtable" five.pnum
Substitution2: "'subs' Subscript in Latin lookup 20 subtable" five.subs
Substitution2: "'sups' Superscript in Latin lookup 18 subtable" five.sups
Substitution2: "'dnom' Denominators in Latin lookup 13 subtable" five.dnom
Substitution2: "'numr' Numerators in Latin lookup 12 subtable" five.numr
Substitution2: "'smcp' Lowercase to Small Capitals in Latin lookup 10 subtable" five.sc
AlternateSubs2: "'aalt' Access All Alternates in Latin lookup 1 subtable" five.sc five.numr five.dnom five.sups five.subs five.pnum five.tnum
EndChar

StartChar: six
Encoding: 24 54 475
Width: 497
Flags: HW
LayerCount: 2
Fore
SplineSet
268 53 m 0
 284 53 298.666666667 56.3333333333 312 63 c 128
 325.333333333 69.6666666667 337 79.1666666667 347 91.5 c 128
 357 103.833333333 364.833333333 118.5 370.5 135.5 c 128
 376.166666667 152.5 379 171.666666667 379 193 c 0
 379 235 369.333333333 268 350 292 c 128
 330.666666667 316 301 328 261 328 c 0
 241 328 219.166666667 321.5 195.5 308.5 c 128
 171.833333333 295.5 149.333333333 274 128 244 c 1
 133.333333333 181.333333333 147.833333333 133.833333333 171.5 101.5 c 128
 195.166666667 69.1666666667 227.333333333 53 268 53 c 0
399 531 m 1
 385.666666667 546.333333333 369.833333333 558.5 351.5 567.5 c 128
 333.166666667 576.5 314 581 294 581 c 0
 272 581 251 576.333333333 231 567 c 128
 211 557.666666667 193.333333333 542.333333333 178 521 c 128
 162.666666667 499.666666667 150.333333333 471.833333333 141 437.5 c 128
 131.666666667 403.166666667 126.666666667 360.666666667 126 310 c 1
 146 334.666666667 169.333333333 354.166666667 196 368.5 c 128
 222.666666667 382.833333333 249 390 275 390 c 0
 330.333333333 390 374.5 373.666666667 407.5 341 c 128
 440.5 308.333333333 457 259 457 193 c 0
 457 162.333333333 452 134.5 442 109.5 c 128
 432 84.5 418.333333333 63 401 45 c 128
 383.666666667 27 363.666666667 13 341 3 c 128
 318.333333333 -7 294 -12 268 -12 c 0
 236.666666667 -12 207.666666667 -5.66666666667 181 7 c 128
 154.333333333 19.6666666667 131.166666667 38.8333333333 111.5 64.5 c 128
 91.8333333333 90.1666666667 76.3333333333 122.166666667 65 160.5 c 128
 53.6666666667 198.833333333 48 243.666666667 48 295 c 0
 48 359 54.6666666667 413.5 68 458.5 c 128
 81.3333333333 503.5 99.3333333333 540.166666667 122 568.5 c 128
 144.666666667 596.833333333 170.5 617.5 199.5 630.5 c 128
 228.5 643.5 259 650 291 650 c 0
 325.666666667 650 355.5 643.5 380.5 630.5 c 128
 405.5 617.5 427 601.333333333 445 582 c 1
 399 531 l 1
EndSplineSet
Validated: 1
Substitution2: "'onum' Oldstyle Figures in Latin lookup 22 subtable" six.tnum
Substitution2: "'pnum' Proportional Numbers in Latin lookup 21 subtable" six.pnum
Substitution2: "'subs' Subscript in Latin lookup 20 subtable" six.subs
Substitution2: "'sups' Superscript in Latin lookup 18 subtable" six.sups
Substitution2: "'dnom' Denominators in Latin lookup 13 subtable" six.dnom
Substitution2: "'numr' Numerators in Latin lookup 12 subtable" six.numr
Substitution2: "'smcp' Lowercase to Small Capitals in Latin lookup 10 subtable" six.sc
AlternateSubs2: "'aalt' Access All Alternates in Latin lookup 1 subtable" six.sc six.numr six.dnom six.sups six.subs six.pnum six.tnum
EndChar

StartChar: seven
Encoding: 25 55 476
Width: 497
Flags: HW
LayerCount: 2
Fore
SplineSet
177 0 m 1
 179.666666667 60 185 115 193 165 c 128
 201 215 212.166666667 262.5 226.5 307.5 c 128
 240.833333333 352.5 259.166666667 396 281.5 438 c 128
 303.833333333 480 330.666666667 523 362 567 c 1
 44 567 l 1
 44 638 l 1
 455 638 l 1
 455 587 l 1
 417 539 386.166666667 493 362.5 449 c 128
 338.833333333 405 320 360.166666667 306 314.5 c 128
 292 268.833333333 281.833333333 220.5 275.5 169.5 c 128
 269.166666667 118.5 264.666666667 62 262 0 c 1
 177 0 l 1
 177 0 l 1
EndSplineSet
Validated: 5
Substitution2: "'onum' Oldstyle Figures in Latin lookup 22 subtable" seven.tnum
Substitution2: "'pnum' Proportional Numbers in Latin lookup 21 subtable" seven.pnum
Substitution2: "'subs' Subscript in Latin lookup 20 subtable" seven.subs
Substitution2: "'sups' Superscript in Latin lookup 18 subtable" seven.sups
Substitution2: "'dnom' Denominators in Latin lookup 13 subtable" seven.dnom
Substitution2: "'numr' Numerators in Latin lookup 12 subtable" seven.numr
Substitution2: "'smcp' Lowercase to Small Capitals in Latin lookup 10 subtable" seven.sc
AlternateSubs2: "'aalt' Access All Alternates in Latin lookup 1 subtable" seven.sc seven.numr seven.dnom seven.sups seven.subs seven.pnum seven.tnum
EndChar

StartChar: eight
Encoding: 26 56 477
Width: 497
Flags: HW
LayerCount: 2
Fore
SplineSet
115 171 m 0
 115 153 118.5 136.666666667 125.5 122 c 128
 132.5 107.333333333 142.166666667 94.5 154.5 83.5 c 128
 166.833333333 72.5 181.333333333 64 198 58 c 128
 214.666666667 52 232.666666667 49 252 49 c 0
 289.333333333 49 319.5 59.3333333333 342.5 80 c 128
 365.5 100.666666667 377 127.666666667 377 161 c 0
 377 181.666666667 372.333333333 199.333333333 363 214 c 128
 353.666666667 228.666666667 341 241.5 325 252.5 c 128
 309 263.5 290.5 273.5 269.5 282.5 c 128
 248.5 291.5 226.666666667 300.666666667 204 310 c 1
 178.666666667 292.666666667 157.5 272.5 140.5 249.5 c 128
 123.5 226.5 115 200.333333333 115 171 c 0
295 348 m 1
 316.333333333 367.333333333 332.833333333 387.666666667 344.5 409 c 128
 356.166666667 430.333333333 362 452.666666667 362 476 c 0
 362 508 352.333333333 534.833333333 333 556.5 c 128
 313.666666667 578.166666667 286.333333333 589 251 589 c 0
 221 589 196.333333333 579.666666667 177 561 c 128
 157.666666667 542.333333333 148 517.333333333 148 486 c 0
 148 466.666666667 152 450.166666667 160 436.5 c 128
 168 422.833333333 178.833333333 410.666666667 192.5 400 c 128
 206.166666667 389.333333333 221.833333333 379.833333333 239.5 371.5 c 128
 257.166666667 363.166666667 275.666666667 355.333333333 295 348 c 1
41 163 m 0
 41 183.666666667 44.5 202.833333333 51.5 220.5 c 128
 58.5 238.166666667 67.5 254.166666667 78.5 268.5 c 128
 89.5 282.833333333 102.166666667 295.5 116.5 306.5 c 128
 130.833333333 317.5 145.666666667 327 161 335 c 1
 161 339 l 1
 137.666666667 355.666666667 117 375.833333333 99 399.5 c 128
 81 423.166666667 72 452 72 486 c 0
 72 510.666666667 76.6666666667 533 86 553 c 128
 95.3333333333 573 108 590.166666667 124 604.5 c 128
 140 618.833333333 159 630 181 638 c 128
 203 646 227 650 253 650 c 0
 281 650 306 645.833333333 328 637.5 c 128
 350 629.166666667 368.833333333 617.5 384.5 602.5 c 128
 400.166666667 587.5 412.166666667 569.5 420.5 548.5 c 128
 428.833333333 527.5 433 504.666666667 433 480 c 0
 433 463.333333333 430.166666667 447.333333333 424.5 432 c 128
 418.833333333 416.666666667 411.833333333 402.333333333 403.5 389 c 128
 395.166666667 375.666666667 385.833333333 363.666666667 375.5 353 c 128
 365.166666667 342.333333333 355 333.333333333 345 326 c 1
 345 322 l 1
 359 314 372.666666667 304.833333333 386 294.5 c 128
 399.333333333 284.166666667 411.166666667 272.5 421.5 259.5 c 128
 431.833333333 246.5 440.166666667 231.666666667 446.5 215 c 128
 452.833333333 198.333333333 456 179.333333333 456 158 c 0
 456 134 451 111.666666667 441 91 c 128
 431 70.3333333333 417 52.3333333333 399 37 c 128
 381 21.6666666667 359.333333333 9.66666666667 334 1 c 128
 308.666666667 -7.66666666667 280.666666667 -12 250 -12 c 0
 220 -12 192.166666667 -7.66666666667 166.5 1 c 128
 140.833333333 9.66666666667 118.833333333 21.8333333333 100.5 37.5 c 128
 82.1666666667 53.1666666667 67.6666666667 71.6666666667 57 93 c 128
 46.3333333333 114.333333333 41 137.666666667 41 163 c 0
EndSplineSet
Validated: 1
Substitution2: "'onum' Oldstyle Figures in Latin lookup 22 subtable" eight.tnum
Substitution2: "'pnum' Proportional Numbers in Latin lookup 21 subtable" eight.pnum
Substitution2: "'subs' Subscript in Latin lookup 20 subtable" eight.subs
Substitution2: "'sups' Superscript in Latin lookup 18 subtable" eight.sups
Substitution2: "'dnom' Denominators in Latin lookup 13 subtable" eight.dnom
Substitution2: "'numr' Numerators in Latin lookup 12 subtable" eight.numr
Substitution2: "'smcp' Lowercase to Small Capitals in Latin lookup 10 subtable" eight.sc
AlternateSubs2: "'aalt' Access All Alternates in Latin lookup 1 subtable" eight.sc eight.numr eight.dnom eight.sups eight.subs eight.pnum eight.tnum
EndChar

StartChar: nine
Encoding: 27 57 478
Width: 497
Flags: HW
LayerCount: 2
Fore
SplineSet
235 310 m 0
 255.666666667 310 277.833333333 316.5 301.5 329.5 c 128
 325.166666667 342.5 347.666666667 364.333333333 369 395 c 1
 363.666666667 457.666666667 349 505 325 537 c 128
 301 569 268.666666667 585 228 585 c 0
 212.666666667 585 198.166666667 581.666666667 184.5 575 c 128
 170.833333333 568.333333333 159 558.833333333 149 546.5 c 128
 139 534.166666667 131.166666667 519.333333333 125.5 502 c 128
 119.833333333 484.666666667 117 465.666666667 117 445 c 0
 117 403 126.666666667 370 146 346 c 128
 165.333333333 322 195 310 235 310 c 0
97 107 m 1
 110.333333333 91.6666666667 126.166666667 79.3333333333 144.5 70 c 128
 162.833333333 60.6666666667 182 56 202 56 c 0
 224.666666667 56 246 60.6666666667 266 70 c 128
 286 79.3333333333 303.666666667 94.8333333333 319 116.5 c 128
 334.333333333 138.166666667 346.666666667 166.333333333 356 201 c 128
 365.333333333 235.666666667 370.333333333 278.666666667 371 330 c 1
 351 304.666666667 327.666666667 284.666666667 301 270 c 128
 274.333333333 255.333333333 247.666666667 248 221 248 c 0
 165.666666667 248 121.666666667 264.333333333 89 297 c 128
 56.3333333333 329.666666667 40 379 40 445 c 0
 40 475.666666667 45 503.5 55 528.5 c 128
 65 553.5 78.5 575 95.5 593 c 128
 112.5 611 132.5 625 155.5 635 c 128
 178.5 645 202.666666667 650 228 650 c 0
 259.333333333 650 288.5 643.666666667 315.5 631 c 128
 342.5 618.333333333 365.833333333 599.166666667 385.5 573.5 c 128
 405.166666667 547.833333333 420.5 515.833333333 431.5 477.5 c 128
 442.5 439.166666667 448 394.333333333 448 343 c 0
 448 279 441.333333333 224.5 428 179.5 c 128
 414.666666667 134.5 396.666666667 97.8333333333 374 69.5 c 128
 351.333333333 41.1666666667 325.5 20.5 296.5 7.5 c 128
 267.5 -5.5 237 -12 205 -12 c 0
 171 -12 141.166666667 -5.66666666667 115.5 7 c 128
 89.8333333333 19.6666666667 68.3333333333 35.6666666667 51 55 c 1
 97 107 l 1
EndSplineSet
Validated: 1
Substitution2: "'onum' Oldstyle Figures in Latin lookup 22 subtable" nine.tnum
Substitution2: "'pnum' Proportional Numbers in Latin lookup 21 subtable" nine.pnum
Substitution2: "'subs' Subscript in Latin lookup 20 subtable" nine.subs
Substitution2: "'sups' Superscript in Latin lookup 18 subtable" nine.sups
Substitution2: "'dnom' Denominators in Latin lookup 13 subtable" nine.dnom
Substitution2: "'numr' Numerators in Latin lookup 12 subtable" nine.numr
Substitution2: "'smcp' Lowercase to Small Capitals in Latin lookup 10 subtable" nine.sc
AlternateSubs2: "'aalt' Access All Alternates in Latin lookup 1 subtable" nine.sc nine.numr nine.dnom nine.sups nine.subs nine.pnum nine.tnum
EndChar

StartChar: zero.pnum
Encoding: 923 -1 479
Width: 538
Flags: HW
LayerCount: 2
Fore
SplineSet
269 -12 m 256
 235.666666667 -12 205.833333333 -4.5 179.5 10.5 c 128
 153.166666667 25.5 130.666666667 47.1666666667 112 75.5 c 128
 93.3333333333 103.833333333 79.1666666667 138.666666667 69.5 180 c 128
 59.8333333333 221.333333333 55 268.333333333 55 321 c 0
 55 427 74 508.333333333 112 565 c 128
 150 621.666666667 202.333333333 650 269 650 c 256
 335.666666667 650 388 621.5 426 564.5 c 128
 464 507.5 483 426.333333333 483 321 c 0
 483 268.333333333 478.166666667 221.333333333 468.5 180 c 128
 458.833333333 138.666666667 444.666666667 103.833333333 426 75.5 c 128
 407.333333333 47.1666666667 384.833333333 25.5 358.5 10.5 c 128
 332.166666667 -4.5 302.333333333 -12 269 -12 c 256
269 56 m 256
 308.333333333 56 340 77.1666666667 364 119.5 c 128
 388 161.833333333 400 229 400 321 c 256
 400 413 388 479.333333333 364 520 c 128
 340 560.666666667 308.333333333 581 269 581 c 256
 229.666666667 581 198 560.666666667 174 520 c 128
 150 479.333333333 138 413 138 321 c 256
 138 229 150 161.833333333 174 119.5 c 128
 198 77.1666666667 229.666666667 56 269 56 c 256
EndSplineSet
Validated: 1
Substitution2: "'zero' Slashed Zero in Latin lookup 24 subtable" zero.0p
Substitution2: "'ss05' Style Set 5 in Latin lookup 23 subtable" zero.0ps
Substitution2: "'onum' Oldstyle Figures in Latin lookup 22 subtable" zero.onum
Substitution2: "'aalt' Access All Alternates in Latin lookup 0 subtable" zero.onum
EndChar

StartChar: one.pnum
Encoding: 924 -1 480
Width: 369
Flags: HW
LayerCount: 2
Fore
SplineSet
167 538 m 1
 50 538 l 1
 50 591 l 1
 80 596.333333333 105.833333333 602.833333333 127.5 610.5 c 128
 149.166666667 618.166666667 168.666666667 627.333333333 186 638 c 1
 249 638 l 1
 249 0 l 1
 167 0 l 1
 167 538 l 1
EndSplineSet
Validated: 1
Substitution2: "'onum' Oldstyle Figures in Latin lookup 22 subtable" one.onum
Substitution2: "'aalt' Access All Alternates in Latin lookup 0 subtable" one.onum
EndChar

StartChar: two.pnum
Encoding: 925 -1 481
Width: 501
Flags: HW
LayerCount: 2
Fore
SplineSet
43 49 m 1
 91 97 133.333333333 140.333333333 170 179 c 128
 206.666666667 217.666666667 237.666666667 253.5 263 286.5 c 128
 288.333333333 319.5 307.5 349.833333333 320.5 377.5 c 128
 333.5 405.166666667 340 432 340 458 c 0
 340 494.666666667 330.5 524.666666667 311.5 548 c 128
 292.5 571.333333333 262.333333333 583 221 583 c 0
 194.333333333 583 169.5 575.5 146.5 560.5 c 128
 123.5 545.5 103 527.333333333 85 506 c 1
 37 553 l 1
 65 583.666666667 94.1666666667 607.5 124.5 624.5 c 128
 154.833333333 641.5 190.333333333 650 231 650 c 0
 290.333333333 650 336.666666667 632.833333333 370 598.5 c 128
 403.333333333 564.166666667 420 518.666666667 420 462 c 0
 420 432 413.666666667 401.833333333 401 371.5 c 128
 388.333333333 341.166666667 370.5 309.833333333 347.5 277.5 c 128
 324.5 245.166666667 297.333333333 211.5 266 176.5 c 128
 234.666666667 141.5 200.666666667 104.333333333 164 65 c 1
 181.333333333 66.3333333333 199.333333333 67.6666666667 218 69 c 128
 236.666666667 70.3333333333 254.333333333 71 271 71 c 2
 448 71 l 1
 448 0 l 1
 43 0 l 1
 43 49 l 1
EndSplineSet
Validated: 1
Substitution2: "'onum' Oldstyle Figures in Latin lookup 22 subtable" two.onum
Substitution2: "'aalt' Access All Alternates in Latin lookup 0 subtable" two.onum
EndChar

StartChar: seven.pnum
Encoding: 930 -1 486
Width: 491
Flags: HW
LayerCount: 2
Fore
SplineSet
167 0 m 1
 169.666666667 60 174.833333333 115 182.5 165 c 128
 190.166666667 215 201 262.5 215 307.5 c 128
 229 352.5 246.833333333 396 268.5 438 c 128
 290.166666667 480 316.666666667 523 348 567 c 1
 44 567 l 1
 44 638 l 1
 441 638 l 1
 441 587 l 1
 403.666666667 539 373.333333333 493 350 449 c 128
 326.666666667 405 308.166666667 360.166666667 294.5 314.5 c 128
 280.833333333 268.833333333 271 220.5 265 169.5 c 128
 259 118.5 254.666666667 62 252 0 c 1
 167 0 l 1
 167 0 l 1
EndSplineSet
Validated: 5
Substitution2: "'onum' Oldstyle Figures in Latin lookup 22 subtable" seven.onum
Substitution2: "'aalt' Access All Alternates in Latin lookup 0 subtable" seven.onum
EndChar

StartChar: zero.tnum
Encoding: 933 -1 489
Width: 497
Flags: HW
LayerCount: 2
Fore
SplineSet
249 -12 m 256
 186.333333333 -12 136.5 13 99.5 63 c 128
 62.5 113 44 187.666666667 44 287 c 256
 44 386.333333333 62.5 461 99.5 511 c 128
 136.5 561 186.333333333 586 249 586 c 256
 311.666666667 586 361.333333333 561 398 511 c 128
 434.666666667 461 453 386.333333333 453 287 c 256
 453 187.666666667 434.666666667 113 398 63 c 128
 361.333333333 13 311.666666667 -12 249 -12 c 256
249 54 m 0
 288.333333333 54 318.833333333 74.5 340.5 115.5 c 128
 362.166666667 156.5 373 213.666666667 373 287 c 256
 373 360.333333333 362.166666667 417.333333333 340.5 458 c 128
 318.833333333 498.666666667 288.333333333 519 249 519 c 0
 209 519 178.166666667 498.666666667 156.5 458 c 128
 134.833333333 417.333333333 124 360.333333333 124 287 c 256
 124 213.666666667 134.833333333 156.5 156.5 115.5 c 128
 178.166666667 74.5 209 54 249 54 c 0
EndSplineSet
Validated: 1
Substitution2: "'pnum' Proportional Numbers in Latin lookup 21 subtable" zero.onum
Substitution2: "'aalt' Access All Alternates in Latin lookup 0 subtable" zero.onum
EndChar

StartChar: one.tnum
Encoding: 934 -1 490
Width: 497
Flags: HW
LayerCount: 2
Fore
SplineSet
79 68 m 1
 225 68 l 1
 225 474 l 1
 109 474 l 1
 109 527 l 1
 138.333333333 532.333333333 163.833333333 538.833333333 185.5 546.5 c 128
 207.166666667 554.166666667 226.666666667 563.333333333 244 574 c 1
 307 574 l 1
 307 68 l 1
 439 68 l 1
 439 0 l 1
 79 0 l 1
 79 68 l 1
EndSplineSet
Validated: 1
Substitution2: "'pnum' Proportional Numbers in Latin lookup 21 subtable" one.onum
Substitution2: "'aalt' Access All Alternates in Latin lookup 0 subtable" one.onum
EndChar

StartChar: two.tnum
Encoding: 935 -1 491
Width: 497
Flags: HW
LayerCount: 2
Fore
SplineSet
40 49 m 1
 87.3333333333 88.3333333333 129.5 124.166666667 166.5 156.5 c 128
 203.5 188.833333333 234.666666667 218.833333333 260 246.5 c 128
 285.333333333 274.166666667 304.666666667 300.166666667 318 324.5 c 128
 331.333333333 348.833333333 338 372.666666667 338 396 c 0
 338 431.333333333 328.333333333 460.333333333 309 483 c 128
 289.666666667 505.666666667 260 517 220 517 c 0
 192.666666667 517 167.666666667 509.666666667 145 495 c 128
 122.333333333 480.333333333 101.666666667 462.333333333 83 441 c 1
 36 487 l 1
 62.6666666667 517 91 540.666666667 121 558 c 128
 151 575.333333333 187 584 229 584 c 0
 287.666666667 584 333.833333333 567.166666667 367.5 533.5 c 128
 401.166666667 499.833333333 418 455 418 399 c 0
 418 371.666666667 411.833333333 345.333333333 399.5 320 c 128
 387.166666667 294.666666667 369.833333333 268.666666667 347.5 242 c 128
 325.166666667 215.333333333 298.833333333 187.5 268.5 158.5 c 128
 238.166666667 129.5 205 98.3333333333 169 65 c 1
 186.333333333 66.3333333333 204.333333333 67.6666666667 223 69 c 128
 241.666666667 70.3333333333 259.333333333 71 276 71 c 2
 452 71 l 1
 452 0 l 1
 40 0 l 1
 40 49 l 1
EndSplineSet
Validated: 1
Substitution2: "'pnum' Proportional Numbers in Latin lookup 21 subtable" two.onum
Substitution2: "'aalt' Access All Alternates in Latin lookup 0 subtable" two.onum
EndChar

StartChar: three.tnum
Encoding: 936 -1 492
Width: 497
Flags: HW
LayerCount: 2
Fore
SplineSet
68 58 m 1
 87.3333333333 38 109.833333333 20.5 135.5 5.5 c 128
 161.166666667 -9.5 193 -17 231 -17 c 0
 269.666666667 -17 301.333333333 -6 326 16 c 128
 350.666666667 38 363 67 363 103 c 0
 363 121.666666667 359.5 138.833333333 352.5 154.5 c 128
 345.5 170.166666667 334 183.666666667 318 195 c 128
 302 206.333333333 281 215.166666667 255 221.5 c 128
 229 227.833333333 197 231 159 231 c 1
 159 295 l 1
 193 295 221.5 298.166666667 244.5 304.5 c 128
 267.5 310.833333333 286.166666667 319.5 300.5 330.5 c 128
 314.833333333 341.5 325 354.333333333 331 369 c 128
 337 383.666666667 340 399.333333333 340 416 c 0
 340 447.333333333 330.166666667 472.333333333 310.5 491 c 128
 290.833333333 509.666666667 264 519 230 519 c 0
 203.333333333 519 178.833333333 513 156.5 501 c 128
 134.166666667 489 113.333333333 473.333333333 94 454 c 1
 50 506 l 1
 74.6666666667 529.333333333 101.833333333 548.5 131.5 563.5 c 128
 161.166666667 578.5 195 586 233 586 c 0
 261 586 286.666666667 582.333333333 310 575 c 128
 333.333333333 567.666666667 353.5 557 370.5 543 c 128
 387.5 529 400.666666667 511.833333333 410 491.5 c 128
 419.333333333 471.166666667 424 448 424 422 c 0
 424 383.333333333 413.333333333 351.166666667 392 325.5 c 128
 370.666666667 299.833333333 342.666666667 280.666666667 308 268 c 1
 308 264 l 1
 327.333333333 259.333333333 345.333333333 252.333333333 362 243 c 128
 378.666666667 233.666666667 393.333333333 222 406 208 c 128
 418.666666667 194 428.5 177.833333333 435.5 159.5 c 128
 442.5 141.166666667 446 121 446 99 c 0
 446 71 440.5 45.5 429.5 22.5 c 128
 418.5 -0.5 403.5 -20 384.5 -36 c 128
 365.5 -52 343.333333333 -64.3333333333 318 -73 c 128
 292.666666667 -81.6666666667 265.333333333 -86 236 -86 c 0
 210.666666667 -86 187.5 -83.5 166.5 -78.5 c 128
 145.5 -73.5 126.333333333 -66.8333333333 109 -58.5 c 128
 91.6666666667 -50.1666666667 76.1666666667 -40.6666666667 62.5 -30 c 128
 48.8333333333 -19.3333333333 36.6666666667 -8 26 4 c 1
 68 58 l 1
EndSplineSet
Validated: 1
Substitution2: "'pnum' Proportional Numbers in Latin lookup 21 subtable" three.onum
Substitution2: "'aalt' Access All Alternates in Latin lookup 0 subtable" three.onum
EndChar

StartChar: four.tnum
Encoding: 937 -1 493
Width: 497
Flags: HW
LayerCount: 2
Fore
SplineSet
304 160 m 1
 304 363 l 2
 304 380.333333333 304.5 400.333333333 305.5 423 c 128
 306.5 445.666666667 307.666666667 465.666666667 309 483 c 1
 305 483 l 1
 288.333333333 449.666666667 271 417 253 385 c 1
 104 160 l 1
 304 160 l 1
469 94 m 1
 382 94 l 1
 382 -74 l 1
 304 -74 l 1
 304 94 l 1
 17 94 l 1
 17 149 l 1
 290 574 l 1
 382 574 l 1
 382 160 l 1
 469 160 l 1
 469 94 l 1
EndSplineSet
Validated: 1
Substitution2: "'pnum' Proportional Numbers in Latin lookup 21 subtable" four.onum
Substitution2: "'aalt' Access All Alternates in Latin lookup 0 subtable" four.onum
EndChar

StartChar: five.tnum
Encoding: 938 -1 494
Width: 497
Flags: HW
LayerCount: 2
Fore
SplineSet
65 55 m 1
 83.6666666667 36.3333333333 105.833333333 19.6666666667 131.5 5 c 128
 157.166666667 -9.66666666667 188.666666667 -17 226 -17 c 0
 245.333333333 -17 263.5 -13.5 280.5 -6.5 c 128
 297.5 0.5 312.333333333 10.5 325 23.5 c 128
 337.666666667 36.5 347.666666667 52 355 70 c 128
 362.333333333 88 366 108.333333333 366 131 c 0
 366 175.666666667 353.666666667 210.5 329 235.5 c 128
 304.333333333 260.5 271.333333333 273 230 273 c 0
 208 273 189.166666667 269.833333333 173.5 263.5 c 128
 157.833333333 257.166666667 140.333333333 247.333333333 121 234 c 1
 77 262 l 1
 98 574 l 1
 417 574 l 1
 417 503 l 1
 170 503 l 1
 153 309 l 1
 168.333333333 317 183.666666667 323.5 199 328.5 c 128
 214.333333333 333.5 231.666666667 336 251 336 c 0
 278.333333333 336 304 332 328 324 c 128
 352 316 373 303.666666667 391 287 c 128
 409 270.333333333 423.166666667 249.333333333 433.5 224 c 128
 443.833333333 198.666666667 449 168.666666667 449 134 c 0
 449 98.6666666667 443 67.3333333333 431 40 c 128
 419 12.6666666667 403 -10.3333333333 383 -29 c 128
 363 -47.6666666667 340.166666667 -61.8333333333 314.5 -71.5 c 128
 288.833333333 -81.1666666667 262 -86 234 -86 c 0
 208.666666667 -86 185.5 -83.5 164.5 -78.5 c 128
 143.5 -73.5 124.5 -66.8333333333 107.5 -58.5 c 128
 90.5 -50.1666666667 75.1666666667 -40.6666666667 61.5 -30 c 128
 47.8333333333 -19.3333333333 35.6666666667 -8.33333333333 25 3 c 1
 65 55 l 1
EndSplineSet
Validated: 1
Substitution2: "'pnum' Proportional Numbers in Latin lookup 21 subtable" five.onum
Substitution2: "'aalt' Access All Alternates in Latin lookup 0 subtable" five.onum
EndChar

StartChar: seven.tnum
Encoding: 940 -1 496
Width: 497
Flags: HW
LayerCount: 2
Fore
SplineSet
177 -74 m 1
 179.666666667 -13.3333333333 185 42.5 193 93.5 c 128
 201 144.5 212.166666667 193 226.5 239 c 128
 240.833333333 285 259.166666667 329.5 281.5 372.5 c 128
 303.833333333 415.5 330.666666667 459 362 503 c 1
 44 503 l 1
 44 574 l 1
 455 574 l 1
 455 523 l 1
 417 474.333333333 386.166666667 427.666666667 362.5 383 c 128
 338.833333333 338.333333333 320 292.666666667 306 246 c 128
 292 199.333333333 281.833333333 150 275.5 98 c 128
 269.166666667 46 264.666666667 -11.3333333333 262 -74 c 1
 177 -74 l 1
 177 -74 l 1
EndSplineSet
Validated: 5
Substitution2: "'pnum' Proportional Numbers in Latin lookup 21 subtable" seven.onum
Substitution2: "'aalt' Access All Alternates in Latin lookup 0 subtable" seven.onum
EndChar

StartChar: nine.tnum
Encoding: 942 -1 498
Width: 497
Flags: HW
LayerCount: 2
Fore
SplineSet
229 227 m 0
 251.666666667 227 275.333333333 233.5 300 246.5 c 128
 324.666666667 259.5 348 281.666666667 370 313 c 1
 366 381.666666667 351.666666667 433.5 327 468.5 c 128
 302.333333333 503.5 268.333333333 521 225 521 c 0
 208.333333333 521 192.833333333 517.333333333 178.5 510 c 128
 164.166666667 502.666666667 151.833333333 492.5 141.5 479.5 c 128
 131.166666667 466.5 123 451 117 433 c 128
 111 415 108 395 108 373 c 0
 108 327.666666667 117.666666667 292 137 266 c 128
 156.333333333 240 187 227 229 227 c 0
89 29 m 1
 121.666666667 -1.66666666667 158.666666667 -17 200 -17 c 0
 223.333333333 -17 245 -12.5 265 -3.5 c 128
 285 5.5 302.5 20.1666666667 317.5 40.5 c 128
 332.5 60.8333333333 344.666666667 87.6666666667 354 121 c 128
 363.333333333 154.333333333 369 195.666666667 371 245 c 1
 350.333333333 219.666666667 326.166666667 200 298.5 186 c 128
 270.833333333 172 243 165 215 165 c 0
 155.666666667 165 110 183 78 219 c 128
 46 255 30 306.333333333 30 373 c 0
 30 404.333333333 35.1666666667 433.166666667 45.5 459.5 c 128
 55.8333333333 485.833333333 69.8333333333 508.333333333 87.5 527 c 128
 105.166666667 545.666666667 125.833333333 560.166666667 149.5 570.5 c 128
 173.166666667 580.833333333 198.333333333 586 225 586 c 0
 259.666666667 586 291 578.833333333 319 564.5 c 128
 347 550.166666667 370.666666667 529.5 390 502.5 c 128
 409.333333333 475.5 424.166666667 442.833333333 434.5 404.5 c 128
 444.833333333 366.166666667 450 322.666666667 450 274 c 0
 450 212.666666667 444 159.5 432 114.5 c 128
 420 69.5 403.166666667 32.1666666667 381.5 2.5 c 128
 359.833333333 -27.1666666667 334 -49.3333333333 304 -64 c 128
 274 -78.6666666667 240.666666667 -86 204 -86 c 0
 172 -86 144.333333333 -81 121 -71 c 128
 97.6666666667 -61 75.3333333333 -47 54 -29 c 1
 89 29 l 1
EndSplineSet
Validated: 1
Substitution2: "'pnum' Proportional Numbers in Latin lookup 21 subtable" nine.onum
Substitution2: "'aalt' Access All Alternates in Latin lookup 0 subtable" nine.onum
EndChar

StartChar: one.onum
Encoding: 944 -1 500
Width: 369
Flags: HW
LayerCount: 2
Fore
SplineSet
167 474 m 1
 50 474 l 1
 50 527 l 1
 80 532.333333333 105.833333333 538.833333333 127.5 546.5 c 128
 149.166666667 554.166666667 168.666666667 563.333333333 186 574 c 1
 249 574 l 1
 249 0 l 1
 167 0 l 1
 167 474 l 1
EndSplineSet
Validated: 1
EndChar

StartChar: two.onum
Encoding: 945 -1 501
Width: 497
Flags: HW
LayerCount: 2
Fore
SplineSet
48 49 m 1
 95.3333333333 88.3333333333 137 124.166666667 173 156.5 c 128
 209 188.833333333 239 218.833333333 263 246.5 c 128
 287 274.166666667 305 300.166666667 317 324.5 c 128
 329 348.833333333 335 372.666666667 335 396 c 0
 335 431.333333333 325.833333333 460.333333333 307.5 483 c 128
 289.166666667 505.666666667 260 517 220 517 c 0
 192.666666667 517 168.5 509.666666667 147.5 495 c 128
 126.5 480.333333333 106.666666667 462.333333333 88 441 c 1
 41 487 l 1
 67.6666666667 516.333333333 95.3333333333 539.833333333 124 557.5 c 128
 152.666666667 575.166666667 187.666666667 584 229 584 c 0
 258.333333333 584 284.5 579.5 307.5 570.5 c 128
 330.5 561.5 350 549 366 533 c 128
 382 517 394.166666667 497.666666667 402.5 475 c 128
 410.833333333 452.333333333 415 427 415 399 c 0
 415 371.666666667 409.166666667 345.333333333 397.5 320 c 128
 385.833333333 294.666666667 369.5 268.666666667 348.5 242 c 128
 327.5 215.333333333 302.166666667 187.5 272.5 158.5 c 128
 242.833333333 129.5 210 98.3333333333 174 65 c 1
 191.333333333 66.3333333333 209.333333333 67.6666666667 228 69 c 128
 246.666666667 70.3333333333 264.333333333 71 281 71 c 2
 444 71 l 1
 444 0 l 1
 48 0 l 1
 48 49 l 1
EndSplineSet
Validated: 1
EndChar

StartChar: seven.onum
Encoding: 950 -1 506
Width: 489
Flags: HW
LayerCount: 2
Fore
SplineSet
165 -74 m 1
 167.666666667 -13.3333333333 172.833333333 42.6666666667 180.5 94 c 128
 188.166666667 145.333333333 199.333333333 193.833333333 214 239.5 c 128
 228.666666667 285.166666667 246.833333333 329.5 268.5 372.5 c 128
 290.166666667 415.5 316.666666667 459 348 503 c 1
 44 503 l 1
 44 574 l 1
 441 574 l 1
 441 523 l 1
 403.666666667 474.333333333 373.166666667 427.666666667 349.5 383 c 128
 325.833333333 338.333333333 307 292.666666667 293 246 c 128
 279 199.333333333 269 150.166666667 263 98.5 c 128
 257 46.8333333333 252.666666667 -10.6666666667 250 -74 c 1
 165 -74 l 1
 165 -74 l 1
EndSplineSet
Validated: 5
EndChar

StartChar: period
Encoding: 16 46 509
Width: 249
Flags: HW
LayerCount: 2
Fore
SplineSet
65 50 m 0
 65 69.3333333333 70.8333333333 84.8333333333 82.5 96.5 c 128
 94.1666666667 108.166666667 108.333333333 114 125 114 c 0
 141 114 154.833333333 108.166666667 166.5 96.5 c 128
 178.166666667 84.8333333333 184 69.3333333333 184 50 c 0
 184 32 178.166666667 17.1666666667 166.5 5.5 c 128
 154.833333333 -6.16666666667 141 -12 125 -12 c 0
 108.333333333 -12 94.1666666667 -6.16666666667 82.5 5.5 c 128
 70.8333333333 17.1666666667 65 32 65 50 c 0
EndSplineSet
Validated: 1
Substitution2: "'subs' Subscript in Latin lookup 20 subtable" period.subs
Substitution2: "'sups' Superscript in Latin lookup 18 subtable" period.sups
Substitution2: "'dnom' Denominators in Latin lookup 13 subtable" period.dnom
Substitution2: "'numr' Numerators in Latin lookup 12 subtable" period.numr
AlternateSubs2: "'aalt' Access All Alternates in Latin lookup 1 subtable" period.numr period.dnom period.sups period.subs
EndChar

StartChar: comma
Encoding: 14 44 510
Width: 249
Flags: HW
LayerCount: 2
Fore
SplineSet
47 -122 m 1
 75 -109.333333333 97 -92.6666666667 113 -72 c 128
 129 -51.3333333333 137 -27.3333333333 137 0 c 1
 135 -0.666666666667 131.666666667 -1 127 -1 c 0
 111 -1 97.1666666667 3.83333333333 85.5 13.5 c 128
 73.8333333333 23.1666666667 68 37.3333333333 68 56 c 0
 68 74 74 88.1666666667 86 98.5 c 128
 98 108.833333333 112.333333333 114 129 114 c 0
 150.333333333 114 167.166666667 105.333333333 179.5 88 c 128
 191.833333333 70.6666666667 198 47 198 17 c 0
 198 -26.3333333333 186.333333333 -64 163 -96 c 128
 139.666666667 -128 107.666666667 -152.666666667 67 -170 c 1
 47 -122 l 1
EndSplineSet
Validated: 1
Substitution2: "'subs' Subscript in Latin lookup 20 subtable" comma.subs
Substitution2: "'sups' Superscript in Latin lookup 18 subtable" comma.sups
Substitution2: "'dnom' Denominators in Latin lookup 13 subtable" comma.dnom
Substitution2: "'numr' Numerators in Latin lookup 12 subtable" comma.numr
AlternateSubs2: "'aalt' Access All Alternates in Latin lookup 1 subtable" comma.numr comma.dnom comma.sups comma.subs
EndChar

StartChar: exclam
Encoding: 3 33 514
Width: 289
Flags: HW
LayerCount: 2
Fore
SplineSet
105 576 m 1
 103 670 l 1
 186 670 l 1
 184 576 l 1
 173 198 l 1
 116 198 l 1
 105 576 l 1
85 50 m 0
 85 69.3333333333 90.8333333333 84.8333333333 102.5 96.5 c 128
 114.166666667 108.166666667 128.333333333 114 145 114 c 0
 161 114 174.833333333 108.166666667 186.5 96.5 c 128
 198.166666667 84.8333333333 204 69.3333333333 204 50 c 0
 204 32 198.166666667 17.1666666667 186.5 5.5 c 128
 174.833333333 -6.16666666667 161 -12 145 -12 c 0
 128.333333333 -12 114.166666667 -6.16666666667 102.5 5.5 c 128
 90.8333333333 17.1666666667 85 32 85 50 c 0
EndSplineSet
Validated: 1
EndChar

StartChar: exclamdown
Encoding: 98 161 515
Width: 289
Flags: HW
LayerCount: 2
Fore
SplineSet
184 -90 m 1
 186 -184 l 1
 103 -184 l 1
 105 -90 l 1
 116 288 l 1
 173 288 l 1
 184 -90 l 1
204 436 m 0
 204 416.666666667 198.166666667 401.166666667 186.5 389.5 c 128
 174.833333333 377.833333333 161 372 145 372 c 0
 128.333333333 372 114.166666667 377.833333333 102.5 389.5 c 128
 90.8333333333 401.166666667 85 416.666666667 85 436 c 0
 85 454 90.8333333333 468.833333333 102.5 480.5 c 128
 114.166666667 492.166666667 128.333333333 498 145 498 c 0
 161 498 174.833333333 492.166666667 186.5 480.5 c 128
 198.166666667 468.833333333 204 454 204 436 c 0
EndSplineSet
Validated: 1
EndChar

StartChar: question
Encoding: 33 63 516
Width: 425
Flags: HW
LayerCount: 2
Fore
SplineSet
160 198 m 1
 156 224 156.833333333 247.5 162.5 268.5 c 128
 168.166666667 289.5 176 308.833333333 186 326.5 c 128
 196 344.166666667 207.5 360.666666667 220.5 376 c 128
 233.5 391.333333333 245.666666667 406.5 257 421.5 c 128
 268.333333333 436.5 277.833333333 451.666666667 285.5 467 c 128
 293.166666667 482.333333333 297 499 297 517 c 0
 297 543.666666667 288.833333333 566.5 272.5 585.5 c 128
 256.166666667 604.5 232 614 200 614 c 0
 178 614 157.166666667 608.833333333 137.5 598.5 c 128
 117.833333333 588.166666667 100.333333333 574 85 556 c 1
 38 599 l 1
 59.3333333333 623 83.6666666667 642.833333333 111 658.5 c 128
 138.333333333 674.166666667 170 682 206 682 c 0
 258 682 299.5 667.833333333 330.5 639.5 c 128
 361.5 611.166666667 377 572 377 522 c 0
 377 500 373 480 365 462 c 128
 357 444 347.166666667 427 335.5 411 c 128
 323.833333333 395 311.5 379.166666667 298.5 363.5 c 128
 285.5 347.833333333 273.5 331.666666667 262.5 315 c 128
 251.5 298.333333333 243 280.5 237 261.5 c 128
 231 242.5 229.333333333 221.333333333 232 198 c 1
 160 198 l 1
139 50 m 0
 139 69.3333333333 144.666666667 84.8333333333 156 96.5 c 128
 167.333333333 108.166666667 181.333333333 114 198 114 c 256
 214.666666667 114 228.833333333 108.166666667 240.5 96.5 c 128
 252.166666667 84.8333333333 258 69.3333333333 258 50 c 0
 258 32 252.166666667 17.1666666667 240.5 5.5 c 128
 228.833333333 -6.16666666667 214.666666667 -12 198 -12 c 256
 181.333333333 -12 167.333333333 -6.16666666667 156 5.5 c 128
 144.666666667 17.1666666667 139 32 139 50 c 0
EndSplineSet
Validated: 33
EndChar

StartChar: questiondown
Encoding: 128 191 517
Width: 425
Flags: HW
LayerCount: 2
Fore
SplineSet
265 288 m 1
 268.333333333 262 267.333333333 238.5 262 217.5 c 128
 256.666666667 196.5 249 177.166666667 239 159.5 c 128
 229 141.833333333 217.5 125.333333333 204.5 110 c 128
 191.5 94.6666666667 179.333333333 79.5 168 64.5 c 128
 156.666666667 49.5 147.166666667 34.1666666667 139.5 18.5 c 128
 131.833333333 2.83333333333 128 -13.6666666667 128 -31 c 0
 128 -57.6666666667 136 -80.3333333333 152 -99 c 128
 168 -117.666666667 192.333333333 -127 225 -127 c 0
 247 -127 267.666666667 -122 287 -112 c 128
 306.333333333 -102 323.666666667 -88 339 -70 c 1
 387 -113 l 1
 365.666666667 -136.333333333 341.333333333 -156 314 -172 c 128
 286.666666667 -188 255 -196 219 -196 c 0
 167 -196 125.5 -181.833333333 94.5 -153.5 c 128
 63.5 -125.166666667 48 -86 48 -36 c 0
 48 -14 52 6 60 24 c 128
 68 42 77.8333333333 59 89.5 75 c 128
 101.166666667 91 113.5 106.833333333 126.5 122.5 c 128
 139.5 138.166666667 151.333333333 154.333333333 162 171 c 128
 172.666666667 187.666666667 181 205.5 187 224.5 c 128
 193 243.5 194.666666667 264.666666667 192 288 c 1
 265 288 l 1
286 436 m 0
 286 416.666666667 280.166666667 401.166666667 268.5 389.5 c 128
 256.833333333 377.833333333 243 372 227 372 c 0
 210.333333333 372 196.166666667 377.833333333 184.5 389.5 c 128
 172.833333333 401.166666667 167 416.666666667 167 436 c 0
 167 454 172.833333333 468.833333333 184.5 480.5 c 128
 196.166666667 492.166666667 210.333333333 498 227 498 c 0
 243 498 256.833333333 492.166666667 268.5 480.5 c 128
 280.166666667 468.833333333 286 454 286 436 c 0
EndSplineSet
Validated: 33
EndChar

StartChar: quotesingle
Encoding: 9 39 518
Width: 249
Flags: HW
LayerCount: 2
Fore
SplineSet
83 598 m 1
 80 690 l 1
 168 690 l 1
 165 598 l 1
 149 431 l 1
 99 431 l 1
 83 598 l 1
EndSplineSet
Validated: 1
EndChar

StartChar: quoteleft
Encoding: 571 8216 520
Width: 249
Flags: HW
LayerCount: 2
Fore
SplineSet
187 625 m 1
 161.666666667 608.333333333 142.666666667 590.666666667 130 572 c 128
 117.333333333 553.333333333 111 529.666666667 111 501 c 1
 113 501.666666667 116 502 120 502 c 0
 133.333333333 502 145.5 497.666666667 156.5 489 c 128
 167.5 480.333333333 173 467.666666667 173 451 c 0
 173 433.666666667 168 420.166666667 158 410.5 c 128
 148 400.833333333 135.333333333 396 120 396 c 0
 100 396 84.5 403.666666667 73.5 419 c 128
 62.5 434.333333333 57 456.666666667 57 486 c 0
 57 526 66 560.666666667 84 590 c 128
 102 619.333333333 128.333333333 644 163 664 c 1
 187 625 l 1
EndSplineSet
EndChar

StartChar: quoteright
Encoding: 572 8217 521
Width: 249
Flags: HW
LayerCount: 2
Fore
SplineSet
63 434 m 1
 88.3333333333 450.666666667 107.166666667 468.333333333 119.5 487 c 128
 131.833333333 505.666666667 138 529.666666667 138 559 c 1
 136 558.333333333 133.333333333 558 130 558 c 0
 116 558 103.666666667 562.333333333 93 571 c 128
 82.3333333333 579.666666667 77 592 77 608 c 0
 77 625.333333333 82 639 92 649 c 128
 102 659 114.666666667 664 130 664 c 4
 149.333333333 664 164.666666667 656.166666667 176 640.5 c 128
 187.333333333 624.833333333 193 602.333333333 193 573 c 0
 193 533 183.833333333 498.5 165.5 469.5 c 128
 147.166666667 440.5 120.666666667 416 86 396 c 1
 63 434 l 1
EndSplineSet
EndChar

StartChar: guilsinglleft
Encoding: 584 8249 526
Width: 271
Flags: HW
LayerCount: 2
Fore
SplineSet
45 221 m 1
 45 283 l 1
 181 438 l 1
 217 408 l 1
 99 252 l 1
 217 94 l 1
 181 66 l 1
 45 221 l 1
EndSplineSet
Validated: 1
EndChar

StartChar: guilsinglright
Encoding: 585 8250 527
Width: 271
Flags: HW
LayerCount: 2
Fore
SplineSet
172 252 m 1
 54 408 l 1
 89 438 l 1
 226 283 l 1
 226 221 l 1
 89 66 l 1
 54 94 l 1
 172 252 l 1
EndSplineSet
Validated: 1
EndChar

StartChar: hyphen
Encoding: 15 45 530
Width: 311
Flags: HW
LayerCount: 2
Fore
SplineSet
41 282 m 1
 271 282 l 1
 271 219 l 1
 41 219 l 1
 41 282 l 1
EndSplineSet
Validated: 1
Substitution2: "'sups' Superscript in Latin lookup 19 subtable" hyphen.sups
Substitution2: "'smcp' Lowercase to Small Capitals in Latin lookup 10 subtable" hyphen.sc
AlternateSubs2: "'aalt' Access All Alternates in Latin lookup 1 subtable" hyphen.sc hyphen.sups
EndChar

StartChar: endash
Encoding: 567 8211 532
Width: 480
Flags: HW
LayerCount: 2
Fore
SplineSet
41 280 m 1
 439 280 l 1
 439 223 l 1
 41 223 l 1
 41 280 l 1
EndSplineSet
Validated: 1
Substitution2: "'sups' Superscript in Latin lookup 19 subtable" endash.sups
Substitution2: "'smcp' Lowercase to Small Capitals in Latin lookup 10 subtable" endash.sc
AlternateSubs2: "'aalt' Access All Alternates in Latin lookup 1 subtable" endash.sc endash.sups
EndChar

StartChar: emdash
Encoding: 568 8212 533
Width: 800
Flags: HW
LayerCount: 2
Fore
SplineSet
41 280 m 1
 759 280 l 1
 759 223 l 1
 41 223 l 1
 41 280 l 1
EndSplineSet
Validated: 1
Substitution2: "'sups' Superscript in Latin lookup 19 subtable" emdash.sups
Substitution2: "'smcp' Lowercase to Small Capitals in Latin lookup 10 subtable" emdash.sc
AlternateSubs2: "'aalt' Access All Alternates in Latin lookup 1 subtable" emdash.sc emdash.sups
EndChar

StartChar: figuredash
Encoding: 566 8210 534
Width: 497
Flags: HW
LayerCount: 2
Fore
SplineSet
41 280 m 1
 457 280 l 1
 457 223 l 1
 41 223 l 1
 41 280 l 1
EndSplineSet
Validated: 1
EndChar

StartChar: bullet
Encoding: 579 8226 537
Width: 304
Flags: HW
LayerCount: 2
Fore
SplineSet
152 143 m 0
 136.666666667 143 122.333333333 145.833333333 109 151.5 c 128
 95.6666666667 157.166666667 83.8333333333 165.333333333 73.5 176 c 128
 63.1666666667 186.666666667 55 199.333333333 49 214 c 128
 43 228.666666667 40 245 40 263 c 256
 40 281 43 297.5 49 312.5 c 128
 55 327.5 63.1666666667 340.166666667 73.5 350.5 c 128
 83.8333333333 360.833333333 95.6666666667 369 109 375 c 128
 122.333333333 381 136.666666667 384 152 384 c 0
 166.666666667 384 180.833333333 381 194.5 375 c 128
 208.166666667 369 220.166666667 360.833333333 230.5 350.5 c 128
 240.833333333 340.166666667 249 327.5 255 312.5 c 128
 261 297.5 264 281 264 263 c 256
 264 245 261 228.666666667 255 214 c 128
 249 199.333333333 240.833333333 186.666666667 230.5 176 c 128
 220.166666667 165.333333333 208.166666667 157.166666667 194.5 151.5 c 128
 180.833333333 145.833333333 166.666666667 143 152 143 c 0
EndSplineSet
Validated: 1
EndChar

StartChar: underscore
Encoding: 65 95 538
Width: 500
Flags: HW
LayerCount: 2
Fore
SplineSet
488 -71 m 1
 488 -126 l 1
 12 -126 l 1
 12 -71 l 1
 488 -71 l 1
EndSplineSet
Validated: 1
EndChar

StartChar: parenleft
Encoding: 10 40 539
Width: 303
Flags: HW
LayerCount: 2
Fore
SplineSet
214 -176 m 1
 172.666666667 -109.333333333 140.333333333 -39 117 35 c 128
 93.6666666667 109 82 190 82 278 c 256
 82 366 93.6666666667 446.833333333 117 520.5 c 128
 140.333333333 594.166666667 172.666666667 664.666666667 214 732 c 1
 265 708 l 1
 226.333333333 644 197.5 575.5 178.5 502.5 c 128
 159.5 429.5 150 354.666666667 150 278 c 256
 150 201.333333333 159.5 126.5 178.5 53.5 c 128
 197.5 -19.5 226.333333333 -88 265 -152 c 1
 214 -176 l 1
 214 -176 l 1
EndSplineSet
Validated: 5
Substitution2: "'subs' Subscript in Latin lookup 20 subtable" parenleft.subs
Substitution2: "'sups' Superscript in Latin lookup 18 subtable" parenleft.sups
Substitution2: "'dnom' Denominators in Latin lookup 13 subtable" parenleft.dnom
Substitution2: "'numr' Numerators in Latin lookup 12 subtable" parenleft.numr
AlternateSubs2: "'aalt' Access All Alternates in Latin lookup 1 subtable" parenleft.numr parenleft.dnom parenleft.sups parenleft.subs
EndChar

